<svg version="1.1" id="Layer_1" xmlns="http://www.w3.org/2000/svg" xmlns:xlink="http://www.w3.org/1999/xlink" x="0px" y="0px"
	 width="100%" viewBox="0 0 222 227" enable-background="new 0 0 222 227" xml:space="preserve">
<path fill="#074E8A" opacity="1.000000" stroke="none" 
	d="
M1.000000,138.000000 
	C1.000000,136.285858 1.000000,134.571732 1.297266,132.257416 
	C4.844754,129.598938 7.853317,126.850197 11.390621,125.612152 
	C21.899488,121.934090 21.792589,122.162430 22.028709,111.222847 
	C22.105076,107.684776 20.832493,106.418755 17.728724,105.275230 
	C12.032260,103.176468 6.563620,100.459335 1.000001,98.000000 
	C1.000000,96.611107 1.000000,95.222221 1.336834,93.243988 
	C3.436945,85.040489 3.808475,84.750153 11.630445,84.910309 
	C12.462944,84.927353 13.296076,84.952461 14.126909,85.005333 
	C17.931149,85.247429 22.581173,86.939049 25.297373,85.340431 
	C27.946867,83.781082 28.601036,78.854591 30.170694,75.424423 
	C30.697058,74.274162 31.344931,73.179512 32.045734,71.854332 
	C27.326141,67.990234 22.771923,64.382233 18.357267,60.610878 
	C14.465377,57.286102 16.049398,53.902065 18.491028,50.532703 
	C20.874197,47.244019 23.382162,44.370594 27.955713,46.715027 
	C31.206417,48.381359 34.522907,49.976391 37.567387,51.973202 
	C41.170879,54.336662 44.093044,54.641129 46.819645,50.732685 
	C48.418774,48.440418 50.415188,46.425304 52.117310,44.421574 
	C54.133263,45.686382 55.277374,46.404198 56.421490,47.122013 
	C56.680920,45.485554 56.189613,44.505474 55.427662,43.831261 
	C54.760506,43.240932 53.330257,43.210705 53.024277,42.561848 
	C50.338020,36.865429 47.758869,31.114624 45.342018,25.299292 
	C44.985218,24.440775 45.304684,22.912813 45.886749,22.113832 
	C50.610798,15.629318 56.760376,15.267365 62.234909,21.270271 
	C65.336189,24.670876 68.068306,28.408154 70.951744,31.975315 
	C72.046394,31.586512 72.825630,31.328224 73.591469,31.034941 
	C84.703239,26.779629 84.702805,26.778505 83.759567,14.875314 
	C82.970322,4.915379 82.970322,4.915379 91.000000,1.000000 
	C92.388893,1.000000 93.777779,1.000000 95.667572,1.335371 
	C97.860329,5.066668 99.972900,8.321824 101.165108,11.884933 
	C104.730309,22.540188 104.588577,22.498951 115.927269,22.364904 
	C118.485008,22.334663 119.733307,21.657072 120.545700,19.128891 
	C122.507141,13.024874 124.825531,7.035562 127.000000,1.000000 
	C128.388885,1.000000 129.777786,1.000000 131.744781,1.343098 
	C140.735168,3.499900 141.453857,4.479787 140.664368,13.059392 
	C139.368073,27.146523 139.367249,27.148846 152.576706,31.744791 
	C152.851868,31.840525 153.210388,31.696640 153.345093,31.683111 
	C157.192825,27.362343 160.946365,23.152666 164.693680,18.937485 
	C167.216721,16.099455 170.012878,15.666038 172.972870,18.164328 
	C176.109985,20.812119 181.067566,22.602907 178.221054,28.348770 
	C176.159393,32.510319 173.967209,36.611530 172.054550,40.839767 
	C171.522003,42.017021 171.158554,44.015732 171.778305,44.839989 
	C174.427429,48.363197 177.473358,51.588058 180.332611,54.873547 
	C183.104950,53.305450 185.219543,51.993298 187.436798,50.886868 
	C189.805527,49.704845 192.217529,48.567684 194.705246,47.674412 
	C200.460876,45.607704 206.851410,49.504562 207.575714,55.628826 
	C207.727463,56.911789 207.011337,58.549431 206.185242,59.635971 
	C204.994278,61.202454 203.349365,62.427921 201.876724,63.775486 
	C191.638077,73.144585 191.636307,73.142639 198.530014,86.168777 
	C201.965866,85.843193 205.582993,85.495293 209.201172,85.158516 
	C219.750824,84.176628 219.749832,84.178719 222.566162,93.776703 
	C222.597748,93.884308 222.850494,93.927002 223.000000,94.000000 
	C223.000000,95.388893 223.000000,96.777779 222.652435,98.652267 
	C219.168060,100.562988 216.124817,102.264854 212.877411,103.362946 
	C201.785522,107.113617 201.662247,107.037788 202.302780,118.853386 
	C202.379211,120.263680 203.899094,122.224030 205.244507,122.828438 
	C211.062714,125.442215 217.064804,127.646645 223.000000,130.000000 
	C223.000000,131.714142 223.000000,133.428268 222.656097,135.731689 
	C220.647964,143.880508 220.045853,144.350647 212.359802,144.032578 
	C211.362015,143.991287 210.363678,143.920609 209.370514,143.816498 
	C197.615509,142.584229 197.726532,142.621765 193.782898,153.572983 
	C192.807739,156.280899 193.334076,157.749985 195.457001,159.480133 
	C199.064316,162.420059 202.362732,165.736221 205.842804,168.836060 
	C208.170120,170.909134 208.857925,173.078003 206.788895,175.755051 
	C205.878311,176.933243 205.046829,178.211624 204.407776,179.553284 
	C202.558868,183.434860 199.675598,183.846252 196.182114,182.096283 
	C192.326584,180.164963 188.489929,178.187866 184.723618,176.089691 
	C182.437164,174.815979 180.776932,174.701004 178.606644,176.749542 
	C170.298569,184.591644 170.206848,184.492447 175.502533,194.625732 
	C176.040024,195.654221 176.585419,196.680908 177.067093,197.735840 
	C180.472931,205.195129 179.712753,207.331558 172.583832,211.201935 
	C169.683762,212.776413 167.587708,212.652878 165.294601,209.835678 
	C161.633606,205.338043 157.467285,201.251709 153.534882,197.013306 
	C152.127441,197.485779 151.022766,197.812653 149.950241,198.223465 
	C139.571289,202.199112 139.572830,202.203140 140.675659,213.285126 
	C141.747238,224.053070 141.734100,224.075363 132.000000,228.000000 
	C130.933350,228.000000 129.866684,228.000000 128.242783,227.695694 
	C125.946136,223.698090 123.811615,220.134979 122.543732,216.286346 
	C119.160172,206.015610 121.902855,206.487289 109.094231,206.690582 
	C108.928436,206.693222 108.758324,206.722946 108.597511,206.696198 
	C105.272331,206.143326 104.035118,207.988983 103.110184,210.880219 
	C101.265015,216.648087 99.057739,222.300125 97.000000,228.000000 
	C95.933342,228.000000 94.866692,228.000000 93.169327,227.720245 
	C82.886681,224.566849 82.480309,224.041428 83.228691,215.402893 
	C84.392281,201.971603 84.392891,201.969971 71.782372,197.238815 
	C71.483803,197.126801 71.130211,197.161469 70.801064,197.129639 
	C66.930130,201.454193 63.011902,205.734573 59.205338,210.112076 
	C55.871029,213.946503 52.684486,212.049805 49.501522,210.008621 
	C46.241589,207.918045 43.490566,205.575821 45.706657,201.091705 
	C47.691532,197.075439 49.391407,192.904236 51.585518,189.008942 
	C54.462570,183.901215 50.601570,181.308548 47.900730,178.378036 
	C45.527317,175.802780 43.036545,173.428085 39.009274,176.331711 
	C36.214500,178.346741 32.921318,179.715012 29.753511,181.158752 
	C23.365498,184.070114 21.640953,183.310867 18.112549,177.463272 
	C15.906481,173.807190 16.513851,170.817673 19.341173,168.127487 
	C22.439939,165.179016 25.886532,162.588425 28.897449,159.559448 
	C29.946980,158.503632 30.887793,156.461456 30.623539,155.116226 
	C28.412008,143.858093 26.688454,142.672195 15.301021,143.709229 
	C14.306363,143.799805 13.296276,143.760101 12.310278,143.900085 
	C7.118276,144.637314 2.907924,143.538025 1.000000,138.000000 
M169.822983,155.242645 
	C168.997833,155.162613 168.172668,155.082596 167.347519,155.002563 
	C167.281372,155.255157 167.215240,155.507736 167.149094,155.760330 
	C167.848129,156.075424 168.547165,156.390518 169.684387,157.136765 
	C170.530823,157.660965 171.377258,158.185165 172.688721,159.137711 
	C173.929626,159.926147 175.170532,160.714584 176.721008,162.077393 
	C176.849686,163.005615 176.978363,163.933823 177.107025,164.862045 
	C177.842758,163.746536 178.578491,162.631027 179.391617,161.454178 
	C179.391617,161.454178 179.468582,161.392319 180.342392,161.150101 
	C181.181931,159.623154 182.021469,158.096222 183.538773,155.336563 
	C180.865097,156.742767 179.686661,157.362549 178.244965,158.120804 
	C179.388306,152.194000 178.152161,151.080521 172.469955,152.520370 
	C174.027283,153.128754 175.498795,153.703598 178.492828,154.873230 
	C175.973145,156.284164 174.532486,157.090881 172.870743,157.281586 
	C171.945755,156.817993 171.020767,156.354401 169.822983,155.242645 
M40.436195,159.012619 
	C40.436195,159.012619 40.862614,159.022720 41.246399,159.580338 
	C42.590836,161.581528 43.935276,163.582718 45.279713,165.583923 
	C45.681278,165.367126 46.082844,165.150330 46.484406,164.933533 
	C46.103455,163.827911 45.722500,162.722275 45.761715,161.220612 
	C45.898159,161.084885 46.034607,160.949142 47.007996,161.030701 
	C48.280342,160.746780 50.674755,160.318283 50.659550,160.200302 
	C50.348049,157.783066 49.761528,155.401306 49.849785,152.770218 
	C49.920071,151.655960 50.233131,149.617691 50.025017,149.563019 
	C45.256760,148.310181 46.580536,144.748337 47.041729,141.044205 
	C46.563160,140.555161 45.874180,139.556641 45.637882,139.654236 
	C42.575031,140.919189 39.576515,142.339920 36.394878,143.797821 
	C35.944012,142.661713 35.529629,141.617523 35.108562,140.556488 
	C38.965492,139.157486 42.602787,137.838135 46.240078,136.518799 
	C46.059303,136.027374 45.878529,135.535950 45.697754,135.044540 
	C41.888458,136.033218 38.079166,137.021912 34.269871,138.010605 
	C34.111160,137.525742 33.952454,137.040894 33.793743,136.556030 
	C36.726189,135.503754 39.658634,134.451477 42.591080,133.399185 
	C42.551689,133.200974 42.512299,133.002747 42.472912,132.804535 
	C39.420010,133.036758 36.367104,133.268997 33.164154,133.512634 
	C32.823299,130.787476 32.482296,128.061081 32.141289,125.334679 
	C32.680706,125.072929 33.220119,124.811188 33.759533,124.549438 
	C34.881161,126.457817 36.002789,128.366196 37.124416,130.274567 
	C37.520489,130.286194 37.916565,130.297821 38.312641,130.309433 
	C38.312641,128.464783 38.312641,126.620117 38.312641,124.720581 
	C39.858353,124.188354 41.623337,123.580627 43.388325,122.972908 
	C43.278168,122.603439 43.168011,122.233978 43.057858,121.864517 
	C39.386097,122.206528 35.714336,122.548538 31.975973,122.896751 
	C31.722498,119.593483 31.514309,116.880394 31.306120,114.167305 
	C31.740494,114.146393 32.174866,114.125488 32.609238,114.104576 
	C32.906376,116.029335 33.203514,117.954094 33.503883,119.899803 
	C35.725742,119.378838 37.568642,118.946732 39.411545,118.514618 
	C39.195061,118.236832 38.978580,117.959038 38.762096,117.681252 
	C40.288502,115.905037 41.814911,114.128830 43.317989,112.379768 
	C37.503738,111.790131 37.503738,111.790131 36.860153,108.347733 
	C37.022499,108.384811 37.184845,108.421898 37.347195,108.458984 
	C37.232620,108.520203 37.113762,108.574615 37.004112,108.643669 
	C35.551659,109.558281 34.100498,110.474960 32.141048,111.711746 
	C31.917614,109.771271 31.661577,107.547676 31.405542,105.324081 
	C30.822504,105.269485 30.239466,105.214890 29.656427,105.160286 
	C28.146269,109.909866 29.171398,115.045067 28.990580,119.965439 
	C28.796530,125.245949 28.946777,130.539108 28.946777,135.109146 
	C30.278149,137.049591 31.672155,138.571457 32.476986,140.358643 
	C34.248482,144.292389 35.821609,148.324921 37.264366,152.392105 
	C37.772377,153.824219 37.663811,155.475067 37.244900,157.210327 
	C37.468567,158.809174 37.692238,160.408005 38.439178,162.405563 
	C38.962727,161.270752 39.486271,160.135941 40.436195,159.012619 
M37.521515,79.040466 
	C37.409245,79.346725 37.296974,79.652977 36.657955,80.266006 
	C36.510372,81.189178 36.362785,82.112343 36.215199,83.035515 
	C37.541267,82.984772 38.867340,82.934029 40.965633,82.970917 
	C42.364086,83.829880 42.409340,88.825035 45.299374,84.861176 
	C43.821346,83.120766 42.478413,81.539436 41.134315,79.904472 
	C41.134315,79.904472 41.083641,79.886864 41.574108,79.497467 
	C41.470760,79.316170 41.367413,79.134880 41.978893,78.994751 
	C42.694782,78.978043 43.410667,78.961342 44.782619,79.344719 
	C44.975742,80.559708 45.168865,81.774689 45.428822,83.410133 
	C46.966137,82.012703 48.120983,80.962952 49.616753,79.603294 
	C47.406376,78.523796 45.749001,77.714371 43.809834,76.257996 
	C43.241695,75.244141 42.673553,74.230286 42.105415,73.216431 
	C42.523663,72.996315 42.941910,72.776199 43.360153,72.556076 
	C46.663567,74.492714 49.966980,76.429344 53.270397,78.365974 
	C53.418488,78.077393 53.566582,77.788811 53.714676,77.500229 
	C50.339527,74.490593 46.964378,71.480965 42.868851,67.828972 
	C41.452133,70.783005 39.753971,74.323883 37.979618,78.299469 
	C37.979618,78.299469 37.974506,78.740662 37.521515,79.040466 
M175.320511,146.095108 
	C174.597885,146.525970 173.875259,146.956818 173.152634,147.387680 
	C173.277771,147.663406 173.402908,147.939133 173.528030,148.214859 
	C174.660492,147.798737 175.792938,147.382599 177.482071,147.004013 
	C178.150787,147.578629 178.819519,148.153229 180.110794,149.246796 
	C182.791901,150.215286 184.253662,151.678711 181.767059,155.150085 
	C181.829910,155.671478 181.892761,156.192871 181.955627,156.714264 
	C182.370300,156.623352 182.784988,156.532425 183.798737,155.877319 
	C185.022034,153.300919 186.245331,150.724518 187.388977,148.315842 
	C184.899918,148.126938 183.044876,147.986145 181.368668,147.152420 
	C181.290115,144.227081 180.654236,144.103806 175.320511,146.095108 
M191.006577,138.298737 
	C191.086700,137.548889 191.166809,136.799057 191.309448,135.382812 
	C190.884293,135.313812 190.459122,135.244812 189.583710,135.026917 
	C189.583710,135.026917 189.115463,134.951828 189.357407,134.250458 
	C189.569489,133.504745 189.781570,132.759033 189.993637,132.013321 
	C188.502914,131.620926 187.012192,131.228546 185.202301,130.324905 
	C184.522797,130.567917 183.843292,130.810913 182.466476,131.338257 
	C181.906082,133.550690 181.345688,135.763123 180.958481,138.410049 
	C181.494232,138.496979 182.029968,138.583893 182.841705,139.172974 
	C183.892944,139.424484 184.944199,139.675995 186.309769,140.316406 
	C186.476257,140.324692 186.642731,140.332962 187.011154,141.010101 
	C186.179459,141.967087 185.347763,142.924072 184.666901,143.707535 
	C185.570663,144.764191 186.412994,145.749023 188.021286,147.629410 
	C189.118393,144.158569 189.931824,141.585144 191.006577,138.298737 
M165.276459,51.289200 
	C164.842361,51.144932 164.408264,51.000664 163.706696,50.240246 
	C162.138351,49.157112 160.570023,48.073982 158.924667,46.290623 
	C148.949387,39.058029 138.420029,33.225574 127.463112,32.754108 
	C123.818344,35.880360 121.371780,37.978859 119.086136,39.939335 
	C121.986336,46.106228 125.556381,44.184151 129.721115,40.637379 
	C129.590027,43.449863 129.507935,45.211266 129.425842,46.972668 
	C129.827606,47.025089 130.229370,47.077511 130.631134,47.129932 
	C131.699387,43.512569 132.767624,39.895206 134.047089,35.562634 
	C136.763153,37.135147 139.168442,38.527729 141.573715,39.920311 
	C141.355392,40.370590 141.137070,40.820873 140.918747,41.271156 
	C139.053299,41.271156 137.187851,41.271156 135.322418,41.271156 
	C135.141418,41.787807 134.960419,42.304455 134.779419,42.821106 
	C136.393509,43.510323 138.007599,44.199539 139.877243,44.997875 
	C139.556747,46.712261 139.184753,48.936905 138.680511,51.131161 
	C138.609695,51.439358 137.891403,51.598770 137.472809,51.827049 
	C138.115616,51.733498 139.082474,51.870708 139.342972,51.504902 
	C140.278809,50.190735 141.096161,48.758369 141.735168,47.274578 
	C142.689209,45.059345 143.454056,42.762638 144.247086,40.640575 
	C152.708908,41.427040 144.282242,50.808784 150.612686,51.848633 
	C150.274170,53.791729 150.008850,55.314640 149.743546,56.837547 
	C152.088974,54.338257 153.295288,51.565964 155.015213,49.160961 
	C155.696243,48.208649 157.518692,48.072598 158.994293,48.276264 
	C158.626724,49.673645 158.212067,51.060730 157.903671,52.471050 
	C157.528320,54.187542 157.242447,55.923595 156.900238,58.390408 
	C157.834396,59.173534 158.768555,59.956657 159.611069,60.662952 
	C159.053360,61.958004 158.507462,63.225605 157.576752,65.386803 
	C162.028122,63.164497 165.517548,61.422436 169.671631,59.776543 
	C170.853455,60.706776 172.035263,61.637005 173.589890,63.158310 
	C173.852539,64.554680 174.115204,65.951057 174.377853,67.347427 
	C173.904099,67.449310 173.430344,67.551201 172.956589,67.653091 
	C171.585297,66.363670 170.213989,65.074249 168.842697,63.784824 
	C168.338470,64.138885 167.834259,64.492943 167.330048,64.847008 
	C168.484375,66.775642 169.638718,68.704285 171.086853,71.123772 
	C173.118118,70.198334 175.390182,69.163193 177.994980,68.703880 
	C178.434769,68.461357 178.874542,68.218834 179.491272,67.257759 
	C177.886078,65.228958 176.280884,63.200146 174.330673,60.619728 
	C171.243195,57.732651 168.155701,54.845573 165.019028,51.993629 
	C165.019028,51.993629 165.051239,51.943050 165.276459,51.289200 
M83.915367,187.718140 
	C86.389488,184.897003 84.360916,182.781693 82.172356,182.070312 
	C75.562119,179.921677 74.725151,183.421356 76.670753,188.956268 
	C75.390594,188.956268 74.370941,188.956268 73.288170,188.956268 
	C74.256157,193.564087 77.024628,195.953400 80.272751,194.953461 
	C83.854614,193.850754 83.552925,191.346710 82.691666,188.214417 
	C82.865334,188.069458 83.038994,187.924515 83.915367,187.718140 
M72.506790,52.801811 
	C74.792786,54.705402 79.490997,52.218452 80.899788,49.185425 
	C81.568604,49.796745 82.237411,50.408070 82.906227,51.019390 
	C83.232735,49.857498 83.901016,48.671089 83.819778,47.538441 
	C83.601852,44.500069 83.063126,41.484711 82.640610,38.377800 
	C84.168266,37.866539 85.382858,37.460052 86.616318,37.047253 
	C87.385376,39.552376 88.069519,41.780888 88.753662,44.009403 
	C89.400452,43.825691 90.047241,43.641979 90.694038,43.458267 
	C90.192429,41.047451 89.690819,38.636639 89.189209,36.225822 
	C89.669510,36.058697 90.149803,35.891567 90.630104,35.724442 
	C92.081345,39.475452 93.532585,43.226467 94.983826,46.977478 
	C95.401505,46.831635 95.819183,46.685791 96.236855,46.539948 
	C95.314339,42.799751 94.391815,39.059559 93.308052,34.665653 
	C96.439186,34.512482 98.938187,34.390236 101.437195,34.267990 
	C101.453461,34.732494 101.469734,35.197002 101.486000,35.661510 
	C100.078453,35.815910 98.670914,35.970310 95.688782,36.297432 
	C97.044113,38.781223 97.704872,40.986439 99.153130,42.363361 
	C100.568985,43.709476 102.788109,44.210693 104.544739,45.031441 
	C105.028748,43.011063 105.708466,40.173748 106.480606,36.950672 
	C106.313545,36.812939 105.194344,35.890198 103.433083,34.438110 
	C106.647415,33.802307 108.768738,33.382706 110.890053,32.963104 
	C110.867798,32.532413 110.845551,32.101727 110.823296,31.671036 
	C109.636734,31.465427 108.429031,31.003487 107.267326,31.099287 
	C102.630562,31.481659 98.017052,32.202358 93.376289,32.454662 
	C91.282974,32.568474 89.155563,31.732405 87.026039,31.589531 
	C84.664230,31.431074 81.967293,30.901852 80.019646,31.817497 
	C78.715019,32.430840 78.461525,35.280006 77.510506,37.708965 
	C74.005562,39.716305 69.880867,42.570385 65.367020,44.526398 
	C60.788311,46.510525 57.664024,49.925453 54.935833,53.669239 
	C53.662971,55.415936 53.298901,57.715477 50.649090,58.055130 
	C50.536053,58.069618 50.488155,58.592331 50.414719,58.860722 
	C51.662918,59.048130 52.892876,59.232800 54.399380,59.458988 
	C53.937763,61.133400 53.577564,62.439941 52.941124,64.748474 
	C55.037502,63.370201 56.205830,62.602077 57.374157,61.833954 
	C57.789825,62.190044 58.205494,62.546131 58.621162,62.902218 
	C57.401829,64.473351 56.182491,66.044479 54.898087,67.699463 
	C61.715458,68.511261 60.718632,63.370117 60.910549,59.128845 
	C63.043537,60.378441 64.690125,61.343079 66.336708,62.307720 
	C66.823372,61.723904 67.310028,61.140087 67.796692,60.556267 
	C64.556297,58.257172 61.315903,55.958073 58.075508,53.658974 
	C58.681862,52.851887 59.288216,52.044800 59.894569,51.237713 
	C65.011864,50.593090 65.147911,58.655022 70.526230,59.203270 
	C68.705833,56.575150 67.289276,54.530060 65.872719,52.484970 
	C66.185463,52.261189 66.498215,52.037407 66.810959,51.813629 
	C67.976044,52.899593 69.141129,53.985558 70.311592,55.076530 
	C71.028900,53.873482 71.565407,52.973679 72.506790,52.801811 
M114.481918,59.071106 
	C114.930557,57.744053 115.379196,56.417004 115.988716,54.614071 
	C102.278908,54.382072 89.637016,56.189796 78.276154,64.193031 
	C79.936867,66.187050 81.147293,68.019638 82.724174,69.447533 
	C85.280907,71.762711 88.077988,73.812469 90.499519,76.580856 
	C79.274765,81.906601 72.022781,90.190140 70.168678,102.616226 
	C72.499931,92.576447 63.505337,90.155869 58.590866,84.340599 
	C46.866062,105.640129 46.811829,126.281250 57.483322,147.617493 
	C63.289406,143.097229 68.639267,138.902847 74.021179,134.749969 
	C79.972755,130.157547 81.092720,119.107094 76.855682,113.886253 
	C79.976120,114.970169 83.096565,116.054092 86.853783,117.359200 
	C86.164482,114.551331 85.692520,112.815857 85.314926,111.060089 
	C82.978378,100.195419 88.792786,87.513298 98.163689,83.563438 
	C98.452438,83.754204 98.741188,83.944969 99.720192,84.578598 
	C108.145226,84.383232 116.570259,84.187859 125.360779,83.437943 
	C131.345825,77.212395 137.330887,70.986855 144.392548,63.641434 
	C135.710388,60.316692 127.829865,57.298923 119.400169,54.070862 
	C119.046532,56.258099 119.028847,57.250103 118.706284,58.130383 
	C118.335457,59.142330 117.694801,60.055401 116.768463,60.365318 
	C116.035576,60.185341 115.302681,60.005360 114.481918,59.071106 
M142.143997,109.761101 
	C136.088028,108.292717 134.044724,109.784569 133.710632,115.733337 
	C135.591415,115.733337 137.482117,115.733337 139.372833,115.733337 
	C139.193985,117.642372 139.684723,120.027420 138.723175,121.380020 
	C133.950317,128.093872 128.794556,134.535492 123.669426,141.208786 
	C121.464302,139.913528 119.498566,138.983643 117.807037,137.694077 
	C116.458130,136.665710 115.443542,135.198837 114.280556,133.926605 
	C115.668533,132.793732 116.887283,131.231262 118.475136,130.605759 
	C123.999008,128.429749 128.809952,125.638130 131.198410,119.337166 
	C117.252434,119.337166 103.777687,119.337166 89.475838,119.337166 
	C92.943748,124.998871 96.752846,128.977585 102.512032,131.050278 
	C104.120720,131.629227 106.452080,133.162827 106.502464,134.341812 
	C106.562347,135.743134 104.685692,137.413864 103.351837,138.647446 
	C100.925774,140.891129 98.280945,142.898270 95.727402,145.004120 
	C95.982292,145.527771 96.237183,146.051422 96.492073,146.575073 
	C105.749046,146.575073 115.007919,146.658081 124.260010,146.445786 
	C125.177834,146.424728 126.342834,144.741592 126.902214,143.591187 
	C130.071625,137.073090 133.890076,131.122025 140.815079,127.470032 
	C148.352280,134.335770 155.889481,141.201523 163.451141,148.089539 
	C174.645920,131.277512 174.675140,101.844185 163.456161,86.043098 
	C158.523514,90.244438 153.776382,94.648949 148.642624,98.543877 
	C144.676514,101.552917 142.062241,104.864059 142.143997,109.761101 
M89.020859,161.517731 
	C86.237648,164.700958 83.454430,167.884171 80.607338,171.140457 
	C100.468781,183.538559 127.947517,181.155182 142.483017,169.666931 
	C136.706650,164.609955 130.835373,159.732666 125.286736,154.512436 
	C122.024994,151.443726 118.344048,150.824524 114.098389,150.159119 
	C103.320061,148.469849 94.995041,151.236862 89.020859,161.517731 
M112.499275,116.974609 
	C118.660866,116.974609 124.822456,116.974609 130.984039,116.974609 
	C131.250153,116.322037 131.516266,115.669456 131.782364,115.016884 
	C128.359070,112.393692 124.883911,109.834412 121.536446,107.117783 
	C120.072113,105.929405 119.058311,104.123314 117.501320,103.126770 
	C115.327705,101.735565 112.866234,100.074341 110.472313,99.982750 
	C108.669662,99.913773 106.763191,102.104225 104.933952,103.335037 
	C103.596283,104.235092 102.437561,105.600044 100.976234,106.081680 
	C95.680649,107.827057 91.671486,110.721138 89.667145,116.974586 
	C97.370049,116.974586 104.434814,116.974586 112.499275,116.974609 
M193.098022,93.360741 
	C193.322968,92.781921 193.909698,92.006439 193.718124,91.654045 
	C191.208618,87.037674 188.600311,82.474686 185.988861,77.914307 
	C185.382797,76.855957 184.671799,75.857704 184.009094,74.831795 
	C184.697266,75.758911 185.385437,76.686035 186.073608,77.613152 
	C182.361923,78.823044 178.650223,80.032928 174.938538,81.242821 
	C175.604523,82.299660 176.270508,83.356506 176.936493,84.413345 
	C179.211655,84.668571 181.496216,84.861938 183.757828,85.206154 
	C184.826035,85.368729 185.850204,85.820404 186.894333,86.141098 
	C186.031586,86.921173 185.290421,87.964874 184.282333,88.429893 
	C181.681473,89.629639 178.962616,90.573586 176.290894,91.619713 
	C176.470016,92.073952 176.649124,92.528183 176.828232,92.982414 
	C180.390488,91.894890 183.952728,90.807365 188.090073,89.544273 
	C188.236267,91.177559 188.593185,92.425453 188.314529,93.510078 
	C188.214493,93.899445 186.189407,94.380531 185.712250,93.993828 
	C181.954941,90.948692 182.282166,94.694733 180.653427,96.710808 
	C184.134109,96.493484 186.846725,96.324112 189.641464,96.149612 
	C190.899261,98.397217 190.710403,99.879066 187.589539,100.601715 
	C185.997681,100.970329 184.239822,102.122017 183.309692,103.447823 
	C182.275589,104.921844 182.098236,106.996925 181.442734,109.156876 
	C184.688263,108.837372 188.059586,108.505486 191.539581,108.162903 
	C191.539581,111.212097 191.539581,113.932037 191.539581,117.371216 
	C190.287674,116.249870 189.565460,115.602974 188.843246,114.956085 
	C188.455719,115.311478 188.068192,115.666870 187.680679,116.022263 
	C189.358994,117.806549 191.037308,119.590836 192.715637,121.375130 
	C193.227814,121.235687 193.739990,121.096252 194.252167,120.956818 
	C193.823868,111.967934 193.395584,102.979057 193.098022,93.360741 
M99.800613,201.041077 
	C100.762459,197.343613 101.844482,193.668777 102.550247,189.923065 
	C102.650452,189.391220 101.024300,188.164124 100.018669,187.870834 
	C97.915039,187.257294 95.692360,187.051971 93.573738,186.688461 
	C91.015121,197.942047 91.015121,197.942047 93.364952,199.708633 
	C93.892059,198.144547 94.390381,196.665894 94.839569,195.333038 
	C100.200317,194.478775 97.867546,198.920044 99.800613,201.041077 
M127.673256,188.974411 
	C127.075912,188.297989 126.478577,187.621552 124.912369,185.847977 
	C124.912369,189.410004 124.912369,191.399872 124.912369,193.453857 
	C122.444298,191.582657 120.293861,189.952255 118.143425,188.321869 
	C117.747223,188.706573 117.351013,189.091278 116.954811,189.475983 
	C117.802887,193.509872 118.650963,197.543777 119.499039,201.577682 
	C120.176170,201.501099 120.853294,201.424500 121.530426,201.347916 
	C121.273216,198.926956 121.016006,196.505981 120.725128,193.768127 
	C123.390999,196.142181 125.829285,198.313568 128.267578,200.484940 
	C128.659363,200.146454 129.051147,199.807968 129.442947,199.469482 
	C128.909714,196.240448 128.376495,193.011398 127.673256,188.974411 
M131.919495,193.609650 
	C132.509125,195.295319 133.098755,196.980988 134.227020,200.206497 
	C137.291428,197.589661 140.772919,195.938141 141.787872,193.327667 
	C142.585434,191.276230 141.061951,186.573715 139.265961,185.685944 
	C136.776840,184.455536 133.065903,185.696823 129.336761,185.910889 
	C130.415680,189.148209 131.035553,191.008163 131.919495,193.609650 
M149.326202,179.589157 
	C150.323639,183.312546 151.321091,187.035934 152.506760,191.461975 
	C153.913467,189.047623 154.509720,186.762451 155.959106,185.882477 
	C157.486679,184.955002 159.829010,185.369492 162.932190,185.101074 
	C159.142166,182.050964 156.331345,179.790726 153.522598,177.527924 
	C151.403152,175.820435 149.979263,176.364700 149.326202,179.589157 
M64.242195,178.602615 
	C63.828125,180.806839 62.773849,183.149918 63.211826,185.169342 
	C63.535530,186.661896 65.624168,188.276947 67.262772,188.816879 
	C68.540977,189.238098 70.336487,188.089432 72.688156,187.411926 
	C69.379265,186.100876 67.412949,185.321777 65.446625,184.542679 
	C66.161087,182.773193 66.383209,180.399017 67.679230,179.343781 
	C72.176987,175.681686 71.669731,182.924606 76.449669,183.162033 
	C74.510338,180.175705 73.590340,177.088684 71.816978,176.477432 
	C69.873558,175.807556 67.142593,177.422440 64.242195,178.602615 
M38.802834,91.105492 
	C41.361504,91.426704 43.920170,91.747917 46.478840,92.069130 
	C46.527073,91.787796 46.575310,91.506454 46.623543,91.225113 
	C42.494835,89.416832 38.366131,87.608551 33.690556,85.560760 
	C32.818863,88.724716 31.763563,92.555099 30.708265,96.385483 
	C31.189444,96.566971 31.670622,96.748459 32.151798,96.929939 
	C33.121799,94.945206 34.091805,92.960472 35.635193,89.802521 
	C36.005413,94.438087 35.772717,98.758713 40.245247,97.095451 
	C39.545300,95.200096 38.900314,93.453583 38.802834,91.105492 
M84.972397,196.232468 
	C86.077431,198.814194 87.108162,198.272522 87.909248,196.090805 
	C88.928055,193.316147 89.923126,190.522858 90.696167,187.674576 
	C90.900574,186.921432 90.251503,185.936661 89.994331,185.058258 
	C89.526291,185.034790 89.058243,185.011337 88.590195,184.987869 
	C87.424583,188.475723 86.258972,191.963577 84.972397,196.232468 
M146.655670,186.748596 
	C145.566925,184.784927 144.478180,182.821274 142.818024,179.827026 
	C142.047089,186.018021 145.383560,192.398315 149.308838,192.898651 
	C148.433670,190.870560 147.691559,189.150818 146.655670,186.748596 
M112.273605,195.361588 
	C112.533684,197.538116 112.793770,199.714661 113.053848,201.891190 
	C113.598282,201.822998 114.142708,201.754791 114.687141,201.686600 
	C114.687141,197.444000 114.687141,193.201385 114.687141,188.958786 
	C114.114990,188.863098 113.542847,188.767426 112.970695,188.671738 
	C112.735085,190.594543 112.499466,192.517365 112.273605,195.361588 
M177.287460,135.781342 
	C178.307648,136.542145 179.327820,137.302948 180.348007,138.063751 
	C180.612839,137.509094 180.877686,136.954422 181.142517,136.399765 
	C180.087082,136.045120 179.031631,135.690475 177.287460,135.781342 
z"/>
<path fill="#FDFEFE" opacity="1.000000" stroke="none" 
	d="
M132.468658,228.000000 
	C141.734100,224.075363 141.747238,224.053070 140.675659,213.285126 
	C139.572830,202.203140 139.571289,202.199112 149.950241,198.223465 
	C151.022766,197.812653 152.127441,197.485779 153.534882,197.013306 
	C157.467285,201.251709 161.633606,205.338043 165.294601,209.835678 
	C167.587708,212.652878 169.683762,212.776413 172.583832,211.201935 
	C179.712753,207.331558 180.472931,205.195129 177.067093,197.735840 
	C176.585419,196.680908 176.040024,195.654221 175.502533,194.625732 
	C170.206848,184.492447 170.298569,184.591644 178.606644,176.749542 
	C180.776932,174.701004 182.437164,174.815979 184.723618,176.089691 
	C188.489929,178.187866 192.326584,180.164963 196.182114,182.096283 
	C199.675598,183.846252 202.558868,183.434860 204.407776,179.553284 
	C205.046829,178.211624 205.878311,176.933243 206.788895,175.755051 
	C208.857925,173.078003 208.170120,170.909134 205.842804,168.836060 
	C202.362732,165.736221 199.064316,162.420059 195.457001,159.480133 
	C193.334076,157.749985 192.807739,156.280899 193.782898,153.572983 
	C197.726532,142.621765 197.615509,142.584229 209.370514,143.816498 
	C210.363678,143.920609 211.362015,143.991287 212.359802,144.032578 
	C220.045853,144.350647 220.647964,143.880508 222.656097,136.160477 
	C223.000000,166.593185 223.000000,197.186356 223.000000,228.000000 
	C192.979462,228.000000 162.958389,228.000000 132.468658,228.000000 
z"/>
<path fill="#FEFEFE" opacity="1.000000" stroke="none" 
	d="
M223.000000,93.531342 
	C222.850494,93.927002 222.597748,93.884308 222.566162,93.776703 
	C219.749832,84.178719 219.750824,84.176628 209.201172,85.158516 
	C205.582993,85.495293 201.965866,85.843193 198.530014,86.168777 
	C191.636307,73.142639 191.638077,73.144585 201.876724,63.775486 
	C203.349365,62.427921 204.994278,61.202454 206.185242,59.635971 
	C207.011337,58.549431 207.727463,56.911789 207.575714,55.628826 
	C206.851410,49.504562 200.460876,45.607704 194.705246,47.674412 
	C192.217529,48.567684 189.805527,49.704845 187.436798,50.886868 
	C185.219543,51.993298 183.104950,53.305450 180.332611,54.873547 
	C177.473358,51.588058 174.427429,48.363197 171.778305,44.839989 
	C171.158554,44.015732 171.522003,42.017021 172.054550,40.839767 
	C173.967209,36.611530 176.159393,32.510319 178.221054,28.348770 
	C181.067566,22.602907 176.109985,20.812119 172.972870,18.164328 
	C170.012878,15.666038 167.216721,16.099455 164.693680,18.937485 
	C160.946365,23.152666 157.192825,27.362343 153.345093,31.683111 
	C153.210388,31.696640 152.851868,31.840525 152.576706,31.744791 
	C139.367249,27.148846 139.368073,27.146523 140.664368,13.059392 
	C141.453857,4.479787 140.735168,3.499900 132.161438,1.343098 
	C162.261047,1.000000 192.522079,1.000000 223.000000,1.000000 
	C223.000000,31.687220 223.000000,62.374950 223.000000,93.531342 
z"/>
<path fill="#FDFEFE" opacity="1.000000" stroke="none" 
	d="
M1.000000,138.468658 
	C2.907924,143.538025 7.118276,144.637314 12.310278,143.900085 
	C13.296276,143.760101 14.306363,143.799805 15.301021,143.709229 
	C26.688454,142.672195 28.412008,143.858093 30.623539,155.116226 
	C30.887793,156.461456 29.946980,158.503632 28.897449,159.559448 
	C25.886532,162.588425 22.439939,165.179016 19.341173,168.127487 
	C16.513851,170.817673 15.906481,173.807190 18.112549,177.463272 
	C21.640953,183.310867 23.365498,184.070114 29.753511,181.158752 
	C32.921318,179.715012 36.214500,178.346741 39.009274,176.331711 
	C43.036545,173.428085 45.527317,175.802780 47.900730,178.378036 
	C50.601570,181.308548 54.462570,183.901215 51.585518,189.008942 
	C49.391407,192.904236 47.691532,197.075439 45.706657,201.091705 
	C43.490566,205.575821 46.241589,207.918045 49.501522,210.008621 
	C52.684486,212.049805 55.871029,213.946503 59.205338,210.112076 
	C63.011902,205.734573 66.930130,201.454193 70.801064,197.129639 
	C71.130211,197.161469 71.483803,197.126801 71.782372,197.238815 
	C84.392891,201.969971 84.392281,201.971603 83.228691,215.402893 
	C82.480309,224.041428 82.886681,224.566849 92.769310,227.720245 
	C62.407223,228.000000 31.814444,228.000000 1.000000,228.000000 
	C1.000000,198.312805 1.000000,168.625061 1.000000,138.468658 
z"/>
<path fill="#FEFEFE" opacity="1.000000" stroke="none" 
	d="
M90.531342,1.000000 
	C82.970322,4.915379 82.970322,4.915379 83.759567,14.875314 
	C84.702805,26.778505 84.703239,26.779629 73.591469,31.034941 
	C72.825630,31.328224 72.046394,31.586512 70.951744,31.975315 
	C68.068306,28.408154 65.336189,24.670876 62.234909,21.270271 
	C56.760376,15.267365 50.610798,15.629318 45.886749,22.113832 
	C45.304684,22.912813 44.985218,24.440775 45.342018,25.299292 
	C47.758869,31.114624 50.338020,36.865429 53.024277,42.561848 
	C53.330257,43.210705 54.760506,43.240932 55.427662,43.831261 
	C56.189613,44.505474 56.680920,45.485554 56.421490,47.122013 
	C55.277374,46.404198 54.133263,45.686382 52.117310,44.421574 
	C50.415188,46.425304 48.418774,48.440418 46.819645,50.732685 
	C44.093044,54.641129 41.170879,54.336662 37.567387,51.973202 
	C34.522907,49.976391 31.206417,48.381359 27.955713,46.715027 
	C23.382162,44.370594 20.874197,47.244019 18.491028,50.532703 
	C16.049398,53.902065 14.465377,57.286102 18.357267,60.610878 
	C22.771923,64.382233 27.326141,67.990234 32.045734,71.854332 
	C31.344931,73.179512 30.697058,74.274162 30.170694,75.424423 
	C28.601036,78.854591 27.946867,83.781082 25.297373,85.340431 
	C22.581173,86.939049 17.931149,85.247429 14.126909,85.005333 
	C13.296076,84.952461 12.462944,84.927353 11.630445,84.910309 
	C3.808475,84.750153 3.436945,85.040489 1.336834,92.827324 
	C1.000000,62.407219 1.000000,31.814436 1.000000,1.000000 
	C30.687193,1.000000 60.374939,1.000000 90.531342,1.000000 
z"/>
<path fill="#FBFCFD" opacity="1.000000" stroke="none" 
	d="
M1.000001,98.468658 
	C6.563620,100.459335 12.032260,103.176468 17.728724,105.275230 
	C20.832493,106.418755 22.105076,107.684776 22.028709,111.222847 
	C21.792589,122.162430 21.899488,121.934090 11.390621,125.612152 
	C7.853317,126.850197 4.844754,129.598938 1.297266,131.828613 
	C1.000000,120.979103 1.000000,109.958214 1.000001,98.468658 
z"/>
<path fill="#FAFCFC" opacity="1.000000" stroke="none" 
	d="
M223.000000,129.531342 
	C217.064804,127.646645 211.062714,125.442215 205.244507,122.828438 
	C203.899094,122.224030 202.379211,120.263680 202.302780,118.853386 
	C201.662247,107.037788 201.785522,107.113617 212.877411,103.362946 
	C216.124817,102.264854 219.168060,100.562988 222.652435,99.068932 
	C223.000000,109.020897 223.000000,119.041786 223.000000,129.531342 
z"/>
<path fill="#FCFDFD" opacity="1.000000" stroke="none" 
	d="
M97.468658,228.000000 
	C99.057739,222.300125 101.265015,216.648087 103.110184,210.880219 
	C104.035118,207.988983 105.272331,206.143326 108.597511,206.696198 
	C108.758324,206.722946 108.928436,206.693222 109.094231,206.690582 
	C121.902855,206.487289 119.160172,206.015610 122.543732,216.286346 
	C123.811615,220.134979 125.946136,223.698090 127.842758,227.695694 
	C117.979103,228.000000 107.958214,228.000000 97.468658,228.000000 
z"/>
<path fill="#FCFDFD" opacity="1.000000" stroke="none" 
	d="
M126.531342,1.000000 
	C124.825531,7.035562 122.507141,13.024874 120.545700,19.128891 
	C119.733307,21.657072 118.485008,22.334663 115.927269,22.364904 
	C104.588577,22.498951 104.730309,22.540188 101.165108,11.884933 
	C99.972900,8.321824 97.860329,5.066668 96.084236,1.335371 
	C106.020897,1.000000 116.041786,1.000000 126.531342,1.000000 
z"/>
<path fill="#FCFDFD" opacity="1.000000" stroke="none" 
	d="
M142.823227,110.078079 
	C142.062241,104.864059 144.676514,101.552917 148.642624,98.543877 
	C153.776382,94.648949 158.523514,90.244438 163.456161,86.043098 
	C174.675140,101.844185 174.645920,131.277512 163.451141,148.089539 
	C155.889481,141.201523 148.352280,134.335770 140.536392,126.983658 
	C143.985687,121.473091 143.054474,115.720901 142.823227,110.078079 
z"/>
<path fill="#FBFCFD" opacity="1.000000" stroke="none" 
	d="
M89.244240,161.242813 
	C94.995041,151.236862 103.320061,148.469849 114.098389,150.159119 
	C118.344048,150.824524 122.024994,151.443726 125.286736,154.512436 
	C130.835373,159.732666 136.706650,164.609955 142.483017,169.666931 
	C127.947517,181.155182 100.468781,183.538559 80.607338,171.140457 
	C83.454430,167.884171 86.237648,164.700958 89.244240,161.242813 
z"/>
<path fill="#FBFCFD" opacity="1.000000" stroke="none" 
	d="
M76.113708,113.791298 
	C81.092720,119.107094 79.972755,130.157547 74.021179,134.749969 
	C68.639267,138.902847 63.289406,143.097229 57.483322,147.617493 
	C46.811829,126.281250 46.866062,105.640129 58.590866,84.340599 
	C63.505337,90.155869 72.499931,92.576447 70.530464,103.188797 
	C72.632736,107.104668 74.373222,110.447983 76.113708,113.791298 
z"/>
<path fill="#CFB072" opacity="1.000000" stroke="none" 
	d="
M142.483612,109.919586 
	C143.054474,115.720901 143.985687,121.473091 140.210175,126.809082 
	C133.890076,131.122025 130.071625,137.073090 126.902214,143.591187 
	C126.342834,144.741592 125.177834,146.424728 124.260010,146.445786 
	C115.007919,146.658081 105.749046,146.575073 96.492073,146.575073 
	C96.237183,146.051422 95.982292,145.527771 95.727402,145.004120 
	C98.280945,142.898270 100.925774,140.891129 103.351837,138.647446 
	C104.685692,137.413864 106.562347,135.743134 106.502464,134.341812 
	C106.452080,133.162827 104.120720,131.629227 102.512032,131.050278 
	C96.752846,128.977585 92.943748,124.998871 89.475838,119.337166 
	C103.777687,119.337166 117.252434,119.337166 131.198410,119.337166 
	C128.809952,125.638130 123.999008,128.429749 118.475136,130.605759 
	C116.887283,131.231262 115.668533,132.793732 114.280556,133.926605 
	C115.443542,135.198837 116.458130,136.665710 117.807037,137.694077 
	C119.498566,138.983643 121.464302,139.913528 123.669426,141.208786 
	C128.794556,134.535492 133.950317,128.093872 138.723175,121.380020 
	C139.684723,120.027420 139.193985,117.642372 139.372833,115.733337 
	C137.482117,115.733337 135.591415,115.733337 133.710632,115.733337 
	C134.044724,109.784569 136.088028,108.292717 142.483612,109.919586 
z"/>
<path fill="#F9FBFC" opacity="1.000000" stroke="none" 
	d="
M99.029938,84.135742 
	C98.741188,83.944969 98.452438,83.754204 98.461212,83.176353 
	C102.224037,79.839508 105.899582,77.099014 109.098892,73.884529 
	C112.715179,70.251091 116.945976,66.838196 117.171356,61.011421 
	C117.694801,60.055401 118.335457,59.142330 118.706284,58.130383 
	C119.028847,57.250103 119.046532,56.258099 119.400169,54.070862 
	C127.829865,57.298923 135.710388,60.316692 144.392548,63.641434 
	C137.330887,70.986855 131.345825,77.212395 124.709808,83.717079 
	C115.715874,84.042725 107.372902,84.089233 99.029938,84.135742 
z"/>
<path fill="#CDB072" opacity="1.000000" stroke="none" 
	d="
M116.969910,60.688370 
	C116.945976,66.838196 112.715179,70.251091 109.098892,73.884529 
	C105.899582,77.099014 102.224037,79.839508 98.450394,82.913383 
	C88.792786,87.513298 82.978378,100.195419 85.314926,111.060089 
	C85.692520,112.815857 86.164482,114.551331 86.853783,117.359200 
	C83.096565,116.054092 79.976120,114.970169 76.484695,113.838776 
	C74.373222,110.447983 72.632736,107.104668 70.864761,103.375816 
	C72.022781,90.190140 79.274765,81.906601 90.830536,75.972427 
	C98.964294,70.184464 106.767044,65.004921 114.569794,59.825378 
	C115.302681,60.005360 116.035576,60.185341 116.969910,60.688370 
M94.899445,79.607231 
	C88.209496,81.916611 81.983055,85.023682 78.095970,91.236359 
	C76.216171,94.240814 75.991859,97.605225 78.960899,101.415169 
	C79.203384,93.370949 83.951759,89.078232 89.259766,85.121330 
	C91.236748,83.647568 93.035103,81.934174 94.899445,79.607231 
z"/>
<path fill="#E2ECF0" opacity="1.000000" stroke="none" 
	d="
M72.101913,52.073875 
	C71.565407,52.973679 71.028900,53.873482 70.311592,55.076530 
	C69.141129,53.985558 67.976044,52.899593 66.810959,51.813629 
	C66.498215,52.037407 66.185463,52.261189 65.872719,52.484970 
	C67.289276,54.530060 68.705833,56.575150 70.526230,59.203270 
	C65.147911,58.655022 65.011864,50.593090 59.894569,51.237713 
	C59.288216,52.044800 58.681862,52.851887 58.075508,53.658974 
	C61.315903,55.958073 64.556297,58.257172 67.796692,60.556267 
	C67.310028,61.140087 66.823372,61.723904 66.336708,62.307720 
	C64.690125,61.343079 63.043537,60.378441 60.910549,59.128845 
	C60.718632,63.370117 61.715458,68.511261 54.898087,67.699463 
	C56.182491,66.044479 57.401829,64.473351 58.621162,62.902218 
	C58.205494,62.546131 57.789825,62.190044 57.374157,61.833954 
	C56.205830,62.602077 55.037502,63.370201 52.941124,64.748474 
	C53.577564,62.439941 53.937763,61.133400 54.399380,59.458988 
	C52.892876,59.232800 51.662918,59.048130 50.414719,58.860722 
	C50.488155,58.592331 50.536053,58.069618 50.649090,58.055130 
	C53.298901,57.715477 53.662971,55.415936 54.935833,53.669239 
	C57.664024,49.925453 60.788311,46.510525 65.367020,44.526398 
	C69.880867,42.570385 74.005562,39.716305 77.510506,37.708965 
	C78.461525,35.280006 78.715019,32.430840 80.019646,31.817497 
	C81.967293,30.901852 84.664230,31.431074 87.026039,31.589531 
	C89.155563,31.732405 91.282974,32.568474 93.376289,32.454662 
	C98.017052,32.202358 102.630562,31.481659 107.267326,31.099287 
	C108.429031,31.003487 109.636734,31.465427 110.823296,31.671036 
	C110.845551,32.101727 110.867798,32.532413 110.890053,32.963104 
	C108.768738,33.382706 106.647415,33.802307 103.433083,34.438110 
	C105.194344,35.890198 106.313545,36.812939 106.480606,36.950672 
	C105.708466,40.173748 105.028748,43.011063 104.544739,45.031441 
	C102.788109,44.210693 100.568985,43.709476 99.153130,42.363361 
	C97.704872,40.986439 97.044113,38.781223 95.688782,36.297432 
	C98.670914,35.970310 100.078453,35.815910 101.486000,35.661510 
	C101.469734,35.197002 101.453461,34.732494 101.437195,34.267990 
	C98.938187,34.390236 96.439186,34.512482 93.308052,34.665653 
	C94.391815,39.059559 95.314339,42.799751 96.236855,46.539948 
	C95.819183,46.685791 95.401505,46.831635 94.983826,46.977478 
	C93.532585,43.226467 92.081345,39.475452 90.630104,35.724442 
	C90.149803,35.891567 89.669510,36.058697 89.189209,36.225822 
	C89.690819,38.636639 90.192429,41.047451 90.694038,43.458267 
	C90.047241,43.641979 89.400452,43.825691 88.753662,44.009403 
	C88.069519,41.780888 87.385376,39.552376 86.616318,37.047253 
	C85.382858,37.460052 84.168266,37.866539 82.640610,38.377800 
	C83.063126,41.484711 83.601852,44.500069 83.819778,47.538441 
	C83.901016,48.671089 83.232735,49.857498 82.906227,51.019390 
	C82.237411,50.408070 81.568604,49.796745 80.691681,48.875694 
	C80.483582,48.565960 80.472382,48.551472 80.357025,48.219254 
	C79.275475,45.664383 78.309280,43.441730 77.394897,41.338280 
	C72.733284,41.434017 75.194008,44.158573 75.258392,46.268753 
	C75.161774,46.757408 75.101807,46.948250 74.680130,47.013783 
	C73.601059,45.817272 72.883705,44.746075 71.985596,43.404976 
	C70.472374,46.286301 69.357697,48.408756 68.226097,50.563427 
	C70.067108,50.445545 71.854218,50.331120 73.645432,50.332207 
	C73.649536,50.447720 73.873306,50.505737 73.613373,50.660431 
	C72.961662,51.258537 72.569901,51.701958 72.161133,52.125320 
	C72.144127,52.105263 72.101913,52.073875 72.101913,52.073875 
z"/>
<path fill="#F6F9FA" opacity="1.000000" stroke="none" 
	d="
M114.525856,59.448242 
	C106.767044,65.004921 98.964294,70.184464 90.967575,75.669144 
	C88.077988,73.812469 85.280907,71.762711 82.724174,69.447533 
	C81.147293,68.019638 79.936867,66.187050 78.276154,64.193031 
	C89.637016,56.189796 102.278908,54.382072 115.988716,54.614071 
	C115.379196,56.417004 114.930557,57.744053 114.525856,59.448242 
z"/>
<path fill="#DFE9EE" opacity="1.000000" stroke="none" 
	d="
M45.341545,161.616653 
	C45.722500,162.722275 46.103455,163.827911 46.484406,164.933533 
	C46.082844,165.150330 45.681278,165.367126 45.279713,165.583923 
	C43.935276,163.582718 42.590836,161.581528 40.962669,158.980774 
	C39.805504,158.215485 38.932072,158.049728 38.019665,157.665222 
	C37.980690,157.446472 37.836769,157.026031 37.836769,157.026031 
	C37.663811,155.475067 37.772377,153.824219 37.264366,152.392105 
	C35.821609,148.324921 34.248482,144.292389 32.476986,140.358643 
	C31.672155,138.571457 30.278149,137.049591 28.946777,135.109146 
	C28.946777,130.539108 28.796530,125.245949 28.990580,119.965439 
	C29.171398,115.045067 28.146269,109.909866 29.656427,105.160286 
	C30.239466,105.214890 30.822504,105.269485 31.405542,105.324081 
	C31.661577,107.547676 31.917614,109.771271 32.141048,111.711746 
	C34.100498,110.474960 35.551659,109.558281 37.004112,108.643669 
	C37.113762,108.574615 37.232620,108.520203 37.347191,108.458984 
	C37.184845,108.421898 37.022499,108.384811 36.860153,108.347733 
	C37.503738,111.790131 37.503738,111.790131 43.317989,112.379768 
	C41.814911,114.128830 40.288502,115.905037 38.762096,117.681252 
	C38.978580,117.959038 39.195061,118.236832 39.411545,118.514618 
	C37.568642,118.946732 35.725742,119.378838 33.503883,119.899803 
	C33.203514,117.954094 32.906376,116.029335 32.609238,114.104576 
	C32.174866,114.125488 31.740494,114.146393 31.306120,114.167305 
	C31.514309,116.880394 31.722498,119.593483 31.975973,122.896751 
	C35.714336,122.548538 39.386097,122.206528 43.057858,121.864517 
	C43.168011,122.233978 43.278168,122.603439 43.388325,122.972908 
	C41.623337,123.580627 39.858353,124.188354 38.312641,124.720581 
	C38.312641,126.620117 38.312641,128.464783 38.312641,130.309433 
	C37.916565,130.297821 37.520489,130.286194 37.124416,130.274567 
	C36.002789,128.366196 34.881161,126.457817 33.759533,124.549438 
	C33.220119,124.811188 32.680706,125.072929 32.141289,125.334679 
	C32.482296,128.061081 32.823299,130.787476 33.164154,133.512634 
	C36.367104,133.268997 39.420010,133.036758 42.472912,132.804535 
	C42.512299,133.002747 42.551689,133.200974 42.591080,133.399185 
	C39.658634,134.451477 36.726189,135.503754 33.793743,136.556030 
	C33.952454,137.040894 34.111160,137.525742 34.269871,138.010605 
	C38.079166,137.021912 41.888458,136.033218 45.697754,135.044540 
	C45.878529,135.535950 46.059303,136.027374 46.240078,136.518799 
	C42.602787,137.838135 38.965492,139.157486 35.108562,140.556488 
	C35.529629,141.617523 35.944012,142.661713 36.394878,143.797821 
	C39.576515,142.339920 42.575031,140.919189 45.637882,139.654236 
	C45.874180,139.556641 46.563160,140.555161 46.575836,141.424103 
	C44.470882,142.564392 42.831821,143.324783 41.131073,144.113815 
	C41.131073,145.625839 41.131073,147.059341 41.131073,148.510742 
	C40.090954,148.391479 39.197887,148.289062 37.894321,148.139587 
	C39.186283,150.814835 40.241112,152.999039 40.975822,154.520401 
	C44.123627,153.945328 46.676701,153.478897 49.229774,153.012482 
	C49.761528,155.401306 50.348049,157.783066 50.659550,160.200302 
	C50.674755,160.318283 48.280342,160.746780 46.447914,160.660370 
	C45.358391,160.215866 44.828953,160.141678 44.299515,160.067505 
	C44.138210,160.301025 43.976906,160.534531 43.815601,160.768051 
	C44.324245,161.050919 44.832893,161.333786 45.341545,161.616653 
z"/>
<path fill="#D2B36F" opacity="1.000000" stroke="none" 
	d="
M111.999435,116.974594 
	C104.434814,116.974586 97.370049,116.974586 89.667145,116.974586 
	C91.671486,110.721138 95.680649,107.827057 100.976234,106.081680 
	C102.437561,105.600044 103.596283,104.235092 104.933952,103.335037 
	C106.763191,102.104225 108.669662,99.913773 110.472313,99.982750 
	C112.866234,100.074341 115.327705,101.735565 117.501320,103.126770 
	C119.058311,104.123314 120.072113,105.929405 121.536446,107.117783 
	C124.883911,109.834412 128.359070,112.393692 131.782364,115.016884 
	C131.516266,115.669456 131.250153,116.322037 130.984039,116.974609 
	C124.822456,116.974609 118.660866,116.974609 111.999435,116.974594 
z"/>
<path fill="#DFEAEF" opacity="1.000000" stroke="none" 
	d="
M158.821442,47.564892 
	C157.518692,48.072598 155.696243,48.208649 155.015213,49.160961 
	C153.295288,51.565964 152.088974,54.338257 149.743546,56.837547 
	C150.008850,55.314640 150.274170,53.791729 150.612686,51.848633 
	C144.282242,50.808784 152.708908,41.427040 144.247086,40.640575 
	C143.454056,42.762638 142.689209,45.059345 141.735168,47.274578 
	C141.096161,48.758369 140.278809,50.190735 139.342972,51.504902 
	C139.082474,51.870708 138.115616,51.733498 137.472809,51.827053 
	C137.891403,51.598770 138.609695,51.439358 138.680511,51.131161 
	C139.184753,48.936905 139.556747,46.712261 139.877243,44.997875 
	C138.007599,44.199539 136.393509,43.510323 134.779419,42.821106 
	C134.960419,42.304455 135.141418,41.787807 135.322418,41.271156 
	C137.187851,41.271156 139.053299,41.271156 140.918747,41.271156 
	C141.137070,40.820873 141.355392,40.370590 141.573715,39.920311 
	C139.168442,38.527729 136.763153,37.135147 134.047089,35.562634 
	C132.767624,39.895206 131.699387,43.512569 130.631134,47.129932 
	C130.229370,47.077511 129.827606,47.025089 129.425842,46.972668 
	C129.507935,45.211266 129.590027,43.449863 129.721115,40.637379 
	C125.556381,44.184151 121.986336,46.106228 119.086136,39.939335 
	C121.371780,37.978859 123.818344,35.880360 127.463112,32.754108 
	C138.420029,33.225574 148.949387,39.058029 158.854568,46.764351 
	C158.784470,47.238083 158.821442,47.564892 158.821442,47.564892 
z"/>
<path fill="#E2ECF1" opacity="1.000000" stroke="none" 
	d="
M193.032654,93.675461 
	C193.395584,102.979057 193.823868,111.967934 194.252167,120.956818 
	C193.739990,121.096252 193.227814,121.235687 192.715637,121.375130 
	C191.037308,119.590836 189.358994,117.806549 187.680679,116.022263 
	C188.068192,115.666870 188.455719,115.311478 188.843246,114.956085 
	C189.565460,115.602974 190.287674,116.249870 191.539581,117.371216 
	C191.539581,113.932037 191.539581,111.212097 191.539581,108.162903 
	C188.059586,108.505486 184.688263,108.837372 181.442734,109.156876 
	C182.098236,106.996925 182.275589,104.921844 183.309692,103.447823 
	C184.239822,102.122017 185.997681,100.970329 187.589539,100.601715 
	C190.710403,99.879066 190.899261,98.397217 189.641464,96.149612 
	C186.846725,96.324112 184.134109,96.493484 180.653427,96.710808 
	C182.282166,94.694733 181.954941,90.948692 185.712250,93.993828 
	C186.189407,94.380531 188.214493,93.899445 188.314529,93.510078 
	C188.593185,92.425453 188.236267,91.177559 188.090073,89.544273 
	C183.952728,90.807365 180.390488,91.894890 176.828232,92.982414 
	C176.649124,92.528183 176.470016,92.073952 176.290894,91.619713 
	C178.962616,90.573586 181.681473,89.629639 184.282333,88.429893 
	C185.290421,87.964874 186.031586,86.921173 186.894333,86.141098 
	C185.850204,85.820404 184.826035,85.368729 183.757828,85.206154 
	C181.496216,84.861938 179.211655,84.668571 176.936493,84.413345 
	C176.270508,83.356506 175.604523,82.299660 174.938538,81.242821 
	C178.650223,80.032928 182.361923,78.823044 186.073608,77.613152 
	C185.385437,76.686035 184.697266,75.758911 184.009094,74.831795 
	C184.671799,75.857704 185.382797,76.855957 185.988861,77.914307 
	C188.600311,82.474686 191.208618,87.037674 193.718124,91.654045 
	C193.909698,92.006439 193.322968,92.781921 193.032654,93.675461 
z"/>
<path fill="#DDE8EE" opacity="1.000000" stroke="none" 
	d="
M99.450981,200.932922 
	C97.867546,198.920044 100.200317,194.478775 94.839569,195.333038 
	C94.390381,196.665894 93.892059,198.144547 93.364952,199.708633 
	C91.015121,197.942047 91.015121,197.942047 93.573738,186.688461 
	C95.692360,187.051971 97.915039,187.257294 100.018669,187.870834 
	C101.024300,188.164124 102.650452,189.391220 102.550247,189.923065 
	C101.844482,193.668777 100.762459,197.343613 99.450981,200.932922 
z"/>
<path fill="#E5EDF0" opacity="1.000000" stroke="none" 
	d="
M127.758255,189.378387 
	C128.376495,193.011398 128.909714,196.240448 129.442947,199.469482 
	C129.051147,199.807968 128.659363,200.146454 128.267578,200.484940 
	C125.829285,198.313568 123.390999,196.142181 120.725128,193.768127 
	C121.016006,196.505981 121.273216,198.926956 121.530426,201.347916 
	C120.853294,201.424500 120.176170,201.501099 119.499039,201.577682 
	C118.650963,197.543777 117.802887,193.509872 116.954811,189.475983 
	C117.351013,189.091278 117.747223,188.706573 118.143425,188.321869 
	C120.293861,189.952255 122.444298,191.582657 124.912369,193.453857 
	C124.912369,191.399872 124.912369,189.410004 124.912369,185.847977 
	C126.478577,187.621552 127.075912,188.297989 127.758255,189.378387 
z"/>
<path fill="#DFEAEF" opacity="1.000000" stroke="none" 
	d="
M82.156998,188.632324 
	C83.552925,191.346710 83.854614,193.850754 80.272751,194.953461 
	C77.024628,195.953400 74.256157,193.564087 73.288170,188.956268 
	C74.370941,188.956268 75.390594,188.956268 76.670753,188.956268 
	C74.725151,183.421356 75.562119,179.921677 82.172356,182.070312 
	C84.360916,182.781693 86.389488,184.897003 83.415375,187.424530 
	C81.578918,185.980820 80.242462,184.830719 78.906006,183.680618 
	C78.535172,184.184387 78.164330,184.688141 77.793488,185.191910 
	C79.247993,186.338715 80.702499,187.485519 82.156998,188.632324 
M77.122360,188.239410 
	C76.824669,189.166794 76.021935,190.635574 76.325340,190.918610 
	C77.186440,191.721893 78.499496,192.040710 79.634590,192.550278 
	C80.297623,191.750839 80.960663,190.951401 81.623695,190.151962 
	C80.394844,189.695084 79.165993,189.238190 77.122360,188.239410 
z"/>
<path fill="#E5EEF2" opacity="1.000000" stroke="none" 
	d="
M131.787460,193.238892 
	C131.035553,191.008163 130.415680,189.148209 129.336761,185.910889 
	C133.065903,185.696823 136.776840,184.455536 139.265961,185.685944 
	C141.061951,186.573715 142.585434,191.276230 141.787872,193.327667 
	C140.772919,195.938141 137.291428,197.589661 134.227020,200.206497 
	C133.098755,196.980988 132.509125,195.295319 131.787460,193.238892 
M134.175400,187.609848 
	C134.413193,190.331207 134.650986,193.052567 134.888763,195.773941 
	C135.620636,195.918655 136.352524,196.063370 137.084396,196.208084 
	C137.851730,194.477997 139.227722,192.751358 139.237579,191.016968 
	C139.250931,188.669098 138.142654,186.405121 134.175400,187.609848 
z"/>
<path fill="#15518C" opacity="1.000000" stroke="none" 
	d="
M49.539780,152.891357 
	C46.676701,153.478897 44.123627,153.945328 40.975822,154.520401 
	C40.241112,152.999039 39.186283,150.814835 37.894321,148.139587 
	C39.197887,148.289062 40.090954,148.391479 41.131073,148.510742 
	C41.131073,147.059341 41.131073,145.625839 41.131073,144.113815 
	C42.831821,143.324783 44.470882,142.564392 46.475349,141.695648 
	C46.580536,144.748337 45.256760,148.310181 50.025017,149.563019 
	C50.233131,149.617691 49.920071,151.655960 49.539780,152.891357 
z"/>
<path fill="#E5EEF2" opacity="1.000000" stroke="none" 
	d="
M149.241241,179.229492 
	C149.979263,176.364700 151.403152,175.820435 153.522598,177.527924 
	C156.331345,179.790726 159.142166,182.050964 162.932190,185.101074 
	C159.829010,185.369492 157.486679,184.955002 155.959106,185.882477 
	C154.509720,186.762451 153.913467,189.047623 152.506760,191.461975 
	C151.321091,187.035934 150.323639,183.312546 149.241241,179.229492 
z"/>
<path fill="#E2ECF1" opacity="1.000000" stroke="none" 
	d="
M64.498512,178.322144 
	C67.142593,177.422440 69.873558,175.807556 71.816978,176.477432 
	C73.590340,177.088684 74.510338,180.175705 76.449669,183.162033 
	C71.669731,182.924606 72.176987,175.681686 67.679230,179.343781 
	C66.383209,180.399017 66.161087,182.773193 65.446625,184.542679 
	C67.412949,185.321777 69.379265,186.100876 72.688156,187.411926 
	C70.336487,188.089432 68.540977,189.238098 67.262772,188.816879 
	C65.624168,188.276947 63.535530,186.661896 63.211826,185.169342 
	C62.773849,183.149918 63.828125,180.806839 64.498512,178.322144 
z"/>
<path fill="#DDE8EE" opacity="1.000000" stroke="none" 
	d="
M38.529083,91.406281 
	C38.900314,93.453583 39.545300,95.200096 40.245247,97.095451 
	C35.772717,98.758713 36.005413,94.438087 35.635193,89.802521 
	C34.091805,92.960472 33.121799,94.945206 32.151798,96.929939 
	C31.670622,96.748459 31.189444,96.566971 30.708265,96.385483 
	C31.763563,92.555099 32.818863,88.724716 33.690556,85.560760 
	C38.366131,87.608551 42.494835,89.416832 46.623543,91.225113 
	C46.575310,91.506454 46.527073,91.787796 46.478840,92.069130 
	C43.920170,91.747917 41.361504,91.426704 38.529083,91.406281 
z"/>
<path fill="#205990" opacity="1.000000" stroke="none" 
	d="
M158.907867,47.920578 
	C158.821442,47.564892 158.784470,47.238083 158.893066,47.114464 
	C160.570023,48.073982 162.138351,49.157112 163.865295,50.921295 
	C164.366348,51.715908 164.708786,51.829479 165.051239,51.943050 
	C165.051239,51.943050 165.019028,51.993629 164.647934,52.173889 
	C164.152832,53.906063 164.028824,55.457981 163.556580,57.204201 
	C161.111526,57.482727 159.014694,57.566956 156.917877,57.651184 
	C157.242447,55.923595 157.528320,54.187542 157.903671,52.471050 
	C158.212067,51.060730 158.626724,49.673645 158.907867,47.920578 
z"/>
<path fill="#ECF3F6" opacity="1.000000" stroke="none" 
	d="
M38.055809,77.864761 
	C39.753971,74.323883 41.452133,70.783005 42.868851,67.828972 
	C46.964378,71.480965 50.339527,74.490593 53.714676,77.500229 
	C53.566582,77.788811 53.418488,78.077393 53.270397,78.365974 
	C49.966980,76.429344 46.663567,74.492714 43.360153,72.556076 
	C42.941910,72.776199 42.523663,72.996315 42.105415,73.216431 
	C42.673553,74.230286 43.241695,75.244141 43.758293,76.785545 
	C43.578503,77.449173 43.450245,77.585251 42.990189,77.602402 
	C41.124195,77.610558 39.590000,77.737663 38.055809,77.864761 
z"/>
<path fill="#DDE8EE" opacity="1.000000" stroke="none" 
	d="
M177.662247,68.128044 
	C175.390182,69.163193 173.118118,70.198334 171.086853,71.123772 
	C169.638718,68.704285 168.484375,66.775642 167.330048,64.847008 
	C167.834259,64.492943 168.338470,64.138885 168.842697,63.784824 
	C170.213989,65.074249 171.585297,66.363670 172.956589,67.653091 
	C173.430344,67.551201 173.904099,67.449310 174.377853,67.347427 
	C174.115204,65.951057 173.852539,64.554680 173.773849,62.519768 
	C174.197098,61.644596 174.436401,61.407967 174.675690,61.171341 
	C176.280884,63.200146 177.886078,65.228958 178.988403,67.646278 
	C178.211090,68.065880 177.936676,68.096962 177.662247,68.128044 
z"/>
<path fill="#D7E3EA" opacity="1.000000" stroke="none" 
	d="
M156.909058,58.020798 
	C159.014694,57.566956 161.111526,57.482727 163.938354,57.205528 
	C165.431519,57.013554 166.194702,57.014553 167.102615,57.212044 
	C167.464294,57.657085 167.719894,57.855930 168.209290,58.164337 
	C168.605270,58.775856 168.806122,59.228119 169.006973,59.680374 
	C165.517548,61.422436 162.028122,63.164497 157.576752,65.386803 
	C158.507462,63.225605 159.053360,61.958004 159.611069,60.662952 
	C158.768555,59.956657 157.834396,59.173534 156.909058,58.020798 
z"/>
<path fill="#D7E3EA" opacity="1.000000" stroke="none" 
	d="
M85.032875,195.841949 
	C86.258972,191.963577 87.424583,188.475723 88.590195,184.987869 
	C89.058243,185.011337 89.526291,185.034790 89.994331,185.058258 
	C90.251503,185.936661 90.900574,186.921432 90.696167,187.674576 
	C89.923126,190.522858 88.928055,193.316147 87.909248,196.090805 
	C87.108162,198.272522 86.077431,198.814194 85.032875,195.841949 
z"/>
<path fill="#DFEAEF" opacity="1.000000" stroke="none" 
	d="
M146.802567,187.089844 
	C147.691559,189.150818 148.433670,190.870560 149.308838,192.898651 
	C145.383560,192.398315 142.047089,186.018021 142.818024,179.827026 
	C144.478180,182.821274 145.566925,184.784927 146.802567,187.089844 
z"/>
<path fill="#E2ECF0" opacity="1.000000" stroke="none" 
	d="
M112.268730,194.900879 
	C112.499466,192.517365 112.735085,190.594543 112.970695,188.671738 
	C113.542847,188.767426 114.114990,188.863098 114.687141,188.958786 
	C114.687141,193.201385 114.687141,197.444000 114.687141,201.686600 
	C114.142708,201.754791 113.598282,201.822998 113.053848,201.891190 
	C112.793770,199.714661 112.533684,197.538116 112.268730,194.900879 
z"/>
<path fill="#E8F0F4" opacity="1.000000" stroke="none" 
	d="
M176.411438,161.503036 
	C175.170532,160.714584 173.929626,159.926147 172.678329,158.725952 
	C172.809250,158.175323 172.950546,158.036469 173.091843,157.897598 
	C174.532486,157.090881 175.973145,156.284164 178.492828,154.873230 
	C175.498795,153.703598 174.027283,153.128754 172.469955,152.520370 
	C178.152161,151.080521 179.388306,152.194000 178.244965,158.120804 
	C179.686661,157.362549 180.865097,156.742767 183.538773,155.336563 
	C182.021469,158.096222 181.181931,159.623154 179.747406,160.952362 
	C178.436081,160.835449 177.719772,160.916290 176.854919,161.122986 
	C176.706390,161.248840 176.411438,161.503036 176.411438,161.503036 
z"/>
<path fill="#DDE8EE" opacity="1.000000" stroke="none" 
	d="
M169.339294,59.728462 
	C168.806122,59.228119 168.605270,58.775856 168.068954,57.963631 
	C167.518219,57.350552 167.259674,57.154514 166.957870,57.015549 
	C166.194702,57.014553 165.431519,57.013554 164.286575,57.011227 
	C164.028824,55.457981 164.152832,53.906063 164.672531,52.156322 
	C168.155701,54.845573 171.243195,57.732651 174.503174,60.895531 
	C174.436401,61.407967 174.197098,61.644596 173.587448,62.224232 
	C172.035263,61.637005 170.853455,60.706776 169.339294,59.728462 
z"/>
<path fill="#E8F0F4" opacity="1.000000" stroke="none" 
	d="
M185.995438,139.927505 
	C184.944199,139.675995 183.892944,139.424484 182.273285,138.710480 
	C181.398346,138.157181 181.091827,138.066376 180.785309,137.975555 
	C181.345688,135.763123 181.906082,133.550690 183.208954,131.178040 
	C184.474762,130.957275 184.998123,130.896729 185.521469,130.836166 
	C187.012192,131.228546 188.502914,131.620926 189.993652,132.013321 
	C189.781570,132.759033 189.569489,133.504745 188.957275,134.721252 
	C187.242844,134.908371 185.928558,134.624695 183.728500,134.149841 
	C184.607025,136.388901 185.301239,138.158203 185.995438,139.927505 
z"/>
<path fill="#DEE9EE" opacity="1.000000" stroke="none" 
	d="
M186.152603,140.121948 
	C185.301239,138.158203 184.607025,136.388901 183.728500,134.149841 
	C185.928558,134.624695 187.242844,134.908371 188.836304,135.071930 
	C189.115463,134.951828 189.583710,135.026917 189.983856,135.281891 
	C190.671646,135.707642 190.959290,135.878433 191.246933,136.049210 
	C191.166809,136.799057 191.086700,137.548889 190.510071,138.657227 
	C188.945435,139.457565 187.877319,139.899414 186.809204,140.341248 
	C186.642731,140.332962 186.476257,140.324692 186.152603,140.121948 
z"/>
<path fill="#00397E" opacity="1.000000" stroke="none" 
	d="
M99.375061,84.357170 
	C107.372902,84.089233 115.715874,84.042725 124.527069,83.994354 
	C116.570259,84.187859 108.145226,84.383232 99.375061,84.357170 
z"/>
<path fill="#1C588E" opacity="1.000000" stroke="none" 
	d="
M73.873306,50.505737 
	C73.873306,50.505737 73.649536,50.447720 74.041359,50.150475 
	C76.446251,49.419308 78.459312,48.985390 80.472382,48.551472 
	C80.472382,48.551472 80.483582,48.565960 80.493362,48.567490 
	C79.490997,52.218452 74.792786,54.705402 72.304352,52.437843 
	C72.101913,52.073875 72.144127,52.105263 72.521851,52.171417 
	C73.224144,51.660297 73.548729,51.083019 73.873306,50.505737 
z"/>
<path fill="#E8F0F4" opacity="1.000000" stroke="none" 
	d="
M181.189819,147.845352 
	C183.044876,147.986145 184.899918,148.126938 187.388977,148.315842 
	C186.245331,150.724518 185.022034,153.300919 183.302582,155.666290 
	C182.624619,155.151596 182.442810,154.847931 182.261017,154.544266 
	C184.253662,151.678711 182.791901,150.215286 180.233643,148.783539 
	C180.634262,148.161957 180.912033,148.003662 181.189819,147.845352 
z"/>
<path fill="#E8F0F4" opacity="1.000000" stroke="none" 
	d="
M186.910187,140.675674 
	C187.877319,139.899414 188.945435,139.457565 190.379410,139.013718 
	C189.931824,141.585144 189.118393,144.158569 188.021286,147.629410 
	C186.412994,145.749023 185.570663,144.764191 184.666901,143.707535 
	C185.347763,142.924072 186.179459,141.967087 186.910187,140.675674 
z"/>
<path fill="#45709B" opacity="1.000000" stroke="none" 
	d="
M40.193409,82.883286 
	C38.867340,82.934029 37.541267,82.984772 36.215199,83.035515 
	C36.362785,82.112343 36.510372,81.189178 37.360718,80.124664 
	C39.070198,79.951172 40.076920,79.919022 41.083641,79.886871 
	C41.083641,79.886864 41.134315,79.904472 40.765495,80.001968 
	C40.328922,81.027397 40.261166,81.955345 40.193409,82.883286 
z"/>
<path fill="#ECF3F6" opacity="1.000000" stroke="none" 
	d="
M43.899189,77.109024 
	C45.749001,77.714371 47.406376,78.523796 49.616753,79.603294 
	C48.120983,80.962952 46.966137,82.012703 45.428822,83.410133 
	C45.168865,81.774689 44.975742,80.559708 44.370579,78.911575 
	C43.778427,78.199097 43.566246,77.946732 43.321987,77.721336 
	C43.450245,77.585251 43.578503,77.449173 43.899189,77.109024 
z"/>
<path fill="#E8F0F4" opacity="1.000000" stroke="none" 
	d="
M179.922363,148.524048 
	C178.819519,148.153229 178.150787,147.578629 177.029572,146.868347 
	C176.346237,146.566849 176.159637,146.360931 176.017242,146.114944 
	C180.654236,144.103806 181.290115,144.227081 181.279236,147.498886 
	C180.912033,148.003662 180.634262,148.161957 179.922363,148.524048 
z"/>
<path fill="#F6F9FA" opacity="1.000000" stroke="none" 
	d="
M40.579521,82.927101 
	C40.261166,81.955345 40.328922,81.027397 40.766079,80.028778 
	C42.478413,81.539436 43.821346,83.120766 45.299374,84.861176 
	C42.409340,88.825035 42.364086,83.829880 40.579521,82.927101 
z"/>
<path fill="#E8F0F4" opacity="1.000000" stroke="none" 
	d="
M179.314240,161.515518 
	C178.578491,162.631027 177.842758,163.746536 177.107025,164.862045 
	C176.978363,163.933823 176.849686,163.005615 176.566223,161.790222 
	C176.411438,161.503036 176.706390,161.248840 177.246231,161.165100 
	C178.295456,161.226074 178.804855,161.370804 179.314240,161.515518 
z"/>
<path fill="#1C588E" opacity="1.000000" stroke="none" 
	d="
M42.990189,77.602402 
	C43.566246,77.946732 43.778427,78.199097 44.042549,78.711533 
	C43.410667,78.961342 42.694782,78.978043 41.210411,78.939240 
	C39.619453,78.836037 38.796982,78.788345 37.974506,78.740662 
	C37.974506,78.740662 37.979618,78.299469 38.017715,78.082115 
	C39.590000,77.737663 41.124195,77.610558 42.990189,77.602402 
z"/>
<path fill="#00397E" opacity="1.000000" stroke="none" 
	d="
M37.540833,157.118179 
	C37.836769,157.026031 37.980690,157.446472 38.010643,157.976105 
	C38.052525,158.712738 38.064449,158.919739 38.037678,159.485229 
	C37.971291,160.564789 37.943596,161.285812 37.915905,162.006851 
	C37.692238,160.408005 37.468567,158.809174 37.540833,157.118179 
z"/>
<path fill="#99B2C7" opacity="1.000000" stroke="none" 
	d="
M38.177544,162.206207 
	C37.943596,161.285812 37.971291,160.564789 38.357269,159.428070 
	C39.146976,159.008636 39.578396,159.004883 40.009815,159.001129 
	C39.486271,160.135941 38.962727,161.270752 38.177544,162.206207 
z"/>
<path fill="#DEE9EE" opacity="1.000000" stroke="none" 
	d="
M175.668884,146.105026 
	C176.159637,146.360931 176.346237,146.566849 176.751236,146.849579 
	C175.792938,147.382599 174.660492,147.798737 173.528030,148.214859 
	C173.402908,147.939133 173.277771,147.663406 173.152634,147.387680 
	C173.875259,146.956818 174.597885,146.525970 175.668884,146.105026 
z"/>
<path fill="#E8F0F4" opacity="1.000000" stroke="none" 
	d="
M177.631821,135.558594 
	C179.031631,135.690475 180.087082,136.045120 181.142517,136.399765 
	C180.877686,136.954422 180.612839,137.509094 180.348007,138.063751 
	C179.327820,137.302948 178.307648,136.542145 177.631821,135.558594 
z"/>
<path fill="#E8F0F4" opacity="1.000000" stroke="none" 
	d="
M170.095779,155.890808 
	C171.020767,156.354401 171.945755,156.817993 172.981293,157.589600 
	C172.950546,158.036469 172.809250,158.175323 172.445816,158.511780 
	C171.377258,158.185165 170.530823,157.660965 169.680115,156.720032 
	C169.815826,156.165787 169.955811,156.028305 170.095779,155.890808 
z"/>
<path fill="#F6F9FA" opacity="1.000000" stroke="none" 
	d="
M37.748009,78.890564 
	C38.796982,78.788345 39.619453,78.836037 40.852997,78.918655 
	C41.367413,79.134880 41.470760,79.316170 41.328873,79.692169 
	C40.076920,79.919022 39.070198,79.951172 37.624088,79.971283 
	C37.296974,79.652977 37.409245,79.346725 37.748009,78.890564 
z"/>
<path fill="#DEE9EE" opacity="1.000000" stroke="none" 
	d="
M179.352936,161.484848 
	C178.804855,161.370804 178.295456,161.226074 177.394760,161.039246 
	C177.719772,160.916290 178.436081,160.835449 179.310486,161.073456 
	C179.468582,161.392319 179.391617,161.454178 179.352936,161.484848 
z"/>
<path fill="#205990" opacity="1.000000" stroke="none" 
	d="
M40.223007,159.006866 
	C39.578396,159.004883 39.146976,159.008636 38.395966,159.069565 
	C38.064449,158.919739 38.052525,158.712738 38.049622,158.194855 
	C38.932072,158.049728 39.805504,158.215485 40.770775,158.701965 
	C40.862614,159.022720 40.436195,159.012619 40.223007,159.006866 
z"/>
<path fill="#E8F0F4" opacity="1.000000" stroke="none" 
	d="
M169.461029,156.504440 
	C168.547165,156.390518 167.848129,156.075424 167.149094,155.760330 
	C167.215240,155.507736 167.281372,155.255157 167.347519,155.002563 
	C168.172668,155.082596 168.997833,155.162613 169.959381,155.566727 
	C169.955811,156.028305 169.815826,156.165787 169.461029,156.504440 
z"/>
<path fill="#DEE9EE" opacity="1.000000" stroke="none" 
	d="
M185.361877,130.580536 
	C184.998123,130.896729 184.474762,130.957275 183.557617,131.035858 
	C183.843292,130.810913 184.522797,130.567917 185.361877,130.580536 
z"/>
<path fill="#DEE9EE" opacity="1.000000" stroke="none" 
	d="
M183.003052,155.948380 
	C182.784988,156.532425 182.370300,156.623352 181.955627,156.714264 
	C181.892761,156.192871 181.829910,155.671478 182.014038,154.847168 
	C182.442810,154.847931 182.624619,155.151596 183.003052,155.948380 
z"/>
<path fill="#DDE8EE" opacity="1.000000" stroke="none" 
	d="
M165.163849,51.616127 
	C164.708786,51.829479 164.366348,51.715908 163.999023,51.229370 
	C164.408264,51.000664 164.842361,51.144932 165.163849,51.616127 
z"/>
<path fill="#E8F0F4" opacity="1.000000" stroke="none" 
	d="
M182.135300,138.459396 
	C182.029968,138.583893 181.494232,138.496979 180.871887,138.192810 
	C181.091827,138.066376 181.398346,138.157181 182.135300,138.459396 
z"/>
<path fill="#E8F0F4" opacity="1.000000" stroke="none" 
	d="
M191.278198,135.716003 
	C190.959290,135.878433 190.671646,135.707642 190.208984,135.356323 
	C190.459122,135.244812 190.884293,135.313812 191.278198,135.716003 
z"/>
<path fill="#E2ECF1" opacity="1.000000" stroke="none" 
	d="
M177.828613,68.415962 
	C177.936676,68.096962 178.211090,68.065880 178.899933,68.005554 
	C178.874542,68.218834 178.434769,68.461357 177.828613,68.415962 
z"/>
<path fill="#0F5088" opacity="1.000000" stroke="none" 
	d="
M94.907181,79.968643 
	C93.035103,81.934174 91.236748,83.647568 89.259766,85.121330 
	C83.951759,89.078232 79.203384,93.370949 78.960899,101.415169 
	C75.991859,97.605225 76.216171,94.240814 78.095970,91.236359 
	C81.983055,85.023682 88.209496,81.916611 94.907181,79.968643 
z"/>
<path fill="#074E8A" opacity="1.000000" stroke="none" 
	d="
M80.357025,48.219254 
	C78.459312,48.985390 76.446251,49.419308 74.037262,50.034958 
	C71.854218,50.331120 70.067108,50.445545 68.226097,50.563427 
	C69.357697,48.408756 70.472374,46.286301 71.985596,43.404976 
	C72.883705,44.746075 73.601059,45.817272 74.860481,47.173969 
	C75.798210,47.345261 76.193871,47.231049 76.589531,47.116837 
	C76.158043,46.734871 75.726547,46.352905 75.295059,45.970936 
	C75.194008,44.158573 72.733284,41.434017 77.394897,41.338280 
	C78.309280,43.441730 79.275475,45.664383 80.357025,48.219254 
z"/>
<path fill="#1C588E" opacity="1.000000" stroke="none" 
	d="
M75.258392,46.268753 
	C75.726547,46.352905 76.158043,46.734871 76.589531,47.116837 
	C76.193871,47.231049 75.798210,47.345261 75.222198,47.299282 
	C75.101807,46.948250 75.161774,46.757408 75.258392,46.268753 
z"/>
<path fill="#074E8A" opacity="1.000000" stroke="none" 
	d="
M73.613373,50.660431 
	C73.548729,51.083019 73.224144,51.660297 72.538849,52.191475 
	C72.569901,51.701958 72.961662,51.258537 73.613373,50.660431 
z"/>
<path fill="#074E8A" opacity="1.000000" stroke="none" 
	d="
M45.551628,161.418640 
	C44.832893,161.333786 44.324245,161.050919 43.815601,160.768051 
	C43.976906,160.534531 44.138210,160.301025 44.299515,160.067505 
	C44.828953,160.141678 45.358391,160.215866 46.029442,160.551727 
	C46.034607,160.949142 45.898159,161.084885 45.551628,161.418640 
z"/>
<path fill="#074E8A" opacity="1.000000" stroke="none" 
	d="
M82.424332,188.423370 
	C80.702499,187.485519 79.247993,186.338715 77.793488,185.191910 
	C78.164330,184.688141 78.535172,184.184387 78.906006,183.680618 
	C80.242462,184.830719 81.578918,185.980820 83.064011,187.455261 
	C83.038994,187.924515 82.865334,188.069458 82.424332,188.423370 
z"/>
<path fill="#074E8A" opacity="1.000000" stroke="none" 
	d="
M77.529755,188.510361 
	C79.165993,189.238190 80.394844,189.695084 81.623695,190.151962 
	C80.960663,190.951401 80.297623,191.750839 79.634590,192.550278 
	C78.499496,192.040710 77.186440,191.721893 76.325340,190.918610 
	C76.021935,190.635574 76.824669,189.166794 77.529755,188.510361 
z"/>
<path fill="#195790" opacity="1.000000" stroke="none" 
	d="
M134.526688,187.468567 
	C138.142654,186.405121 139.250931,188.669098 139.237579,191.016968 
	C139.227722,192.751358 137.851730,194.477997 137.084396,196.208084 
	C136.352524,196.063370 135.620636,195.918655 134.888763,195.773941 
	C134.650986,193.052567 134.413193,190.331207 134.526688,187.468567 
z"/>
<path fill="#E2ECF1" opacity="1.000000" stroke="none" 
	d="
M167.102615,57.212044 
	C167.259674,57.154514 167.518219,57.350552 167.873810,57.804367 
	C167.719894,57.855930 167.464294,57.657085 167.102615,57.212044 
z"/>
</svg>