<svg version="1.1" id="Layer_1" xmlns="http://www.w3.org/2000/svg" xmlns:xlink="http://www.w3.org/1999/xlink" x="0px" y="0px"
	 width="100%" viewBox="0 0 1920 1920" enable-background="new 0 0 1920 1920" xml:space="preserve">
<path fill="#000000" opacity="1.000000" stroke="none" 
	d="
M1219.000000,1921.000000 
	C812.666687,1921.000000 406.833344,1921.000000 1.000000,1921.000000 
	C1.000000,1281.000000 1.000000,641.000000 1.000000,1.000000 
	C641.000000,1.000000 1281.000000,1.000000 1921.000000,1.000000 
	C1921.000000,641.000000 1921.000000,1281.000000 1921.000000,1921.000000 
	C1687.166626,1921.000000 1453.333374,1921.000000 1219.000000,1921.000000 
M987.144104,420.107147 
	C986.762756,422.066742 986.047974,424.026276 986.047363,425.985962 
	C985.996033,593.948181 985.999878,761.910461 986.001709,929.872681 
	C986.001709,931.372070 985.843689,932.907715 986.129639,934.353210 
	C986.246948,934.946716 987.347229,935.345825 988.914368,935.967590 
	C1158.620239,935.978149 1328.326172,935.989075 1498.032104,935.992493 
	C1499.027954,935.992493 1500.023804,935.888733 1501.511353,935.864075 
	C1501.869995,935.680664 1501.977295,935.400879 1501.967651,934.106873 
	C1501.978271,764.060425 1501.989014,594.013977 1501.992554,423.967529 
	C1501.992554,422.971619 1501.888794,421.975708 1501.863770,420.488129 
	C1501.680176,420.129852 1501.400391,420.022675 1500.106445,420.032440 
	C1330.400269,420.021881 1160.694214,420.010986 990.988037,420.007507 
	C989.992188,420.007507 988.996338,420.111298 987.144104,420.107147 
M936.000000,738.500000 
	C936.000000,632.421997 936.000000,526.343994 936.000000,420.394470 
	C763.592224,420.394470 591.885254,420.394470 420.261932,420.394470 
	C420.261932,592.378113 420.261932,763.967102 420.261932,935.693848 
	C592.230774,935.693848 763.937561,935.693848 936.000000,935.693848 
	C936.000000,870.092224 936.000000,804.796143 936.000000,738.500000 
M936.000000,1429.500000 
	C936.000000,1281.745850 936.000000,1133.991821 936.000000,986.383423 
	C763.597412,986.383423 591.873474,986.383423 420.250854,986.383423 
	C420.250854,1158.372803 420.250854,1329.978882 420.250854,1501.704956 
	C592.225586,1501.704956 763.949341,1501.704956 936.000000,1501.704956 
	C936.000000,1477.774170 936.000000,1454.137085 936.000000,1429.500000 
M1502.000000,1013.500000 
	C1502.000000,1004.406433 1502.000000,995.312866 1502.000000,986.325928 
	C1329.643311,986.325928 1157.938599,986.325928 986.325867,986.325928 
	C986.325867,1158.356567 986.325867,1330.061279 986.325867,1501.674194 
	C1158.356567,1501.674194 1330.061157,1501.674194 1502.000000,1501.674194 
	C1502.000000,1339.065674 1502.000000,1176.782837 1502.000000,1013.500000 
z"/>
<path fill="#F25022" opacity="1.000000" stroke="none" 
	d="
M936.000000,739.000000 
	C936.000000,804.796143 936.000000,870.092224 936.000000,935.693848 
	C763.937561,935.693848 592.230774,935.693848 420.261932,935.693848 
	C420.261932,763.967102 420.261932,592.378113 420.261932,420.394470 
	C591.885254,420.394470 763.592224,420.394470 936.000000,420.394470 
	C936.000000,526.343994 936.000000,632.421997 936.000000,739.000000 
z"/>
<path fill="#02A4EF" opacity="1.000000" stroke="none" 
	d="
M936.000000,1430.000000 
	C936.000000,1454.137085 936.000000,1477.774170 936.000000,1501.704956 
	C763.949341,1501.704956 592.225586,1501.704956 420.250854,1501.704956 
	C420.250854,1329.978882 420.250854,1158.372803 420.250854,986.383423 
	C591.873474,986.383423 763.597412,986.383423 936.000000,986.383423 
	C936.000000,1133.991821 936.000000,1281.745850 936.000000,1430.000000 
z"/>
<path fill="#FFB902" opacity="1.000000" stroke="none" 
	d="
M1502.000000,1014.000000 
	C1502.000000,1176.782837 1502.000000,1339.065674 1502.000000,1501.674194 
	C1330.061157,1501.674194 1158.356567,1501.674194 986.325867,1501.674194 
	C986.325867,1330.061279 986.325867,1158.356567 986.325867,986.325928 
	C1157.938599,986.325928 1329.643311,986.325928 1502.000000,986.325928 
	C1502.000000,995.312866 1502.000000,1004.406433 1502.000000,1014.000000 
z"/>
<path fill="#80BA01" opacity="1.000000" stroke="none" 
	d="
M1501.833496,420.979797 
	C1501.888794,421.975708 1501.992554,422.971619 1501.992554,423.967529 
	C1501.989014,594.013977 1501.978271,764.060425 1501.747437,934.682129 
	C1501.332642,935.427002 1501.163452,935.619019 1501.019653,935.833435 
	C1500.023804,935.888733 1499.027954,935.992493 1498.032104,935.992493 
	C1328.326172,935.989075 1158.620239,935.978149 988.457153,935.442627 
	C988.000183,763.334045 988.000366,591.750305 988.000488,420.166626 
	C988.996338,420.111298 989.992188,420.007507 990.988037,420.007507 
	C1160.694214,420.010986 1330.400269,420.021881 1500.681885,420.252625 
	C1501.426758,420.667389 1501.618896,420.836365 1501.833496,420.979797 
z"/>
<path fill="#80BA01" opacity="1.000000" stroke="none" 
	d="
M987.572266,420.136902 
	C988.000366,591.750305 988.000183,763.334045 988.000244,935.375549 
	C987.347229,935.345825 986.246948,934.946716 986.129639,934.353210 
	C985.843689,932.907715 986.001709,931.372070 986.001709,929.872681 
	C985.999878,761.910461 985.996033,593.948181 986.047363,425.985962 
	C986.047974,424.026276 986.762756,422.066742 987.572266,420.136902 
z"/>
<path fill="#80BA01" opacity="1.000000" stroke="none" 
	d="
M1501.848633,420.733948 
	C1501.618896,420.836365 1501.426758,420.667389 1501.140869,420.319702 
	C1501.400391,420.022675 1501.680176,420.129852 1501.848633,420.733948 
z"/>
<path fill="#80BA01" opacity="1.000000" stroke="none" 
	d="
M1501.265503,935.848755 
	C1501.163452,935.619019 1501.332642,935.427002 1501.680420,935.140991 
	C1501.977295,935.400879 1501.869995,935.680664 1501.265503,935.848755 
z"/>
</svg>