<svg version="1.1" id="Layer_1" xmlns="http://www.w3.org/2000/svg" xmlns:xlink="http://www.w3.org/1999/xlink" x="0px" y="0px"
	 width="100%" viewBox="0 0 800 800" enable-background="new 0 0 800 800" xml:space="preserve">
<path fill="#000000" opacity="1.000000" stroke="none" 
	d="
M551.000000,801.000000 
	C367.333344,801.000000 184.166672,801.000000 1.000000,801.000000 
	C1.000000,534.333313 1.000000,267.666656 1.000000,1.000000 
	C267.666656,1.000000 534.333313,1.000000 801.000000,1.000000 
	C801.000000,267.666656 801.000000,534.333313 801.000000,801.000000 
	C717.833313,801.000000 634.666687,801.000000 551.000000,801.000000 
M496.344940,188.223648 
	C487.134277,188.893295 477.928619,189.657272 468.708252,190.143036 
	C467.105133,190.227493 465.078827,189.557419 463.867340,188.515610 
	C459.102325,184.418152 454.919861,179.587143 449.919922,175.828186 
	C421.211823,154.245499 389.240967,145.325348 353.379028,151.022064 
	C327.130859,155.191635 304.779022,166.918640 285.817474,185.094376 
	C271.892426,198.442291 262.591827,215.003387 255.176849,232.701797 
	C254.403000,234.548859 252.252762,236.572800 250.356155,237.082687 
	C222.986588,244.440750 199.930771,258.684570 182.776199,281.218536 
	C160.146500,310.944550 150.792877,344.529480 157.282959,381.763000 
	C160.886124,402.434418 168.675751,421.463531 182.394348,437.607147 
	C186.261871,442.158325 187.204681,446.198395 185.423630,452.075256 
	C181.174652,466.095398 180.015335,480.744049 181.593277,495.199554 
	C183.522034,512.869019 188.857529,529.656250 197.774918,545.332397 
	C212.733719,571.628967 234.172440,590.607056 262.140106,601.373474 
	C283.428497,609.568604 305.781128,612.144043 328.545105,607.153015 
	C330.232361,606.783081 332.969116,607.439758 334.050018,608.656677 
	C343.044037,618.782410 353.695648,626.787781 365.408691,633.344727 
	C386.645233,645.232727 409.710205,649.662170 433.774689,648.098938 
	C450.107147,647.037842 465.744385,642.710144 480.443573,635.097351 
	C509.971100,619.804932 530.506104,596.669373 541.796509,565.442993 
	C542.990479,562.140869 544.955627,561.032166 547.840881,559.947205 
	C558.894348,555.790894 570.649536,552.739929 580.699402,546.824402 
	C606.293823,531.758972 624.014771,509.590942 634.500610,481.684845 
	C643.298035,458.272064 644.591370,434.206024 639.351013,410.078430 
	C635.050903,390.280090 626.269958,372.243225 613.012207,356.576660 
	C611.751587,355.087006 611.266785,352.039978 611.790466,350.082031 
	C616.495667,332.490051 618.302368,314.593170 615.530518,296.660461 
	C610.304932,262.853210 594.033936,235.083618 567.061951,213.957718 
	C546.644958,197.966019 523.118896,189.849472 496.344940,188.223648 
z"/>
<path fill="#FBFBFB" opacity="1.000000" stroke="none" 
	d="
M496.822266,188.223785 
	C523.118896,189.849472 546.644958,197.966019 567.061951,213.957718 
	C594.033936,235.083618 610.304932,262.853210 615.530518,296.660461 
	C618.302368,314.593170 616.495667,332.490051 611.790466,350.082031 
	C611.266785,352.039978 611.751587,355.087006 613.012207,356.576660 
	C626.269958,372.243225 635.050903,390.280090 639.351013,410.078430 
	C644.591370,434.206024 643.298035,458.272064 634.500610,481.684845 
	C624.014771,509.590942 606.293823,531.758972 580.699402,546.824402 
	C570.649536,552.739929 558.894348,555.790894 547.840881,559.947205 
	C544.955627,561.032166 542.990479,562.140869 541.796509,565.442993 
	C530.506104,596.669373 509.971100,619.804932 480.443573,635.097351 
	C465.744385,642.710144 450.107147,647.037842 433.774689,648.098938 
	C409.710205,649.662170 386.645233,645.232727 365.408691,633.344727 
	C353.695648,626.787781 343.044037,618.782410 334.050018,608.656677 
	C332.969116,607.439758 330.232361,606.783081 328.545105,607.153015 
	C305.781128,612.144043 283.428497,609.568604 262.140106,601.373474 
	C234.172440,590.607056 212.733719,571.628967 197.774918,545.332397 
	C188.857529,529.656250 183.522034,512.869019 181.593277,495.199554 
	C180.015335,480.744049 181.174652,466.095398 185.423630,452.075256 
	C187.204681,446.198395 186.261871,442.158325 182.394348,437.607147 
	C168.675751,421.463531 160.886124,402.434418 157.282959,381.763000 
	C150.792877,344.529480 160.146500,310.944550 182.776199,281.218536 
	C199.930771,258.684570 222.986588,244.440750 250.356155,237.082687 
	C252.252762,236.572800 254.403000,234.548859 255.176849,232.701797 
	C262.591827,215.003387 271.892426,198.442291 285.817474,185.094376 
	C304.779022,166.918640 327.130859,155.191635 353.379028,151.022064 
	C389.240967,145.325348 421.211823,154.245499 449.919922,175.828186 
	C454.919861,179.587143 459.102325,184.418152 463.867340,188.515610 
	C465.078827,189.557419 467.105133,190.227493 468.708252,190.143036 
	C477.928619,189.657272 487.134277,188.893295 496.822266,188.223785 
M517.022278,502.500000 
	C517.021545,471.836975 516.980896,441.173828 517.080933,410.511139 
	C517.091064,407.399506 516.559570,405.368256 513.459717,403.820496 
	C508.470886,401.329437 503.835449,398.139435 498.991547,395.347443 
	C491.492096,391.024811 483.942780,386.788727 475.923248,382.237061 
	C475.565277,386.527222 474.991821,390.112305 475.016235,393.693298 
	C475.106964,406.993469 475.600769,420.292816 475.565338,433.591461 
	C475.490784,461.558472 474.862396,489.527954 475.139832,517.489685 
	C475.231781,526.759277 471.755798,532.672302 463.934937,536.926147 
	C456.873383,540.766907 450.062653,545.066406 443.105591,549.102051 
	C427.460480,558.177490 411.766937,567.169678 396.144470,576.283813 
	C386.278839,582.039429 376.505951,587.954041 366.205750,594.086487 
	C387.187531,610.294067 410.062500,617.919006 436.006073,614.241394 
	C474.629578,608.766418 499.595184,586.533875 512.463196,550.269104 
	C517.828186,535.149658 517.151672,519.253906 517.022278,502.500000 
M405.386749,533.020569 
	C419.840210,524.467102 434.351654,516.008301 448.669525,507.233643 
	C450.349487,506.204041 451.881805,503.454010 451.923309,501.468964 
	C452.205475,487.975952 452.078064,474.474152 452.050629,460.975250 
	C452.048523,459.932190 451.799255,458.889679 451.619690,457.496277 
	C449.555969,458.526794 447.907349,459.234619 446.370972,460.134155 
	C409.601105,481.662689 372.782562,503.109344 336.130005,524.835999 
	C327.955139,529.681824 320.657349,529.475098 312.579773,524.675232 
	C283.778961,507.560944 254.798553,490.748810 225.872482,473.845673 
	C222.736740,472.013306 219.512329,470.332703 216.329025,468.581726 
	C215.731567,468.822083 215.134109,469.062439 214.536652,469.302795 
	C215.039444,479.982452 214.015106,491.004700 216.320236,501.280029 
	C224.513580,537.802856 246.483139,562.304749 282.942688,572.794006 
	C304.486450,578.992065 325.752991,577.370789 345.521667,567.072632 
	C365.654388,556.584839 384.988403,544.563904 405.386749,533.020569 
M524.465271,383.166351 
	C529.560242,386.166565 534.573975,389.316986 539.770203,392.130188 
	C546.735901,395.901337 549.840149,401.592987 549.817993,409.472412 
	C549.714905,446.125732 549.753967,482.779449 549.742371,519.433044 
	C549.741821,521.185791 549.742310,522.938538 549.742310,525.209167 
	C553.166321,523.673645 556.065247,522.572693 558.779968,521.126038 
	C594.711792,501.978210 613.756653,464.980743 608.222290,424.808258 
	C604.444885,397.389160 591.151672,375.117859 567.908508,360.592285 
	C534.527344,339.731110 500.045319,320.629730 465.954071,300.914001 
	C464.777557,300.233612 462.468903,300.505859 461.166931,301.214355 
	C453.972534,305.129181 446.910889,309.289978 439.835419,313.420776 
	C434.388855,316.600586 428.989105,319.860596 422.630707,323.642792 
	C457.022827,343.725708 490.437317,363.237732 524.465271,383.166351 
M243.823593,445.708954 
	C248.644775,448.520538 253.471771,451.322205 258.286163,454.145355 
	C282.516693,468.354126 306.709991,482.627441 331.045380,496.654266 
	C332.745636,497.634277 335.881134,497.576141 337.676483,496.669220 
	C343.235565,493.860901 348.452026,490.379303 353.833801,487.214050 
	C360.960358,483.022705 368.117462,478.883270 375.928467,474.332947 
	C358.559143,464.384430 341.854279,454.950806 325.281250,445.291107 
	C302.903290,432.247925 280.693848,418.914642 258.267151,405.956696 
	C251.205658,401.876648 248.102295,396.179047 248.118256,388.195251 
	C248.190872,351.889282 248.141647,315.583099 248.136307,279.276978 
	C248.136047,277.522949 248.136261,275.768890 248.136261,273.255920 
	C245.899185,274.144043 244.388779,274.655212 242.953522,275.326904 
	C225.650528,283.424744 211.870865,295.463257 202.189957,312.017334 
	C186.985321,338.016876 184.749924,365.326691 195.028717,393.429657 
	C203.762344,417.308136 220.810272,433.890015 243.823593,445.708954 
M530.812500,299.705872 
	C547.706909,309.669769 564.601257,319.633698 581.951965,329.866730 
	C582.443787,327.484497 582.966125,325.909363 583.070862,324.306976 
	C585.307251,290.075684 573.808044,261.631226 546.332520,240.674759 
	C522.346802,222.380127 495.021515,217.457260 466.358063,226.111954 
	C453.432678,230.014679 441.389618,237.320938 429.491730,244.047806 
	C402.435699,259.344849 375.701874,275.212891 348.906982,290.967621 
	C347.578766,291.748566 346.084473,293.643921 346.065338,295.039551 
	C345.860687,309.982300 345.938049,324.928894 345.938049,340.423279 
	C347.621277,339.717743 348.850769,339.357178 349.923981,338.729431 
	C366.890961,328.805420 383.840210,318.851135 400.788757,308.895599 
	C421.962219,296.458405 443.095856,283.952759 464.323822,271.609344 
	C470.687256,267.909180 477.026428,268.325562 483.474762,272.159119 
	C498.954102,281.361633 514.607056,290.272064 530.812500,299.705872 
M322.841858,370.160797 
	C322.660370,366.795044 322.328461,363.429657 322.321136,360.063507 
	C322.261627,332.733459 322.178253,305.402832 322.311768,278.073456 
	C322.341034,272.082184 324.463898,266.468964 329.846405,263.286835 
	C351.774353,250.323090 373.862823,237.631149 395.869476,224.800186 
	C407.400452,218.077072 418.884491,211.273483 430.781281,204.275940 
	C429.661682,203.075363 429.014343,202.101654 428.124664,201.468353 
	C409.489807,188.202942 389.042480,181.734222 365.906128,183.682465 
	C341.129333,185.768829 320.785370,195.976318 304.530853,214.673706 
	C289.512268,231.949463 281.646210,251.836319 281.714630,274.872162 
	C281.824524,311.867493 281.799408,348.863922 281.593506,385.858582 
	C281.567230,390.583649 282.563385,393.641174 287.236786,395.447021 
	C290.251068,396.611786 292.862488,398.799164 295.693695,400.461395 
	C304.292267,405.509735 312.909973,410.525543 323.004608,416.420959 
	C323.004608,400.458374 323.004608,385.752716 322.841858,370.160797 
M402.919922,339.270752 
	C400.333679,337.670044 398.308929,337.687347 395.322815,339.487610 
	C380.038116,348.702393 364.422546,357.367035 349.044312,366.430389 
	C347.575897,367.295776 346.081635,369.577576 346.062836,371.218658 
	C345.850952,389.697784 345.850433,408.181030 346.051392,426.660339 
	C346.069458,428.321899 347.481598,430.637939 348.931946,431.511139 
	C364.257538,440.737762 379.746277,449.692871 395.126648,458.829559 
	C397.867523,460.457764 400.184509,460.419159 402.907471,458.805664 
	C418.167328,449.763519 433.455597,440.767273 448.836487,431.933472 
	C451.355164,430.486847 452.147980,428.889832 452.128418,426.073364 
	C452.002289,407.925720 452.149078,389.775665 451.924255,371.629883 
	C451.901978,369.830688 450.426636,367.312897 448.874359,366.383545 
	C433.827606,357.374603 418.620270,348.633911 402.919922,339.270752 
z"/>
<path fill="#000000" opacity="1.000000" stroke="none" 
	d="
M517.022278,503.000000 
	C517.151672,519.253906 517.828186,535.149658 512.463196,550.269104 
	C499.595184,586.533875 474.629578,608.766418 436.006073,614.241394 
	C410.062500,617.919006 387.187531,610.294067 366.205750,594.086487 
	C376.505951,587.954041 386.278839,582.039429 396.144470,576.283813 
	C411.766937,567.169678 427.460480,558.177490 443.105591,549.102051 
	C450.062653,545.066406 456.873383,540.766907 463.934937,536.926147 
	C471.755798,532.672302 475.231781,526.759277 475.139832,517.489685 
	C474.862396,489.527954 475.490784,461.558472 475.565338,433.591461 
	C475.600769,420.292816 475.106964,406.993469 475.016235,393.693298 
	C474.991821,390.112305 475.565277,386.527222 475.923248,382.237061 
	C483.942780,386.788727 491.492096,391.024811 498.991547,395.347443 
	C503.835449,398.139435 508.470886,401.329437 513.459717,403.820496 
	C516.559570,405.368256 517.091064,407.399506 517.080933,410.511139 
	C516.980896,441.173828 517.021545,471.836975 517.022278,503.000000 
z"/>
<path fill="#000000" opacity="1.000000" stroke="none" 
	d="
M405.029419,533.117432 
	C384.988403,544.563904 365.654388,556.584839 345.521667,567.072632 
	C325.752991,577.370789 304.486450,578.992065 282.942688,572.794006 
	C246.483139,562.304749 224.513580,537.802856 216.320236,501.280029 
	C214.015106,491.004700 215.039444,479.982452 214.536652,469.302795 
	C215.134109,469.062439 215.731567,468.822083 216.329025,468.581726 
	C219.512329,470.332703 222.736740,472.013306 225.872482,473.845673 
	C254.798553,490.748810 283.778961,507.560944 312.579773,524.675232 
	C320.657349,529.475098 327.955139,529.681824 336.130005,524.835999 
	C372.782562,503.109344 409.601105,481.662689 446.370972,460.134155 
	C447.907349,459.234619 449.555969,458.526794 451.619690,457.496277 
	C451.799255,458.889679 452.048523,459.932190 452.050629,460.975250 
	C452.078064,474.474152 452.205475,487.975952 451.923309,501.468964 
	C451.881805,503.454010 450.349487,506.204041 448.669525,507.233643 
	C434.351654,516.008301 419.840210,524.467102 405.029419,533.117432 
z"/>
<path fill="#000000" opacity="1.000000" stroke="none" 
	d="
M524.158569,382.958069 
	C490.437317,363.237732 457.022827,343.725708 422.630707,323.642792 
	C428.989105,319.860596 434.388855,316.600586 439.835419,313.420776 
	C446.910889,309.289978 453.972534,305.129181 461.166931,301.214355 
	C462.468903,300.505859 464.777557,300.233612 465.954071,300.914001 
	C500.045319,320.629730 534.527344,339.731110 567.908508,360.592285 
	C591.151672,375.117859 604.444885,397.389160 608.222290,424.808258 
	C613.756653,464.980743 594.711792,501.978210 558.779968,521.126038 
	C556.065247,522.572693 553.166321,523.673645 549.742310,525.209167 
	C549.742310,522.938538 549.741821,521.185791 549.742371,519.433044 
	C549.753967,482.779449 549.714905,446.125732 549.817993,409.472412 
	C549.840149,401.592987 546.735901,395.901337 539.770203,392.130188 
	C534.573975,389.316986 529.560242,386.166565 524.158569,382.958069 
z"/>
<path fill="#000000" opacity="1.000000" stroke="none" 
	d="
M243.514420,445.502167 
	C220.810272,433.890015 203.762344,417.308136 195.028717,393.429657 
	C184.749924,365.326691 186.985321,338.016876 202.189957,312.017334 
	C211.870865,295.463257 225.650528,283.424744 242.953522,275.326904 
	C244.388779,274.655212 245.899185,274.144043 248.136261,273.255920 
	C248.136261,275.768890 248.136047,277.522949 248.136307,279.276978 
	C248.141647,315.583099 248.190872,351.889282 248.118256,388.195251 
	C248.102295,396.179047 251.205658,401.876648 258.267151,405.956696 
	C280.693848,418.914642 302.903290,432.247925 325.281250,445.291107 
	C341.854279,454.950806 358.559143,464.384430 375.928467,474.332947 
	C368.117462,478.883270 360.960358,483.022705 353.833801,487.214050 
	C348.452026,490.379303 343.235565,493.860901 337.676483,496.669220 
	C335.881134,497.576141 332.745636,497.634277 331.045380,496.654266 
	C306.709991,482.627441 282.516693,468.354126 258.286163,454.145355 
	C253.471771,451.322205 248.644775,448.520538 243.514420,445.502167 
z"/>
<path fill="#000000" opacity="1.000000" stroke="none" 
	d="
M530.501221,299.503113 
	C514.607056,290.272064 498.954102,281.361633 483.474762,272.159119 
	C477.026428,268.325562 470.687256,267.909180 464.323822,271.609344 
	C443.095856,283.952759 421.962219,296.458405 400.788757,308.895599 
	C383.840210,318.851135 366.890961,328.805420 349.923981,338.729431 
	C348.850769,339.357178 347.621277,339.717743 345.938049,340.423279 
	C345.938049,324.928894 345.860687,309.982300 346.065338,295.039551 
	C346.084473,293.643921 347.578766,291.748566 348.906982,290.967621 
	C375.701874,275.212891 402.435699,259.344849 429.491730,244.047806 
	C441.389618,237.320938 453.432678,230.014679 466.358063,226.111954 
	C495.021515,217.457260 522.346802,222.380127 546.332520,240.674759 
	C573.808044,261.631226 585.307251,290.075684 583.070862,324.306976 
	C582.966125,325.909363 582.443787,327.484497 581.951965,329.866730 
	C564.601257,319.633698 547.706909,309.669769 530.501221,299.503113 
z"/>
<path fill="#000000" opacity="1.000000" stroke="none" 
	d="
M322.923218,370.603912 
	C323.004608,385.752716 323.004608,400.458374 323.004608,416.420959 
	C312.909973,410.525543 304.292267,405.509735 295.693695,400.461395 
	C292.862488,398.799164 290.251068,396.611786 287.236786,395.447021 
	C282.563385,393.641174 281.567230,390.583649 281.593506,385.858582 
	C281.799408,348.863922 281.824524,311.867493 281.714630,274.872162 
	C281.646210,251.836319 289.512268,231.949463 304.530853,214.673706 
	C320.785370,195.976318 341.129333,185.768829 365.906128,183.682465 
	C389.042480,181.734222 409.489807,188.202942 428.124664,201.468353 
	C429.014343,202.101654 429.661682,203.075363 430.781281,204.275940 
	C418.884491,211.273483 407.400452,218.077072 395.869476,224.800186 
	C373.862823,237.631149 351.774353,250.323090 329.846405,263.286835 
	C324.463898,266.468964 322.341034,272.082184 322.311768,278.073456 
	C322.178253,305.402832 322.261627,332.733459 322.321136,360.063507 
	C322.328461,363.429657 322.660370,366.795044 322.923218,370.603912 
z"/>
<path fill="#000000" opacity="1.000000" stroke="none" 
	d="
M403.189331,339.543701 
	C418.620270,348.633911 433.827606,357.374603 448.874359,366.383545 
	C450.426636,367.312897 451.901978,369.830688 451.924255,371.629883 
	C452.149078,389.775665 452.002289,407.925720 452.128418,426.073364 
	C452.147980,428.889832 451.355164,430.486847 448.836487,431.933472 
	C433.455597,440.767273 418.167328,449.763519 402.907471,458.805664 
	C400.184509,460.419159 397.867523,460.457764 395.126648,458.829559 
	C379.746277,449.692871 364.257538,440.737762 348.931946,431.511139 
	C347.481598,430.637939 346.069458,428.321899 346.051392,426.660339 
	C345.850433,408.181030 345.850952,389.697784 346.062836,371.218658 
	C346.081635,369.577576 347.575897,367.295776 349.044312,366.430389 
	C364.422546,357.367035 380.038116,348.702393 395.322815,339.487610 
	C398.308929,337.687347 400.333679,337.670044 403.189331,339.543701 
z"/>
</svg>