<svg version="1.1" id="Layer_1" xmlns="http://www.w3.org/2000/svg" xmlns:xlink="http://www.w3.org/1999/xlink" x="0px" y="0px"
	 width="100%" viewBox="0 0 1080 1080" enable-background="new 0 0 1080 1080" xml:space="preserve">
<path fill="#000000" opacity="1.000000" stroke="none" 
	d="
M633.000000,1081.000000 
	C422.024292,1081.000000 211.548584,1081.000000 1.036436,1081.000000 
	C1.036436,721.065857 1.036436,361.131653 1.036436,1.098749 
	C360.892609,1.098749 720.785217,1.098749 1080.838867,1.098749 
	C1080.838867,360.999939 1080.838867,720.999939 1080.838867,1081.000000 
	C931.797852,1081.000000 782.648926,1081.000000 633.000000,1081.000000 
M188.044205,250.048416 
	C188.044205,250.048416 188.119186,250.049164 187.709808,250.272064 
	C187.455978,250.453125 187.227310,250.661774 186.429199,251.223190 
	C182.564087,255.142426 178.698990,259.061676 174.507874,263.303070 
	C174.295898,263.530365 174.139786,263.791138 174.024048,264.025238 
	C174.024048,264.025238 174.085892,264.031097 173.665054,264.294312 
	C173.399612,264.498505 173.179459,264.743408 172.992706,264.987030 
	C172.992706,264.987030 173.031830,265.006378 172.616638,265.267120 
	C172.357635,265.476227 172.156174,265.730865 171.994614,265.994446 
	C171.994614,265.994446 172.031189,266.012024 171.616043,266.276825 
	C171.356201,266.488037 171.156006,266.745575 170.993881,266.999573 
	C170.993881,266.999573 171.046570,267.012939 170.640076,267.294403 
	C170.384323,267.509460 170.177505,267.764252 170.005692,268.002563 
	C170.005692,268.002563 170.060669,268.020752 169.641235,268.278839 
	C169.378021,268.483551 169.166885,268.732452 168.993286,268.993347 
	C168.993286,268.993347 169.025574,269.007751 168.620758,269.283264 
	C168.367645,269.497803 168.168350,269.754181 168.001038,270.001831 
	C168.001038,270.001831 168.052353,270.021759 167.642319,270.296112 
	C167.385513,270.509796 167.181320,270.765503 167.008926,271.008911 
	C167.008926,271.008911 167.063339,271.029541 166.648117,271.298706 
	C166.387436,271.509186 166.178925,271.762604 166.005051,272.004364 
	C166.005051,272.004364 166.059280,272.022858 165.644516,272.291626 
	C165.384979,272.502502 165.176422,272.755402 165.006088,272.998199 
	C165.006088,272.998199 165.044418,273.035919 164.337540,273.105103 
	C163.233139,274.417328 162.128723,275.729553 160.996948,277.001068 
	C160.996948,277.001068 161.041367,277.021759 160.414886,277.153748 
	C159.647125,277.820618 158.879364,278.487518 157.857666,279.652740 
	C157.294739,280.131622 156.731812,280.610474 155.760971,281.303802 
	C155.509033,281.479950 155.272141,281.674408 154.442642,282.226227 
	C149.026108,287.695374 143.586945,293.142334 138.197357,298.637878 
	C122.814926,314.322723 107.530830,330.104858 92.059731,345.701599 
	C77.629692,360.248810 63.068684,374.667938 48.417000,388.991699 
	C45.835148,391.515778 45.584141,393.165588 48.042545,395.932281 
	C53.742836,402.347321 59.164555,409.013550 64.605392,415.654785 
	C75.499710,428.952637 86.241577,442.376251 97.217575,455.605927 
	C105.648277,465.767700 114.469894,475.605499 122.885452,485.779449 
	C133.744781,498.907715 144.265427,512.316284 155.133804,525.436890 
	C163.923065,536.047546 173.109497,546.328430 181.946396,556.900452 
	C201.250732,579.995178 220.451477,603.176514 239.682175,626.332703 
	C266.117767,658.164551 292.536926,690.010010 318.972351,721.841980 
	C348.704437,757.643555 378.450867,793.433167 408.182953,829.234680 
	C424.396027,848.757629 440.643097,868.252686 456.773193,887.843994 
	C463.909271,896.511353 470.635498,905.517883 477.826721,914.137695 
	C490.342560,929.140076 503.101135,943.939697 515.702576,958.871033 
	C520.481934,964.534119 525.108459,970.326233 530.048889,976.357727 
	C531.575806,974.907166 532.973083,973.756714 534.164001,972.422058 
	C553.978149,950.216370 573.772400,927.992981 593.558777,905.762573 
	C614.957764,881.720581 636.320862,857.646545 657.741455,833.623840 
	C690.387695,797.011780 723.090759,760.450439 755.729675,723.831909 
	C779.503357,697.159546 803.203857,670.422058 826.952942,643.727844 
	C846.608459,621.634766 866.255432,599.534119 885.964722,577.489136 
	C906.935669,554.033264 928.018311,530.677124 948.974976,507.208618 
	C980.834106,471.530823 1012.620483,435.788025 1044.454590,400.087921 
	C1049.158569,394.812592 1049.204102,394.781006 1044.568359,388.862152 
	C1044.296875,388.605164 1044.025391,388.348175 1043.844727,388.109863 
	C1043.844727,388.109863 1043.825684,388.200623 1043.673218,387.535400 
	C1042.398315,386.389587 1041.123291,385.243744 1039.409790,383.925232 
	C1039.136597,383.738251 1038.962646,383.483490 1038.665527,382.609863 
	C1038.093994,382.084625 1037.522583,381.559387 1037.000000,381.000000 
	C1037.000000,381.000000 1036.963989,381.047241 1036.835083,380.390747 
	C1035.876953,379.600647 1034.918823,378.810547 1034.006348,377.999329 
	C1034.006348,377.999329 1033.987061,378.045868 1033.734985,377.621368 
	C1033.529175,377.356750 1033.276489,377.149231 1032.524292,376.828125 
	C1032.227539,376.652802 1032.045654,376.396088 1031.731445,375.637878 
	C1031.532104,375.374847 1031.288208,375.162903 1031.000000,375.000000 
	C1031.000000,375.000000 1030.999023,375.000366 1030.771362,374.589355 
	C1030.582275,374.332062 1030.345947,374.129974 1029.622192,373.718018 
	C1029.429443,373.438629 1029.236694,373.159271 1028.841187,372.495148 
	C1028.670654,372.251190 1028.449951,372.067566 1027.750854,371.699219 
	C1027.475830,371.300568 1027.200684,370.901917 1026.568237,369.969727 
	C1026.250000,369.687836 1025.931641,369.405975 1025.254883,368.969238 
	C1025.254883,368.969238 1025.010986,368.664032 1024.843140,368.348511 
	C1024.698364,368.150574 1024.512207,368.005859 1024.118774,367.879333 
	C1024.118774,367.879333 1024.084106,367.713287 1023.921936,367.408356 
	C1023.780396,367.217896 1023.598877,367.080078 1022.920837,366.644623 
	C1022.567261,366.196442 1022.213684,365.748260 1021.709534,364.610352 
	C1019.760681,362.764435 1017.811829,360.918518 1015.435364,358.894928 
	C1015.165222,358.709778 1015.001221,358.455994 1014.646667,357.708862 
	C1014.375305,357.498077 1014.103882,357.287323 1013.417480,356.892212 
	C1013.167053,356.695862 1013.013489,356.441132 1012.685730,355.692871 
	C1012.427002,355.472412 1012.168274,355.251923 1011.475403,354.872498 
	C1011.185791,354.711334 1011.010315,354.467926 1010.674805,353.701202 
	C1010.408997,353.481567 1010.143188,353.261932 1009.955627,353.038452 
	C1009.955627,353.038452 1009.959229,353.116638 1009.659180,352.704926 
	C1009.394287,352.495453 1009.129333,352.285950 1008.926941,352.064240 
	C1008.926941,352.064240 1008.919312,352.127533 1008.695557,351.728271 
	C1008.517395,351.480225 1008.320557,351.247955 1007.752625,350.426727 
	C1006.516907,349.366272 1005.174500,348.406647 1004.062500,347.229309 
	C995.834351,338.517792 987.756714,329.662079 979.437073,321.039520 
	C947.458069,287.896240 915.347717,254.879639 883.409607,221.697083 
	C870.155884,207.926910 857.212402,193.858047 843.375732,179.517792 
	C841.233459,179.324738 839.091125,178.962891 836.948853,178.962631 
	C646.572632,178.939606 456.196381,178.941772 265.820160,178.983246 
	C263.866028,178.983673 261.912048,179.527161 259.266083,179.989685 
	C258.510834,180.526184 257.666779,180.972214 257.013977,181.613052 
	C249.734344,188.759338 242.484253,195.935730 234.770798,203.391968 
	C234.532990,203.660568 234.295181,203.929153 234.060669,204.066116 
	C234.060669,204.066116 234.192307,204.069458 233.746719,204.367355 
	C233.520111,204.641693 233.293518,204.916031 233.066925,205.067230 
	C233.066925,205.067230 233.190063,205.067307 232.746704,205.361038 
	C232.521408,205.632462 232.296112,205.903900 232.068954,206.074326 
	C232.068954,206.074326 232.169952,206.072525 231.735611,206.364426 
	C231.511505,206.630020 231.287399,206.895630 231.063187,207.063873 
	C231.063187,207.063873 231.160538,207.063812 230.730133,207.359497 
	C230.510590,207.627762 230.291046,207.896027 230.071854,208.068420 
	C230.071854,208.068420 230.167709,208.068848 229.732697,208.373947 
	C229.512772,208.650192 229.292862,208.926453 229.072815,209.070312 
	C229.072815,209.070312 229.205231,209.070221 228.759491,209.375687 
	C228.533813,209.654343 228.308151,209.932983 228.092514,210.122437 
	C228.092514,210.122437 228.181732,210.132553 227.627396,210.370270 
	C227.124710,210.971252 226.622025,211.572250 226.108292,212.078842 
	C226.108292,212.078842 226.202682,212.067886 225.748917,212.375015 
	C225.520538,212.657120 225.292145,212.939224 224.886871,213.617554 
	C224.699600,213.860367 224.453888,214.001328 223.699081,214.278091 
	C223.472473,214.527771 223.245865,214.777451 222.998779,214.999390 
	C222.998779,214.999390 223.026810,215.019150 222.628708,215.311661 
	C222.379440,215.534958 222.182617,215.797562 222.031479,216.033295 
	C222.031479,216.033295 222.097961,216.035629 221.677902,216.307175 
	C221.413071,216.516266 221.194244,216.765732 221.005402,217.001129 
	C221.005402,217.001129 221.058258,217.021744 220.645523,217.312164 
	C220.443848,217.579712 220.242172,217.847260 220.036316,218.038757 
	C220.036316,218.038757 220.112366,218.034607 219.694580,218.334671 
	C219.481796,218.601746 219.269012,218.868820 219.056381,219.056061 
	C219.056381,219.056061 219.136185,219.056274 218.705551,219.337387 
	C218.481293,219.595062 218.257019,219.852753 218.037491,220.032867 
	C218.037491,220.032867 218.115051,220.037643 217.681870,220.317078 
	C217.465332,220.581711 217.248795,220.846329 217.033142,221.032852 
	C217.033142,221.032852 217.111237,221.033783 216.680862,221.313843 
	C216.465759,221.577789 216.250656,221.841751 216.035263,222.035522 
	C216.035263,222.035522 216.105453,222.036377 215.680206,222.311081 
	C215.463226,222.567322 215.246262,222.823547 215.018585,223.018723 
	C215.018585,223.018723 215.079742,223.028961 214.661530,223.319412 
	C214.454102,223.586304 214.246689,223.853195 214.035782,224.036270 
	C214.035782,224.036270 214.119598,224.032837 213.694626,224.333755 
	C213.479050,224.604202 213.263489,224.874649 213.046066,225.044815 
	C213.046066,225.044815 213.146347,225.043015 212.716644,225.348282 
	C212.499542,225.622787 212.282425,225.897293 212.062592,226.063782 
	C212.062592,226.063782 212.170578,226.061142 211.739807,226.354156 
	C211.516174,226.617523 211.292542,226.880890 211.069565,227.071091 
	C211.069565,227.071091 211.142731,227.071808 210.713867,227.347595 
	C210.488083,227.600174 210.262314,227.852768 210.041626,228.035049 
	C210.041626,228.035049 210.111877,228.040741 209.677353,228.319031 
	C209.462753,228.585709 209.248169,228.852402 209.031006,229.036469 
	C209.031006,229.036469 209.113602,229.033966 208.687790,229.318176 
	C208.468216,229.577530 208.248642,229.836884 208.031204,230.027863 
	C208.031204,230.027863 208.099289,230.034775 207.670700,230.281357 
	C207.400650,230.478683 207.181931,230.722107 207.000610,231.000610 
	C207.000610,231.000610 207.011841,231.014359 206.612686,231.300323 
	C206.364532,231.522934 206.173004,231.786667 206.027191,232.028824 
	C206.027191,232.028824 206.090637,232.034180 205.673386,232.306061 
	C205.409760,232.514587 205.192932,232.763824 205.004242,233.001099 
	C205.004242,233.001099 205.055710,233.022873 204.644501,233.315216 
	C204.443695,233.583405 204.242889,233.851578 204.036606,234.038742 
	C204.036606,234.038742 204.117630,234.033310 203.698425,234.341339 
	C203.485992,234.612839 203.273560,234.884338 202.893051,235.571793 
	C202.714462,235.834198 202.469025,235.993683 201.712784,236.330795 
	C201.487274,236.597137 201.261749,236.863480 201.040451,237.040298 
	C201.040451,237.040298 201.129959,237.044556 200.696411,237.307846 
	C200.473083,237.559006 200.249741,237.810150 200.006943,238.007111 
	C200.006943,238.007111 200.060532,238.028214 199.647476,238.301514 
	C199.388641,238.514954 199.182632,238.770889 199.012543,239.012573 
	C199.012543,239.012573 199.069763,239.027939 198.651016,239.308182 
	C198.440933,239.567902 198.230850,239.827621 197.862793,240.512695 
	C197.702606,240.792892 197.465149,240.968689 196.708801,241.334610 
	C196.490387,241.610413 196.271973,241.886215 195.899048,242.584869 
	C195.721939,242.849365 195.477158,243.011917 194.727386,243.353531 
	C194.498138,243.612488 194.268875,243.871429 194.045135,244.044022 
	C194.045135,244.044022 194.131485,244.049606 193.694183,244.307770 
	C193.469788,244.558548 193.245377,244.809326 193.002457,245.005676 
	C193.002457,245.005676 193.057816,245.021133 192.651367,245.311996 
	C192.445023,245.572159 192.238678,245.832321 192.029755,246.027222 
	C192.029755,246.027222 192.094421,246.036530 191.667114,246.281464 
	C191.397858,246.478027 191.180786,246.721161 191.001831,247.001831 
	C191.001831,247.001831 191.010864,247.015839 190.609726,247.316391 
	C190.419922,247.589233 190.230118,247.862091 189.857498,248.557312 
	C189.652969,248.803833 189.393768,248.959167 188.665390,249.319794 
	C188.458115,249.587662 188.250839,249.855530 188.044205,250.048416 
z"/>
<path fill="#3168B6" opacity="1.000000" stroke="none" 
	d="
M1010.948914,354.142273 
	C1011.010315,354.467926 1011.185791,354.711334 1011.790283,355.199738 
	C1012.388977,355.727325 1012.672913,355.927704 1012.956848,356.128052 
	C1013.013489,356.441132 1013.167053,356.695862 1013.731812,357.231628 
	C1014.345276,357.758606 1014.644287,357.946136 1014.943359,358.133636 
	C1015.001221,358.455994 1015.165222,358.709778 1015.767456,359.296234 
	C1018.019714,361.565063 1019.939941,363.432556 1021.860107,365.300079 
	C1022.213684,365.748260 1022.567261,366.196442 1023.182312,367.006744 
	C1023.589294,367.609863 1023.802734,367.724670 1024.084106,367.713287 
	C1024.084106,367.713287 1024.118774,367.879333 1024.241699,368.086609 
	C1024.507080,368.544891 1024.722534,368.668274 1025.010986,368.664032 
	C1025.010986,368.664032 1025.254883,368.969238 1025.573364,369.343689 
	C1026.236450,369.979828 1026.581055,370.241547 1026.925659,370.503235 
	C1027.200684,370.901917 1027.475830,371.300568 1028.016724,372.048279 
	C1028.455078,372.686493 1028.708862,372.847321 1029.044067,372.879883 
	C1029.236694,373.159271 1029.429443,373.438629 1029.908447,374.089355 
	C1030.383301,374.759003 1030.651367,374.938873 1030.999023,375.000366 
	C1030.999023,375.000366 1031.000000,375.000000 1031.069580,375.249817 
	C1031.418945,375.685730 1031.698730,375.871826 1031.978638,376.057953 
	C1032.045654,376.396088 1032.227539,376.652802 1032.838257,377.157043 
	C1033.430542,377.672577 1033.708740,377.859222 1033.987061,378.045898 
	C1033.987061,378.045868 1034.006348,377.999329 1034.076172,378.310547 
	C1035.085205,379.430237 1036.024658,380.238739 1036.963989,381.047241 
	C1036.963989,381.047241 1037.000000,381.000000 1037.062622,381.306335 
	C1037.712769,382.128754 1038.300415,382.644867 1038.887939,383.161011 
	C1038.962646,383.483490 1039.136597,383.738251 1039.741211,384.314148 
	C1041.323608,385.868958 1042.574707,387.034790 1043.825684,388.200623 
	C1043.825684,388.200623 1043.844727,388.109863 1043.898193,388.376160 
	C1044.252808,388.876648 1044.553955,389.110809 1044.854980,389.344971 
	C1049.204102,394.781006 1049.158569,394.812592 1044.454590,400.087921 
	C1012.620483,435.788025 980.834106,471.530823 948.974976,507.208618 
	C928.018311,530.677124 906.935669,554.033264 885.964722,577.489136 
	C866.255432,599.534119 846.608459,621.634766 826.952942,643.727844 
	C803.203857,670.422058 779.503357,697.159546 755.729675,723.831909 
	C723.090759,760.450439 690.387695,797.011780 657.741455,833.623840 
	C636.320862,857.646545 614.957764,881.720581 593.558777,905.762573 
	C573.772400,927.992981 553.978149,950.216370 534.164001,972.422058 
	C532.973083,973.756714 531.575806,974.907166 530.048889,976.357727 
	C525.108459,970.326233 520.481934,964.534119 515.702576,958.871033 
	C503.101135,943.939697 490.342560,929.140076 477.826721,914.137695 
	C470.635498,905.517883 463.909271,896.511353 456.773193,887.843994 
	C440.643097,868.252686 424.396027,848.757629 408.182953,829.234680 
	C378.450867,793.433167 348.704437,757.643555 318.972351,721.841980 
	C292.536926,690.010010 266.117767,658.164551 239.682175,626.332703 
	C220.451477,603.176514 201.250732,579.995178 181.946396,556.900452 
	C173.109497,546.328430 163.923065,536.047546 155.133804,525.436890 
	C144.265427,512.316284 133.744781,498.907715 122.885452,485.779449 
	C114.469894,475.605499 105.648277,465.767700 97.217575,455.605927 
	C86.241577,442.376251 75.499710,428.952637 64.605392,415.654785 
	C59.164555,409.013550 53.742836,402.347321 48.042545,395.932281 
	C45.584141,393.165588 45.835148,391.515778 48.417000,388.991699 
	C63.068684,374.667938 77.629692,360.248810 92.059731,345.701599 
	C107.530830,330.104858 122.814926,314.322723 138.197357,298.637878 
	C143.586945,293.142334 149.026108,287.695374 155.003326,282.057648 
	C155.765625,281.622498 155.967255,281.355927 156.168884,281.089355 
	C156.731812,280.610474 157.294739,280.131622 158.306274,279.364563 
	C159.517044,278.391479 160.279205,277.706635 161.041367,277.021759 
	C161.041367,277.021759 160.996948,277.001068 161.305618,276.895752 
	C162.757660,275.538940 163.901031,274.287415 165.044403,273.035919 
	C165.044418,273.035919 165.006088,272.998199 165.268860,272.955383 
	C165.707520,272.615967 165.883392,272.319427 166.059280,272.022858 
	C166.059280,272.022858 166.005051,272.004364 166.265518,271.952271 
	C166.705093,271.609955 166.884216,271.319763 167.063339,271.029541 
	C167.063339,271.029541 167.008926,271.008911 167.270615,270.956421 
	C167.705658,270.609863 167.878998,270.315826 168.052353,270.021759 
	C168.052353,270.021759 168.001038,270.001831 168.258560,269.943237 
	C168.685913,269.592316 168.855728,269.300018 169.025574,269.007751 
	C169.025574,269.007751 168.993286,268.993347 169.249512,268.931702 
	C169.690720,268.586945 169.875687,268.303833 170.060669,268.020752 
	C170.060669,268.020752 170.005692,268.002563 170.266983,267.952515 
	C170.701035,267.605957 170.873810,267.309448 171.046570,267.012939 
	C171.046570,267.012939 170.993881,266.999573 171.247650,266.933472 
	C171.678009,266.582245 171.854599,266.297119 172.031189,266.012024 
	C172.031189,266.012024 171.994614,265.994446 172.248489,265.931885 
	C172.678848,265.581665 172.855347,265.294006 173.031830,265.006378 
	C173.031830,265.006378 172.992706,264.987030 173.255920,264.939209 
	C173.708038,264.604645 173.896957,264.317871 174.085876,264.031097 
	C174.085892,264.031097 174.024048,264.025238 174.272888,263.963196 
	C174.625793,263.594421 174.729843,263.287689 174.833893,262.980927 
	C178.698990,259.061676 182.564087,255.142426 186.990875,251.064972 
	C187.741440,250.620895 187.930313,250.335037 188.119186,250.049164 
	C188.119186,250.049164 188.044205,250.048416 188.293457,249.986847 
	C188.721771,249.624619 188.900848,249.323959 189.079926,249.023300 
	C189.393768,248.959167 189.652969,248.803833 190.189468,248.239563 
	C190.684586,247.619827 190.847717,247.317825 191.010864,247.015839 
	C191.010864,247.015839 191.001831,247.001831 191.257385,246.931305 
	C191.706772,246.586029 191.900604,246.311279 192.094421,246.036530 
	C192.094421,246.036530 192.029755,246.027222 192.286072,245.978012 
	C192.714188,245.626251 192.886002,245.323700 193.057816,245.021133 
	C193.057816,245.021133 193.002457,245.005676 193.263336,244.946106 
	C193.726639,244.607544 193.929062,244.328568 194.131470,244.049591 
	C194.131485,244.049606 194.045135,244.044022 194.306519,244.005661 
	C194.766815,243.669052 194.965744,243.370789 195.164673,243.072525 
	C195.477158,243.011917 195.721939,242.849365 196.232285,242.268280 
	C196.760483,241.647842 196.955444,241.343979 197.150421,241.040100 
	C197.465149,240.968689 197.702606,240.792892 198.195587,240.214233 
	C198.708832,239.619812 198.889297,239.323883 199.069763,239.027939 
	C199.069763,239.027939 199.012543,239.012573 199.273804,238.962250 
	C199.710220,238.617355 199.885376,238.322784 200.060516,238.028214 
	C200.060532,238.028214 200.006943,238.007111 200.275803,237.958282 
	C200.739761,237.621155 200.934860,237.332855 201.129959,237.044556 
	C201.129959,237.044556 201.040451,237.040298 201.301849,236.998840 
	C201.761078,236.654999 201.958893,236.352631 202.156708,236.050247 
	C202.469025,235.993683 202.714462,235.834198 203.232513,235.263245 
	C203.753860,234.647583 203.935745,234.340439 204.117630,234.033310 
	C204.117630,234.033310 204.036606,234.038742 204.285248,233.979706 
	C204.707825,233.621414 204.881775,233.322144 205.055710,233.022873 
	C205.055710,233.022873 205.004242,233.001099 205.268616,232.950104 
	C205.718857,232.610809 205.904739,232.322495 206.090637,232.034180 
	C206.090637,232.034180 206.027191,232.028824 206.275818,231.967224 
	C206.686905,231.608536 206.849365,231.311447 207.011841,231.014359 
	C207.011841,231.014359 207.000610,231.000610 207.256866,230.930511 
	C207.708511,230.585205 207.903900,230.309982 208.099274,230.034760 
	C208.099289,230.034775 208.031204,230.027863 208.293671,229.983582 
	C208.741943,229.637527 208.927780,229.335754 209.113602,229.033966 
	C209.113602,229.033966 209.031006,229.036469 209.284149,228.981415 
	C209.728836,228.631165 209.920349,228.335953 210.111877,228.040741 
	C210.111877,228.040741 210.041626,228.035049 210.299271,227.993347 
	C210.752182,227.658356 210.947464,227.365082 211.142731,227.071808 
	C211.142731,227.071808 211.069565,227.071091 211.326309,227.013184 
	C211.778900,226.657211 211.974731,226.359177 212.170563,226.061142 
	C212.170578,226.061142 212.062592,226.063782 212.322052,226.014954 
	C212.769791,225.658401 212.958069,225.350708 213.146332,225.043015 
	C213.146347,225.043015 213.046066,225.044815 213.308685,225.002167 
	C213.754059,224.650620 213.936829,224.341721 214.119598,224.032837 
	C214.119598,224.032837 214.035782,224.036270 214.295410,223.990692 
	C214.729935,223.639740 214.904846,223.334351 215.079742,223.028961 
	C215.079742,223.028961 215.018585,223.018723 215.285156,222.974091 
	C215.736298,222.631760 215.920883,222.334061 216.105453,222.036377 
	C216.105453,222.036377 216.035263,222.035522 216.295166,221.985550 
	C216.740479,221.634979 216.925858,221.334381 217.111237,221.033783 
	C217.111237,221.033783 217.033142,221.032852 217.291748,220.987061 
	C217.738571,220.640060 217.926804,220.338852 218.115051,220.037643 
	C218.115051,220.037643 218.037491,220.032867 218.296188,219.990356 
	C218.748657,219.650650 218.942429,219.353470 219.136200,219.056274 
	C219.136185,219.056274 219.056381,219.056061 219.312317,219.001160 
	C219.749634,218.642380 219.931000,218.338501 220.112366,218.034607 
	C220.112366,218.034607 220.036316,218.038757 220.283844,217.977142 
	C220.707016,217.617615 220.882629,217.319672 221.058258,217.021744 
	C221.058258,217.021744 221.005402,217.001129 221.269196,216.951355 
	C221.721298,216.612915 221.909622,216.324265 222.097961,216.035629 
	C222.097961,216.035629 222.031479,216.033295 222.284241,215.977478 
	C222.700272,215.620804 222.863541,215.319977 223.026810,215.019150 
	C223.026810,215.019150 222.998779,214.999390 223.259064,214.928360 
	C223.729492,214.585022 223.939606,214.312714 224.149750,214.040405 
	C224.453888,214.001328 224.699600,213.860367 225.239044,213.310638 
	C225.795029,212.691788 225.998856,212.379837 226.202682,212.067886 
	C226.202682,212.067886 226.108292,212.078842 226.402435,212.031158 
	C227.191635,211.366516 227.686691,210.749542 228.181732,210.132568 
	C228.181732,210.132553 228.092514,210.122437 228.351105,210.062775 
	C228.808197,209.692154 229.006714,209.381195 229.205231,209.070221 
	C229.205231,209.070221 229.072815,209.070312 229.333557,209.034943 
	C229.785431,208.689331 229.976578,208.379089 230.167725,208.068848 
	C230.167709,208.068848 230.071854,208.068420 230.330505,208.021362 
	C230.779617,207.670807 230.970078,207.367310 231.160538,207.063812 
	C231.160538,207.063812 231.063187,207.063873 231.324463,207.020966 
	C231.780487,206.676208 231.975220,206.374374 232.169952,206.072525 
	C232.169952,206.072525 232.068954,206.074326 232.329773,206.024109 
	C232.790421,205.671692 232.990234,205.369492 233.190063,205.067307 
	C233.190063,205.067307 233.066925,205.067230 233.331650,205.031006 
	C233.795029,204.686340 233.993668,204.377899 234.192307,204.069458 
	C234.192307,204.069458 234.060669,204.066116 234.326096,204.037170 
	C234.803085,203.706833 235.014648,203.405411 235.226196,203.104004 
	C242.484253,195.935730 249.734344,188.759338 257.013977,181.613052 
	C257.666779,180.972214 258.510834,180.526184 260.079285,179.977203 
	C264.057312,179.992554 267.222198,180.044769 270.387054,180.044724 
	C457.636658,180.041382 644.886230,180.034363 832.135864,180.022324 
	C836.133179,180.022064 840.130554,179.958847 844.127869,179.924988 
	C857.212402,193.858047 870.155884,207.926910 883.409607,221.697083 
	C915.347717,254.879639 947.458069,287.896240 979.437073,321.039520 
	C987.756714,329.662079 995.834351,338.517792 1004.062500,347.229309 
	C1005.174500,348.406647 1006.516907,349.366272 1007.923706,350.988281 
	C1008.369629,351.742401 1008.644470,351.934967 1008.919312,352.127563 
	C1008.919312,352.127533 1008.926941,352.064240 1009.000732,352.316284 
	C1009.369446,352.751099 1009.664307,352.933868 1009.959229,353.116638 
	C1009.959229,353.116638 1009.955627,353.038452 1010.020264,353.288391 
	C1010.372925,353.739624 1010.660950,353.940948 1010.948914,354.142273 
M280.555481,230.088913 
	C280.312653,230.350342 280.069855,230.611771 279.274963,231.241486 
	C272.473877,237.844681 265.603973,244.378693 258.883392,251.062836 
	C226.280869,283.488556 193.717834,315.954010 161.141937,348.406494 
	C146.389297,363.103241 131.616730,377.780182 116.929596,392.542114 
	C115.720612,393.757233 112.448738,394.947937 115.956657,398.072327 
	C120.737503,404.019379 125.518349,409.966431 130.578918,416.497498 
	C141.306137,429.390259 151.987366,442.321655 162.775879,455.162933 
	C170.669830,464.558929 178.704849,473.836456 186.977570,483.784119 
	C194.663513,493.161652 202.323914,502.560272 210.040588,511.912415 
	C226.917206,532.365784 243.773026,552.836670 260.748810,573.207520 
	C265.284088,578.649902 270.221619,583.757141 275.136200,589.687866 
	C275.644897,590.537964 276.052246,591.472107 276.677063,592.225952 
	C294.726685,614.002502 312.799103,635.760132 330.865601,657.522644 
	C359.134827,691.575195 387.375244,725.651794 415.694153,759.662964 
	C421.205597,766.282288 427.019623,772.649658 432.886383,779.662720 
	C433.221161,780.101990 433.555939,780.541321 434.169250,781.604187 
	C444.130707,793.402893 454.092194,805.201599 464.179443,817.666992 
	C471.039246,825.806091 477.899048,833.945129 485.113586,842.667542 
	C495.273926,855.066406 505.412964,867.482727 515.603394,879.856873 
	C520.850159,886.227783 526.188293,892.523315 531.891052,899.338013 
	C534.514160,896.237122 536.734314,893.612610 539.523560,890.634216 
	C540.779236,889.303711 542.070312,888.004639 543.285217,886.637878 
	C555.453735,872.947693 567.606201,859.243164 579.770264,845.549011 
	C598.563049,824.392212 617.361267,803.240173 636.589355,781.821289 
	C636.806702,781.562683 637.024048,781.304077 637.780884,780.679626 
	C643.327209,774.496765 648.903137,768.340210 654.414429,762.126282 
	C672.059326,742.231689 689.641357,722.281250 707.322632,702.419128 
	C721.787476,686.170288 736.378906,670.033936 750.843567,653.784912 
	C751.869690,652.632141 752.313843,650.961304 753.567383,649.169312 
	C754.076721,648.508911 754.586060,647.848511 755.748596,646.973877 
	C757.579895,645.310669 759.575684,643.794861 761.217407,641.961853 
	C780.419434,620.521240 799.578369,599.041870 818.728577,577.554871 
	C841.959351,551.489258 865.161011,525.397766 888.393799,499.333923 
	C909.083130,476.123535 929.787292,452.926392 950.505554,429.741852 
	C959.263123,419.941864 967.982361,410.104736 976.908630,400.459991 
	C980.113770,396.996918 980.530273,394.451721 976.673767,391.085236 
	C972.300171,387.267426 968.486023,382.808624 964.429504,378.627594 
	C954.706055,368.605621 944.983215,358.583038 934.973938,347.981171 
	C928.833923,341.444641 922.701172,334.901184 916.552124,328.373138 
	C906.738892,317.955017 897.003113,307.462036 887.075012,297.154480 
	C871.158997,280.630157 855.112366,264.231598 838.783020,247.341095 
	C838.197754,246.894913 837.612427,246.448746 836.731567,245.401443 
	C831.942627,240.560837 827.153687,235.720245 821.974792,230.513458 
	C821.635437,230.433563 821.296021,230.353683 820.946899,230.104736 
	C820.946899,230.104736 820.961670,229.936066 820.217346,229.603531 
	C818.242004,229.392990 816.266785,228.999420 814.291382,228.998474 
	C752.648315,228.968903 691.005310,228.966827 629.362305,229.020081 
	C626.906067,229.022202 624.450317,229.605972 622.040894,230.083710 
	C622.040894,230.083710 622.062500,230.253738 621.582825,230.118546 
	C621.582825,230.118546 621.084534,230.119583 620.552795,229.979691 
	C620.373535,229.941437 620.194336,229.903198 619.767029,229.788895 
	C619.507141,229.744019 619.253052,229.766907 618.067444,229.901520 
	C548.039551,229.920563 478.011627,229.939621 407.225250,229.650955 
	C404.917297,229.433319 402.609589,229.028778 400.301392,229.025986 
	C362.840057,228.980530 325.378632,228.971100 287.917328,229.016235 
	C285.620972,229.018997 283.325287,229.544128 280.555481,230.088913 
z"/>
<path fill="#000638" opacity="1.000000" stroke="none" 
	d="
M843.751831,179.721405 
	C840.130554,179.958847 836.133179,180.022064 832.135864,180.022324 
	C644.886230,180.034363 457.636658,180.041382 270.387054,180.044724 
	C267.222198,180.044769 264.057312,179.992554 260.425232,179.890930 
	C261.912048,179.527161 263.866028,178.983673 265.820160,178.983246 
	C456.196381,178.941772 646.572632,178.939606 836.948853,178.962631 
	C839.091125,178.962891 841.233459,179.324738 843.751831,179.721405 
z"/>
<path fill="#000521" opacity="1.000000" stroke="none" 
	d="
M1021.784790,364.955200 
	C1019.939941,363.432556 1018.019714,361.565063 1015.981262,359.385071 
	C1017.811829,360.918518 1019.760681,362.764435 1021.784790,364.955200 
z"/>
<path fill="#000521" opacity="1.000000" stroke="none" 
	d="
M1043.749512,387.868011 
	C1042.574707,387.034790 1041.323608,385.868958 1039.960449,384.400513 
	C1041.123291,385.243744 1042.398315,386.389587 1043.749512,387.868011 
z"/>
<path fill="#000521" opacity="1.000000" stroke="none" 
	d="
M164.690979,273.070496 
	C163.901031,274.287415 162.757660,275.538940 161.319305,276.916138 
	C162.128723,275.729553 163.233139,274.417328 164.690979,273.070496 
z"/>
<path fill="#000521" opacity="1.000000" stroke="none" 
	d="
M1036.899536,380.718994 
	C1036.024658,380.238739 1035.085205,379.430237 1034.053223,378.321106 
	C1034.918823,378.810547 1035.876953,379.600647 1036.899536,380.718994 
z"/>
<path fill="#000521" opacity="1.000000" stroke="none" 
	d="
M160.728119,277.087769 
	C160.279205,277.706635 159.517044,278.391479 158.433243,279.115356 
	C158.879364,278.487518 159.647125,277.820618 160.728119,277.087769 
z"/>
<path fill="#000521" opacity="1.000000" stroke="none" 
	d="
M1038.776733,382.885437 
	C1038.300415,382.644867 1037.712769,382.128754 1037.038086,381.323425 
	C1037.522583,381.559387 1038.093994,382.084625 1038.776733,382.885437 
z"/>
<path fill="#000521" opacity="1.000000" stroke="none" 
	d="
M227.904572,210.251419 
	C227.686691,210.749542 227.191635,211.366516 226.407959,212.078369 
	C226.622025,211.572250 227.124710,210.971252 227.904572,210.251419 
z"/>
<path fill="#000521" opacity="1.000000" stroke="none" 
	d="
M1014.795044,357.921265 
	C1014.644287,357.946136 1014.345276,357.758606 1013.939331,357.323792 
	C1014.103882,357.287323 1014.375305,357.498077 1014.795044,357.921265 
z"/>
<path fill="#000521" opacity="1.000000" stroke="none" 
	d="
M1031.854980,375.847900 
	C1031.698730,375.871826 1031.418945,375.685730 1031.069580,375.250824 
	C1031.288208,375.162903 1031.532104,375.374847 1031.854980,375.847900 
z"/>
<path fill="#000521" opacity="1.000000" stroke="none" 
	d="
M1030.885254,374.794861 
	C1030.651367,374.938873 1030.383301,374.759003 1030.128418,374.221863 
	C1030.345947,374.129974 1030.582275,374.332062 1030.885254,374.794861 
z"/>
<path fill="#000521" opacity="1.000000" stroke="none" 
	d="
M1028.942627,372.687500 
	C1028.708862,372.847321 1028.455078,372.686493 1028.230713,372.170837 
	C1028.449951,372.067566 1028.670654,372.251190 1028.942627,372.687500 
z"/>
<path fill="#000521" opacity="1.000000" stroke="none" 
	d="
M1026.746948,370.236481 
	C1026.581055,370.241547 1026.236450,369.979828 1025.752686,369.421112 
	C1025.931641,369.405975 1026.250000,369.687836 1026.746948,370.236481 
z"/>
<path fill="#000521" opacity="1.000000" stroke="none" 
	d="
M1024.927002,368.506287 
	C1024.722534,368.668274 1024.507080,368.544891 1024.324707,368.104126 
	C1024.512207,368.005859 1024.698364,368.150574 1024.927002,368.506287 
z"/>
<path fill="#000521" opacity="1.000000" stroke="none" 
	d="
M1024.003052,367.560822 
	C1023.802734,367.724670 1023.589294,367.609863 1023.410583,367.181885 
	C1023.598877,367.080078 1023.780396,367.217896 1024.003052,367.560822 
z"/>
<path fill="#000521" opacity="1.000000" stroke="none" 
	d="
M217.898453,220.177368 
	C217.926804,220.338852 217.738571,220.640060 217.291290,221.026123 
	C217.248795,220.846329 217.465332,220.581711 217.898453,220.177368 
z"/>
<path fill="#000521" opacity="1.000000" stroke="none" 
	d="
M216.896057,221.173828 
	C216.925858,221.334381 216.740479,221.634979 216.295319,222.020645 
	C216.250656,221.841751 216.465759,221.577789 216.896057,221.173828 
z"/>
<path fill="#000521" opacity="1.000000" stroke="none" 
	d="
M218.920868,219.196838 
	C218.942429,219.353470 218.748657,219.650650 218.293823,220.029129 
	C218.257019,219.852753 218.481293,219.595062 218.920868,219.196838 
z"/>
<path fill="#000521" opacity="1.000000" stroke="none" 
	d="
M215.892822,222.173737 
	C215.920883,222.334061 215.736298,222.631760 215.290497,223.004608 
	C215.246262,222.823547 215.463226,222.567322 215.892822,222.173737 
z"/>
<path fill="#000521" opacity="1.000000" stroke="none" 
	d="
M1012.821289,355.910461 
	C1012.672913,355.927704 1012.388977,355.727325 1012.007324,355.279236 
	C1012.168274,355.251923 1012.427002,355.472412 1012.821289,355.910461 
z"/>
<path fill="#000521" opacity="1.000000" stroke="none" 
	d="
M1010.811890,353.921753 
	C1010.660950,353.940948 1010.372925,353.739624 1009.981201,353.290283 
	C1010.143188,353.261932 1010.408997,353.481567 1010.811890,353.921753 
z"/>
<path fill="#000521" opacity="1.000000" stroke="none" 
	d="
M214.870636,223.174194 
	C214.904846,223.334351 214.729935,223.639740 214.297150,224.032608 
	C214.246689,223.853195 214.454102,223.586304 214.870636,223.174194 
z"/>
<path fill="#000521" opacity="1.000000" stroke="none" 
	d="
M1009.809204,352.910767 
	C1009.664307,352.933868 1009.369446,352.751099 1008.969482,352.322388 
	C1009.129333,352.285950 1009.394287,352.495453 1009.809204,352.910767 
z"/>
<path fill="#000521" opacity="1.000000" stroke="none" 
	d="
M1008.807434,351.927917 
	C1008.644470,351.934967 1008.369629,351.742401 1008.099976,351.290680 
	C1008.320557,351.247955 1008.517395,351.480225 1008.807434,351.927917 
z"/>
<path fill="#000521" opacity="1.000000" stroke="none" 
	d="
M213.907104,224.183289 
	C213.936829,224.341721 213.754059,224.650620 213.309601,225.052307 
	C213.263489,224.874649 213.479050,224.604202 213.907104,224.183289 
z"/>
<path fill="#000521" opacity="1.000000" stroke="none" 
	d="
M225.975800,212.221451 
	C225.998856,212.379837 225.795029,212.691788 225.327484,213.112534 
	C225.292145,212.939224 225.520538,212.657120 225.975800,212.221451 
z"/>
<path fill="#000521" opacity="1.000000" stroke="none" 
	d="
M234.998505,203.247986 
	C235.014648,203.405411 234.803085,203.706833 234.324448,204.102997 
	C234.295181,203.929153 234.532990,203.660568 234.998505,203.247986 
z"/>
<path fill="#000521" opacity="1.000000" stroke="none" 
	d="
M233.969513,204.218414 
	C233.993668,204.377899 233.795029,204.686340 233.331650,205.092560 
	C233.293518,204.916031 233.520111,204.641693 233.969513,204.218414 
z"/>
<path fill="#000521" opacity="1.000000" stroke="none" 
	d="
M232.968384,205.214172 
	C232.990234,205.369492 232.790421,205.671692 232.330704,206.074615 
	C232.296112,205.903900 232.521408,205.632462 232.968384,205.214172 
z"/>
<path fill="#000521" opacity="1.000000" stroke="none" 
	d="
M231.952789,206.218475 
	C231.975220,206.374374 231.780487,206.676208 231.324524,207.069641 
	C231.287399,206.895630 231.511505,206.630020 231.952789,206.218475 
z"/>
<path fill="#000521" opacity="1.000000" stroke="none" 
	d="
M230.945343,207.211655 
	C230.970078,207.367310 230.779617,207.670807 230.330322,208.069290 
	C230.291046,207.896027 230.510590,207.627762 230.945343,207.211655 
z"/>
<path fill="#000521" opacity="1.000000" stroke="none" 
	d="
M229.950211,208.221405 
	C229.976578,208.379089 229.785431,208.689331 229.333618,209.101135 
	C229.292862,208.926453 229.512772,208.650192 229.950211,208.221405 
z"/>
<path fill="#000521" opacity="1.000000" stroke="none" 
	d="
M228.982361,209.222961 
	C229.006714,209.381195 228.808197,209.692154 228.346085,210.107391 
	C228.308151,209.932983 228.533813,209.654343 228.982361,209.222961 
z"/>
<path fill="#000521" opacity="1.000000" stroke="none" 
	d="
M1033.861084,377.833618 
	C1033.708740,377.859222 1033.430542,377.672577 1033.064453,377.242371 
	C1033.276489,377.149231 1033.529175,377.356750 1033.861084,377.833618 
z"/>
<path fill="#000521" opacity="1.000000" stroke="none" 
	d="
M223.924408,214.159241 
	C223.939606,214.312714 223.729492,214.585022 223.269318,214.942230 
	C223.245865,214.777451 223.472473,214.527771 223.924408,214.159241 
z"/>
<path fill="#000521" opacity="1.000000" stroke="none" 
	d="
M1044.711670,389.103577 
	C1044.553955,389.110809 1044.252808,388.876648 1043.852783,388.366821 
	C1044.025391,388.348175 1044.296875,388.605164 1044.711670,389.103577 
z"/>
<path fill="#000521" opacity="1.000000" stroke="none" 
	d="
M222.827759,215.165405 
	C222.863541,215.319977 222.700272,215.620804 222.287628,216.010559 
	C222.182617,215.797562 222.379440,215.534958 222.827759,215.165405 
z"/>
<path fill="#000521" opacity="1.000000" stroke="none" 
	d="
M221.887924,216.171402 
	C221.909622,216.324265 221.721298,216.612915 221.277191,216.978561 
	C221.194244,216.765732 221.413071,216.516266 221.887924,216.171402 
z"/>
<path fill="#000521" opacity="1.000000" stroke="none" 
	d="
M220.851898,217.166962 
	C220.882629,217.319672 220.707016,217.617615 220.285950,218.015167 
	C220.242172,217.847260 220.443848,217.579712 220.851898,217.166962 
z"/>
<path fill="#000521" opacity="1.000000" stroke="none" 
	d="
M219.903473,218.184631 
	C219.931000,218.338501 219.749634,218.642380 219.312241,219.041077 
	C219.269012,218.868820 219.481796,218.601746 219.903473,218.184631 
z"/>
<path fill="#000521" opacity="1.000000" stroke="none" 
	d="
M212.931488,225.195648 
	C212.958069,225.350708 212.769791,225.658401 212.323425,226.068954 
	C212.282425,225.897293 212.499542,225.622787 212.931488,225.195648 
z"/>
<path fill="#000521" opacity="1.000000" stroke="none" 
	d="
M196.929611,241.187347 
	C196.955444,241.343979 196.760483,241.647842 196.309540,242.056854 
	C196.271973,241.886215 196.490387,241.610413 196.929611,241.187347 
z"/>
<path fill="#000521" opacity="1.000000" stroke="none" 
	d="
M208.900696,229.176071 
	C208.927780,229.335754 208.741943,229.637527 208.292603,230.017792 
	C208.248642,229.836884 208.468216,229.577530 208.900696,229.176071 
z"/>
<path fill="#000521" opacity="1.000000" stroke="none" 
	d="
M191.880768,246.158997 
	C191.900604,246.311279 191.706772,246.586029 191.264435,246.935822 
	C191.180786,246.721161 191.397858,246.478027 191.880768,246.158997 
z"/>
<path fill="#000521" opacity="1.000000" stroke="none" 
	d="
M207.884979,230.158051 
	C207.903900,230.309982 207.708511,230.585205 207.263824,230.936035 
	C207.181931,230.722107 207.400650,230.478683 207.884979,230.158051 
z"/>
<path fill="#000521" opacity="1.000000" stroke="none" 
	d="
M192.854584,245.166565 
	C192.886002,245.323700 192.714188,245.626251 192.287354,246.010651 
	C192.238678,245.832321 192.445023,245.572159 192.854584,245.166565 
z"/>
<path fill="#000521" opacity="1.000000" stroke="none" 
	d="
M193.912827,244.178680 
	C193.929062,244.328568 193.726639,244.607544 193.272614,244.973312 
	C193.245377,244.809326 193.469788,244.558548 193.912827,244.178680 
z"/>
<path fill="#000521" opacity="1.000000" stroke="none" 
	d="
M194.946030,243.213028 
	C194.965744,243.370789 194.766815,243.669052 194.303741,244.048843 
	C194.268875,243.871429 194.498138,243.612488 194.946030,243.213028 
z"/>
<path fill="#000521" opacity="1.000000" stroke="none" 
	d="
M190.810303,247.166107 
	C190.847717,247.317825 190.684586,247.619827 190.280869,248.028381 
	C190.230118,247.862091 190.419922,247.589233 190.810303,247.166107 
z"/>
<path fill="#000521" opacity="1.000000" stroke="none" 
	d="
M198.860382,239.168060 
	C198.889297,239.323883 198.708832,239.619812 198.274567,240.001541 
	C198.230850,239.827621 198.440933,239.567902 198.860382,239.168060 
z"/>
<path fill="#000521" opacity="1.000000" stroke="none" 
	d="
M199.854004,238.164856 
	C199.885376,238.322784 199.710220,238.617355 199.282257,238.990631 
	C199.182632,238.770889 199.388641,238.514954 199.854004,238.164856 
z"/>
<path fill="#000521" opacity="1.000000" stroke="none" 
	d="
M200.913177,237.176208 
	C200.934860,237.332855 200.739761,237.621155 200.285538,237.985382 
	C200.249741,237.810150 200.473083,237.559006 200.913177,237.176208 
z"/>
<path fill="#000521" opacity="1.000000" stroke="none" 
	d="
M201.934753,236.190521 
	C201.958893,236.352631 201.761078,236.654999 201.299744,237.043610 
	C201.261749,236.863480 201.487274,236.597137 201.934753,236.190521 
z"/>
<path fill="#000521" opacity="1.000000" stroke="none" 
	d="
M203.908020,234.187317 
	C203.935745,234.340439 203.753860,234.647583 203.316559,235.055267 
	C203.273560,234.884338 203.485992,234.612839 203.908020,234.187317 
z"/>
<path fill="#000521" opacity="1.000000" stroke="none" 
	d="
M204.850098,233.169037 
	C204.881775,233.322144 204.707825,233.621414 204.287979,234.020203 
	C204.242889,233.851578 204.443695,233.583405 204.850098,233.169037 
z"/>
<path fill="#000521" opacity="1.000000" stroke="none" 
	d="
M205.882004,232.170105 
	C205.904739,232.322495 205.718857,232.610809 205.277939,232.976440 
	C205.192932,232.763824 205.409760,232.514587 205.882004,232.170105 
z"/>
<path fill="#000521" opacity="1.000000" stroke="none" 
	d="
M206.812256,231.157349 
	C206.849365,231.311447 206.686905,231.608536 206.281281,231.998596 
	C206.173004,231.786667 206.364532,231.522934 206.812256,231.157349 
z"/>
<path fill="#000521" opacity="1.000000" stroke="none" 
	d="
M171.823608,266.144409 
	C171.854599,266.297119 171.678009,266.582245 171.258423,266.958435 
	C171.156006,266.745575 171.356201,266.488037 171.823608,266.144409 
z"/>
<path fill="#000521" opacity="1.000000" stroke="none" 
	d="
M211.955185,226.207642 
	C211.974731,226.359177 211.778900,226.657211 211.325989,227.049759 
	C211.292542,226.880890 211.516174,226.617523 211.955185,226.207642 
z"/>
<path fill="#000521" opacity="1.000000" stroke="none" 
	d="
M165.851898,272.157227 
	C165.883392,272.319427 165.707520,272.615967 165.275238,272.981445 
	C165.176422,272.755402 165.384979,272.502502 165.851898,272.157227 
z"/>
<path fill="#000521" opacity="1.000000" stroke="none" 
	d="
M166.855728,271.164124 
	C166.884216,271.319763 166.705093,271.609955 166.274261,271.979553 
	C166.178925,271.762604 166.387436,271.509186 166.855728,271.164124 
z"/>
<path fill="#000521" opacity="1.000000" stroke="none" 
	d="
M167.847336,270.158936 
	C167.878998,270.315826 167.705658,270.609863 167.281036,270.983582 
	C167.181320,270.765503 167.385513,270.509796 167.847336,270.158936 
z"/>
<path fill="#000521" opacity="1.000000" stroke="none" 
	d="
M168.823151,269.145508 
	C168.855728,269.300018 168.685913,269.592316 168.269470,269.968506 
	C168.168350,269.754181 168.367645,269.497803 168.823151,269.145508 
z"/>
<path fill="#000521" opacity="1.000000" stroke="none" 
	d="
M169.850952,268.149780 
	C169.875687,268.303833 169.690720,268.586945 169.256805,268.947815 
	C169.166885,268.732452 169.378021,268.483551 169.850952,268.149780 
z"/>
<path fill="#000521" opacity="1.000000" stroke="none" 
	d="
M170.843323,267.153687 
	C170.873810,267.309448 170.701035,267.605957 170.273956,267.980621 
	C170.177505,267.764252 170.384323,267.509460 170.843323,267.153687 
z"/>
<path fill="#000521" opacity="1.000000" stroke="none" 
	d="
M155.964935,281.196594 
	C155.967255,281.355927 155.765625,281.622498 155.307159,281.888123 
	C155.272141,281.674408 155.509033,281.479950 155.964935,281.196594 
z"/>
<path fill="#000521" opacity="1.000000" stroke="none" 
	d="
M172.824234,265.136749 
	C172.855347,265.294006 172.678848,265.581665 172.257294,265.950134 
	C172.156174,265.730865 172.357635,265.476227 172.824234,265.136749 
z"/>
<path fill="#000521" opacity="1.000000" stroke="none" 
	d="
M173.875458,264.162720 
	C173.896957,264.317871 173.708038,264.604645 173.261856,264.960205 
	C173.179459,264.743408 173.399612,264.498505 173.875458,264.162720 
z"/>
<path fill="#000521" opacity="1.000000" stroke="none" 
	d="
M174.670883,263.141998 
	C174.729843,263.287689 174.625793,263.594421 174.280640,263.993286 
	C174.139786,263.791138 174.295898,263.530365 174.670883,263.141998 
z"/>
<path fill="#000521" opacity="1.000000" stroke="none" 
	d="
M210.928299,227.209702 
	C210.947464,227.365082 210.752182,227.658356 210.296722,228.028503 
	C210.262314,227.852768 210.488083,227.600174 210.928299,227.209702 
z"/>
<path fill="#000521" opacity="1.000000" stroke="none" 
	d="
M187.914490,250.160614 
	C187.930313,250.335037 187.741440,250.620895 187.288177,250.902374 
	C187.227310,250.661774 187.455978,250.453125 187.914490,250.160614 
z"/>
<path fill="#000521" opacity="1.000000" stroke="none" 
	d="
M188.872650,249.171539 
	C188.900848,249.323959 188.721771,249.624619 188.293121,250.024353 
	C188.250839,249.855530 188.458115,249.587662 188.872650,249.171539 
z"/>
<path fill="#000521" opacity="1.000000" stroke="none" 
	d="
M209.894623,228.179886 
	C209.920349,228.335953 209.728836,228.631165 209.285431,229.022736 
	C209.248169,228.852402 209.462753,228.585709 209.894623,228.179886 
z"/>
<path fill="#274E82" opacity="1.000000" stroke="none" 
	d="
M753.028625,649.531311 
	C752.313843,650.961304 751.869690,652.632141 750.843567,653.784912 
	C736.378906,670.033936 721.787476,686.170288 707.322632,702.419128 
	C689.641357,722.281250 672.059326,742.231689 654.414429,762.126282 
	C648.903137,768.340210 643.327209,774.496765 637.237244,780.844299 
	C636.510864,781.003784 636.328125,780.998535 635.668823,780.954468 
	C592.596191,780.893860 550.000122,780.855896 507.404083,780.857788 
	C488.270660,780.858582 469.137207,780.938904 449.674622,780.908325 
	C448.905975,780.734680 448.466522,780.635925 447.996033,780.180420 
	C445.134430,774.421631 441.732086,769.233215 439.614136,763.565002 
	C436.795380,756.021301 430.215363,751.722290 425.751801,745.642273 
	C422.349609,741.007935 418.517456,736.688599 414.864197,732.239258 
	C412.161346,728.947510 409.611694,725.506226 406.672668,722.439209 
	C404.080627,719.734253 400.719238,717.738220 398.271851,714.928833 
	C393.295044,709.216003 388.745148,703.133423 383.946594,697.262695 
	C378.329132,690.390076 372.545410,683.918945 368.299591,675.738708 
	C363.529877,666.549133 356.153564,658.519409 349.014221,650.816467 
	C343.699890,645.082581 339.239380,638.711609 332.894745,633.575317 
	C324.139893,626.487793 317.444611,616.851013 309.912079,608.266846 
	C309.162079,607.412109 308.789001,606.238586 308.128601,605.291321 
	C305.217224,601.115356 302.749207,596.490051 299.221802,592.914124 
	C292.731689,586.334717 292.470123,586.595459 296.620178,578.759827 
	C296.773224,578.470947 296.821259,578.126465 297.172180,577.590759 
	C329.100342,559.016724 360.747498,540.612915 392.456787,522.316650 
	C421.713928,505.435303 451.055573,488.700409 480.326294,471.842499 
	C502.099548,459.302673 523.807495,446.649536 545.565979,434.084076 
	C562.421448,424.350098 579.331970,414.711334 596.177734,404.960571 
	C612.156616,395.711487 628.049194,386.313202 644.040405,377.085632 
	C668.250671,363.115265 692.590637,349.367920 716.715454,335.252319 
	C726.227539,329.686676 726.186584,329.270569 721.078125,319.547882 
	C719.175171,315.926147 719.649841,314.218994 723.288696,312.146484 
	C746.716370,298.803070 769.980530,285.173065 793.335571,271.701721 
	C803.842834,265.641083 814.436096,259.729401 825.037231,254.142181 
	C825.470825,258.822784 827.676208,261.244019 831.868774,262.728912 
	C837.432007,264.699249 841.292236,268.614532 842.977173,274.658295 
	C843.471313,276.430664 845.571899,278.491333 847.357117,279.033142 
	C853.326721,280.844971 856.953491,284.433319 858.906616,290.354919 
	C859.539551,292.273926 861.650757,294.447723 863.553894,295.067474 
	C869.480347,296.997345 873.094238,300.587921 874.930664,306.554443 
	C875.563049,308.609375 877.655823,310.285187 879.268188,311.953644 
	C882.690491,315.494781 886.924500,318.478271 889.506836,322.530823 
	C891.484619,325.634705 893.310791,327.817413 896.673279,329.493591 
	C900.382263,331.342468 905.410400,332.001648 906.100098,337.930725 
	C906.831970,344.222229 909.445496,349.590668 915.910095,352.405792 
	C917.108826,352.927765 917.389221,355.558441 917.902344,357.484894 
	C913.486816,360.678314 909.441650,363.912964 905.007507,366.474213 
	C884.250305,378.463715 863.334412,390.178314 842.571838,402.158722 
	C810.854370,420.460297 779.234253,438.930511 747.538269,457.269562 
	C727.082397,469.105164 706.536621,480.785187 686.081482,492.622040 
	C651.927673,512.386047 617.845337,532.273682 583.673218,552.006042 
	C558.880798,566.322205 533.953613,580.404968 509.155945,594.712097 
	C477.574310,612.933228 446.060394,631.271790 414.522675,649.569031 
	C407.556305,653.610718 400.612457,657.691284 393.658234,661.753906 
	C393.767609,662.196472 393.876984,662.639099 393.986328,663.081665 
	C396.075745,663.081665 398.165192,663.081787 400.254608,663.081543 
	C464.071655,663.074341 527.888672,663.069275 591.705750,663.057922 
	C603.288025,663.055847 603.393311,663.049561 603.996521,651.746399 
	C604.191406,648.094666 605.782593,646.686646 609.260559,646.749207 
	C613.091064,646.818115 616.924438,646.716125 620.756592,646.707275 
	C664.739075,646.605896 708.721497,646.508118 752.770142,646.792236 
	C752.900391,647.960449 752.964478,648.745911 753.028625,649.531311 
z"/>
<path fill="#142642" opacity="1.000000" stroke="none" 
	d="
M752.703979,646.409302 
	C708.721497,646.508118 664.739075,646.605896 620.756592,646.707275 
	C616.924438,646.716125 613.091064,646.818115 609.260559,646.749207 
	C605.782593,646.686646 604.191406,648.094666 603.996521,651.746399 
	C603.393311,663.049561 603.288025,663.055847 591.705750,663.057922 
	C527.888672,663.069275 464.071655,663.074341 400.254608,663.081543 
	C398.165192,663.081787 396.075745,663.081665 393.986328,663.081665 
	C393.876984,662.639099 393.767609,662.196472 393.658234,661.753906 
	C400.612457,657.691284 407.556305,653.610718 414.522675,649.569031 
	C446.060394,631.271790 477.574310,612.933228 509.155945,594.712097 
	C533.953613,580.404968 558.880798,566.322205 583.673218,552.006042 
	C617.845337,532.273682 651.927673,512.386047 686.081482,492.622040 
	C706.536621,480.785187 727.082397,469.105164 747.538269,457.269562 
	C779.234253,438.930511 810.854370,420.460297 842.571838,402.158722 
	C863.334412,390.178314 884.250305,378.463715 905.007507,366.474213 
	C909.441650,363.912964 913.486816,360.678314 918.264526,357.417328 
	C924.298645,354.240753 929.779358,351.400726 935.260071,348.560730 
	C944.983215,358.583038 954.706055,368.605621 964.429504,378.627594 
	C968.486023,382.808624 972.300171,387.267426 976.673767,391.085236 
	C980.530273,394.451721 980.113770,396.996918 976.908630,400.459991 
	C967.982361,410.104736 959.263123,419.941864 950.505554,429.741852 
	C929.787292,452.926392 909.083130,476.123535 888.393799,499.333923 
	C865.161011,525.397766 841.959351,551.489258 818.728577,577.554871 
	C799.578369,599.041870 780.419434,620.521240 761.217407,641.961853 
	C759.575684,643.794861 757.579895,645.310669 755.153564,646.907715 
	C753.940369,646.697449 753.322205,646.553406 752.703979,646.409302 
z"/>
<path fill="#142641" opacity="1.000000" stroke="none" 
	d="
M450.003784,780.983154 
	C469.137207,780.938904 488.270660,780.858582 507.404083,780.857788 
	C550.000122,780.855896 592.596191,780.893860 635.659424,781.227783 
	C636.136902,781.721924 636.147034,781.904053 636.157166,782.086121 
	C617.361267,803.240173 598.563049,824.392212 579.770264,845.549011 
	C567.606201,859.243164 555.453735,872.947693 543.285217,886.637878 
	C542.070312,888.004639 540.779236,889.303711 538.964844,890.633423 
	C534.434753,886.160278 528.515442,883.089905 528.016357,876.101440 
	C527.976196,875.538696 527.352356,874.955261 526.887390,874.494934 
	C522.521057,870.171326 518.324097,865.649780 513.696655,861.623901 
	C508.143158,856.792419 502.784119,852.047485 501.098358,844.364319 
	C500.704254,842.568115 499.170593,840.917236 497.884674,839.440186 
	C493.202118,834.061462 487.369232,829.378967 483.890045,823.329651 
	C478.724976,814.349121 472.383789,807.347229 462.865295,803.229736 
	C461.550690,802.661133 460.041046,801.689148 459.429596,800.491455 
	C456.146576,794.060669 453.119354,787.499329 450.003784,780.983154 
M541.063171,883.905457 
	C541.063171,883.905457 540.918640,884.094116 540.918640,884.094116 
	C540.918640,884.094116 541.124512,883.978943 541.063171,883.905457 
z"/>
<path fill="#0D1B2F" opacity="1.000000" stroke="none" 
	d="
M115.752098,397.441345 
	C112.448738,394.947937 115.720612,393.757233 116.929596,392.542114 
	C131.616730,377.780182 146.389297,363.103241 161.141937,348.406494 
	C193.717834,315.954010 226.280869,283.488556 258.883392,251.062836 
	C265.603973,244.378693 272.473877,237.844681 280.029358,231.093842 
	C318.161194,230.972183 355.538727,230.975479 392.915985,231.070328 
	C395.687622,231.077362 398.457642,231.741943 400.989716,232.343979 
	C398.155273,234.362305 395.559540,236.137466 392.620850,238.002777 
	C386.945587,240.801605 381.613251,243.510269 375.875397,246.059021 
	C372.505707,245.599106 369.541107,245.036224 366.577545,245.041809 
	C347.655396,245.077408 328.721344,244.895218 309.818848,245.564529 
	C304.076019,245.767868 297.308136,246.968628 292.951202,250.272675 
	C283.211365,257.658783 274.544891,266.502625 265.724121,275.044830 
	C258.677521,281.868927 252.151245,289.226898 245.213028,296.166962 
	C231.342361,310.041382 217.186432,323.634827 203.502548,337.689240 
	C199.409378,341.893219 196.492386,347.242401 192.815460,352.298157 
	C191.424500,353.047668 190.254608,353.565918 188.793335,353.984558 
	C187.423828,354.758789 186.345688,355.632660 185.085968,356.716949 
	C184.263565,357.279144 183.622711,357.630920 182.781799,357.927917 
	C182.046875,358.232544 181.512009,358.591949 181.008789,359.042725 
	C181.040421,359.134094 181.112152,359.313690 180.776215,359.387207 
	C167.937637,366.923492 155.435013,374.386261 142.603912,381.957642 
	C140.460754,383.313751 138.646042,384.561310 136.832321,385.788055 
	C136.833298,385.767242 136.793030,385.778046 136.445343,385.840973 
	C129.315811,389.749725 122.533951,393.595520 115.752098,397.441345 
z"/>
<path fill="#234779" opacity="1.000000" stroke="none" 
	d="
M296.918274,577.807861 
	C296.821259,578.126465 296.773224,578.470947 296.620178,578.759827 
	C292.470123,586.595459 292.731689,586.334717 299.221802,592.914124 
	C302.749207,596.490051 305.217224,601.115356 308.128601,605.291321 
	C308.789001,606.238586 309.162079,607.412109 309.912079,608.266846 
	C317.444611,616.851013 324.139893,626.487793 332.894745,633.575317 
	C339.239380,638.711609 343.699890,645.082581 349.014221,650.816467 
	C356.153564,658.519409 363.529877,666.549133 368.299591,675.738708 
	C372.545410,683.918945 378.329132,690.390076 383.946594,697.262695 
	C388.745148,703.133423 393.295044,709.216003 398.271851,714.928833 
	C400.719238,717.738220 404.080627,719.734253 406.672668,722.439209 
	C409.611694,725.506226 412.161346,728.947510 414.864197,732.239258 
	C418.517456,736.688599 422.349609,741.007935 425.751801,745.642273 
	C430.215363,751.722290 436.795380,756.021301 439.614136,763.565002 
	C441.732086,769.233215 445.134430,774.421631 447.563080,780.260742 
	C445.114563,780.740601 443.067932,780.783325 440.834015,780.549194 
	C437.995819,779.892639 435.344971,779.512939 432.694092,779.133240 
	C427.019623,772.649658 421.205597,766.282288 415.694153,759.662964 
	C387.375244,725.651794 359.134827,691.575195 330.865601,657.522644 
	C312.799103,635.760132 294.726685,614.002502 276.677063,592.225952 
	C276.052246,591.472107 275.644897,590.537964 275.406647,589.313721 
	C277.825928,587.694519 279.974762,586.449402 282.476929,585.143921 
	C287.526276,582.658264 292.222260,580.233093 296.918274,577.807861 
z"/>
<path fill="#0D1B2F" opacity="1.000000" stroke="none" 
	d="
M822.364807,230.879639 
	C827.153687,235.720245 831.942627,240.560837 836.579590,245.863098 
	C834.378113,247.293900 832.328735,248.263077 829.849121,249.170044 
	C816.620789,245.332123 803.492981,245.806870 790.367798,245.950027 
	C778.740173,246.076859 767.109375,245.895355 755.479980,245.877686 
	C742.525391,245.857986 729.570862,245.870224 716.616272,245.867340 
	C702.824951,245.864273 689.033569,245.859467 675.242249,245.856033 
	C662.453613,245.852859 649.664978,245.840759 636.876343,245.850998 
	C627.267761,245.858688 617.648743,246.145264 608.058044,245.742722 
	C605.676514,245.642776 603.386841,243.354431 601.340088,241.886017 
	C608.064514,238.128372 614.503845,234.556717 621.146362,230.889252 
	C621.613831,230.648743 621.851501,230.468826 622.062500,230.253738 
	C622.062500,230.253738 622.040894,230.083710 622.480347,230.081726 
	C625.080872,230.106339 627.241943,230.155228 629.403076,230.156311 
	C691.928406,230.187698 754.453674,230.214294 817.176208,230.320450 
	C817.923218,230.345825 818.472961,230.292419 819.347778,230.196365 
	C820.102417,230.081177 820.532043,230.008636 820.961670,229.936081 
	C820.961670,229.936066 820.946899,230.104736 821.168579,230.327133 
	C821.715088,230.659561 822.039917,230.769592 822.364807,230.879639 
z"/>
<path fill="#214270" opacity="1.000000" stroke="none" 
	d="
M620.943115,230.985046 
	C614.503845,234.556717 608.064514,238.128372 601.017944,242.009277 
	C596.971130,244.251938 593.531555,246.185318 589.918457,247.795532 
	C587.890991,243.074661 584.098389,242.976013 580.127625,242.979477 
	C542.209595,243.012497 504.291595,243.011154 466.373566,242.988434 
	C456.269775,242.982376 446.166077,242.870087 436.062317,242.804764 
	C425.803589,242.738449 415.544434,242.704437 405.286285,242.586731 
	C400.638092,242.533417 395.917999,242.506027 392.963806,237.912628 
	C395.559540,236.137466 398.155273,234.362305 401.269470,232.277374 
	C402.500671,231.362625 403.213409,230.757645 404.331299,230.122406 
	C405.818848,230.047653 406.901306,230.003159 407.983734,229.958664 
	C478.011627,229.939621 548.039551,229.920563 618.788452,229.895386 
	C619.677979,229.881134 619.846558,229.873047 620.015076,229.864944 
	C620.194336,229.903198 620.373535,229.941437 620.784180,230.266098 
	C621.015564,230.552505 620.943115,230.985046 620.943115,230.985046 
z"/>
<path fill="#24487A" opacity="1.000000" stroke="none" 
	d="
M935.117004,348.270935 
	C929.779358,351.400726 924.298645,354.240753 918.455688,357.148346 
	C917.389221,355.558441 917.108826,352.927765 915.910095,352.405792 
	C909.445496,349.590668 906.831970,344.222229 906.100098,337.930725 
	C905.410400,332.001648 900.382263,331.342468 896.673279,329.493591 
	C893.310791,327.817413 891.484619,325.634705 889.506836,322.530823 
	C886.924500,318.478271 882.690491,315.494781 879.268188,311.953644 
	C877.655823,310.285187 875.563049,308.609375 874.930664,306.554443 
	C873.094238,300.587921 869.480347,296.997345 863.553894,295.067474 
	C861.650757,294.447723 859.539551,292.273926 858.906616,290.354919 
	C856.953491,284.433319 853.326721,280.844971 847.357117,279.033142 
	C845.571899,278.491333 843.471313,276.430664 842.977173,274.658295 
	C841.292236,268.614532 837.432007,264.699249 831.868774,262.728912 
	C827.676208,261.244019 825.470825,258.822784 825.254822,253.970947 
	C825.929504,253.159805 826.433533,252.911957 827.260254,252.851501 
	C833.715088,254.297775 836.756226,252.911636 839.120972,247.779877 
	C855.112366,264.231598 871.158997,280.630157 887.075012,297.154480 
	C897.003113,307.462036 906.738892,317.955017 916.552124,328.373138 
	C922.701172,334.901184 928.833923,341.444641 935.117004,348.270935 
z"/>
<path fill="#234777" opacity="1.000000" stroke="none" 
	d="
M142.932373,381.849030 
	C155.435013,374.386261 167.937637,366.923492 180.758392,359.790802 
	C180.849014,363.808350 181.790329,368.378174 175.319077,367.095642 
	C174.744629,366.981812 173.347305,368.792511 173.043655,369.903809 
	C171.170547,376.758698 165.925156,380.432831 160.364273,383.897888 
	C155.247070,387.086426 148.595413,388.366180 147.075851,395.837250 
	C144.654480,407.742249 140.297821,411.713013 154.199661,419.475342 
	C156.698166,420.870514 158.183044,424.158203 160.007675,426.665436 
	C162.988251,430.761108 165.687469,435.073059 168.831390,439.035095 
	C172.119370,443.178650 175.968338,446.876862 179.259399,451.018188 
	C185.796631,459.244385 192.706711,467.006226 201.849930,472.312439 
	C199.744247,473.381470 197.899063,474.236633 195.923203,474.920044 
	C195.153473,475.231720 194.514450,475.715210 193.691986,476.435059 
	C192.545013,477.673920 191.581497,478.676422 190.274094,479.743744 
	C188.845810,480.927979 187.761414,482.047363 186.677002,483.166779 
	C178.704849,473.836456 170.669830,464.558929 162.775879,455.162933 
	C151.987366,442.321655 141.306137,429.390259 130.734558,416.102417 
	C131.242783,414.007141 131.878021,412.308716 131.888870,410.606354 
	C131.911133,407.102631 130.854111,403.427917 131.600571,400.131409 
	C132.715515,395.207489 135.003845,390.549286 136.793030,385.778046 
	C136.793030,385.778046 136.833298,385.767242 137.206451,385.778503 
	C139.363846,384.476166 141.148102,383.162598 142.932373,381.849030 
z"/>
<path fill="#0E203A" opacity="1.000000" stroke="none" 
	d="
M186.827286,483.475464 
	C187.761414,482.047363 188.845810,480.927979 190.656860,479.914917 
	C192.515442,480.263672 193.753876,480.928284 194.760590,480.674347 
	C198.788223,479.658356 200.876450,481.570129 202.610840,484.896301 
	C204.210007,487.963135 205.941879,491.091522 208.228516,493.643280 
	C213.882584,499.953094 217.048508,508.451477 224.985916,512.768677 
	C225.654541,513.132263 226.234009,513.977234 226.495438,514.724304 
	C230.129639,525.110046 240.995117,528.812988 247.028336,536.973755 
	C247.393829,537.468079 248.270050,537.567688 248.685760,538.044983 
	C250.561813,540.199097 252.760818,542.202393 254.107651,544.662842 
	C258.397339,552.499146 261.391693,561.551392 269.780518,565.958496 
	C277.884735,570.216125 280.874329,576.958435 282.123596,585.204346 
	C279.974762,586.449402 277.825928,587.694519 275.325806,588.978943 
	C270.221619,583.757141 265.284088,578.649902 260.748810,573.207520 
	C243.773026,552.836670 226.917206,532.365784 210.040588,511.912415 
	C202.323914,502.560272 194.663513,493.161652 186.827286,483.475464 
z"/>
<path fill="#10213B" opacity="1.000000" stroke="none" 
	d="
M441.021332,780.826050 
	C443.067932,780.783325 445.114563,780.740601 447.594116,780.617493 
	C448.466522,780.635925 448.905975,780.734680 449.674591,780.908325 
	C453.119354,787.499329 456.146576,794.060669 459.429596,800.491455 
	C460.041046,801.689148 461.550690,802.661133 462.865295,803.229736 
	C472.383789,807.347229 478.724976,814.349121 483.890045,823.329651 
	C487.369232,829.378967 493.202118,834.061462 497.884674,839.440186 
	C499.170593,840.917236 500.704254,842.568115 501.098358,844.364319 
	C502.784119,852.047485 508.143158,856.792419 513.696655,861.623901 
	C518.324097,865.649780 522.521057,870.171326 526.887390,874.494934 
	C527.352356,874.955261 527.976196,875.538696 528.016357,876.101440 
	C528.515442,883.089905 534.434753,886.160278 538.680298,890.810303 
	C536.734314,893.612610 534.514160,896.237122 531.891052,899.338013 
	C526.188293,892.523315 520.850159,886.227783 515.603394,879.856873 
	C505.412964,867.482727 495.273926,855.066406 485.214783,842.267334 
	C488.171661,840.412231 486.445587,839.267578 485.194519,837.804077 
	C480.627441,832.461670 475.707855,827.325806 471.879364,821.484009 
	C469.743774,818.225403 467.717590,816.682190 464.053650,817.000366 
	C454.092194,805.201599 444.130707,793.402893 434.477386,781.283691 
	C436.864136,780.917419 438.942719,780.871704 441.021332,780.826050 
z"/>
<path fill="#1F3F6B" opacity="1.000000" stroke="none" 
	d="
M136.445343,385.840973 
	C135.003845,390.549286 132.715515,395.207489 131.600571,400.131409 
	C130.854111,403.427917 131.911133,407.102631 131.888870,410.606354 
	C131.878021,412.308716 131.242783,414.007141 130.594696,415.810425 
	C125.518349,409.966431 120.737503,404.019379 115.854378,397.756836 
	C122.533951,393.595520 129.315811,389.749725 136.445343,385.840973 
z"/>
<path fill="#3B649C" opacity="1.000000" stroke="none" 
	d="
M816.979004,230.241699 
	C754.453674,230.214294 691.928406,230.187698 629.403076,230.156311 
	C627.241943,230.155228 625.080872,230.106339 622.457031,229.999237 
	C624.450317,229.605972 626.906067,229.022202 629.362305,229.020081 
	C691.005310,228.966827 752.648315,228.968903 814.291382,228.998474 
	C816.266785,228.999420 818.242004,229.392990 820.589478,229.769806 
	C820.532043,230.008636 820.102417,230.081177 819.008301,230.142273 
	C817.888916,230.167786 817.433960,230.204742 816.979004,230.241699 
z"/>
<path fill="#07254F" opacity="1.000000" stroke="none" 
	d="
M403.926178,230.152679 
	C403.213409,230.757645 402.500671,231.362625 401.508179,232.034210 
	C398.457642,231.741943 395.687622,231.077362 392.915985,231.070328 
	C355.538727,230.975479 318.161194,230.972183 280.305389,230.909698 
	C280.069855,230.611771 280.312653,230.350342 281.256531,230.010864 
	C284.623291,229.952133 287.288971,229.984756 289.954742,229.988754 
	C327.945221,230.045670 365.935699,230.098724 403.926178,230.152679 
z"/>
<path fill="#3B649C" opacity="1.000000" stroke="none" 
	d="
M404.331299,230.122421 
	C365.935699,230.098724 327.945221,230.045670 289.954742,229.988754 
	C287.288971,229.984756 284.623291,229.952133 281.493408,229.879501 
	C283.325287,229.544128 285.620972,229.018997 287.917328,229.016235 
	C325.378632,228.971100 362.840057,228.980530 400.301392,229.025986 
	C402.609589,229.028778 404.917297,229.433319 407.604492,229.804810 
	C406.901306,230.003159 405.818848,230.047653 404.331299,230.122421 
z"/>
<path fill="#0E203A" opacity="1.000000" stroke="none" 
	d="
M464.116547,817.333679 
	C467.717590,816.682190 469.743774,818.225403 471.879364,821.484009 
	C475.707855,827.325806 480.627441,832.461670 485.194519,837.804077 
	C486.445587,839.267578 488.171661,840.412231 485.037415,841.975708 
	C477.899048,833.945129 471.039246,825.806091 464.116547,817.333679 
z"/>
<path fill="#214270" opacity="1.000000" stroke="none" 
	d="
M838.952026,247.560486 
	C836.756226,252.911636 833.715088,254.297775 827.439209,252.622345 
	C828.289978,251.214615 829.284607,250.223419 830.279297,249.232239 
	C832.328735,248.263077 834.378113,247.293900 836.727356,246.163651 
	C837.612427,246.448746 838.197754,246.894913 838.952026,247.560486 
z"/>
<path fill="#213D6B" opacity="1.000000" stroke="none" 
	d="
M440.834015,780.549194 
	C438.942719,780.871704 436.864136,780.917419 434.338135,780.971863 
	C433.555939,780.541321 433.221161,780.101990 432.790222,779.397949 
	C435.344971,779.512939 437.995819,779.892639 440.834015,780.549194 
z"/>
<path fill="#223B61" opacity="1.000000" stroke="none" 
	d="
M752.770142,646.792175 
	C753.322205,646.553406 753.940369,646.697449 754.826965,647.014832 
	C754.586060,647.848511 754.076721,648.508911 753.297974,649.350342 
	C752.964478,648.745911 752.900391,647.960449 752.770142,646.792175 
z"/>
<path fill="#213D6B" opacity="1.000000" stroke="none" 
	d="
M636.373291,781.953735 
	C636.147034,781.904053 636.136902,781.721924 636.136047,781.266602 
	C636.328125,780.998535 636.510864,781.003784 636.967529,781.027222 
	C637.024048,781.304077 636.806702,781.562683 636.373291,781.953735 
z"/>
<path fill="#3B649C" opacity="1.000000" stroke="none" 
	d="
M619.891052,229.826920 
	C619.846558,229.873047 619.677979,229.881134 619.257080,229.873383 
	C619.253052,229.766907 619.507141,229.744019 619.891052,229.826920 
z"/>
<path fill="#0C2851" opacity="1.000000" stroke="none" 
	d="
M621.146362,230.889252 
	C620.943115,230.985046 621.015564,230.552505 621.050049,230.336044 
	C621.084534,230.119583 621.582825,230.118546 621.822632,230.186142 
	C621.851501,230.468826 621.613831,230.648743 621.146362,230.889252 
z"/>
<path fill="#0C2851" opacity="1.000000" stroke="none" 
	d="
M822.169800,230.696548 
	C822.039917,230.769592 821.715088,230.659561 821.173462,230.411652 
	C821.296021,230.353683 821.635437,230.433563 822.169800,230.696548 
z"/>
<path fill="#142642" opacity="1.000000" stroke="none" 
	d="
M829.849121,249.170044 
	C829.284607,250.223419 828.289978,251.214615 827.116455,252.434952 
	C826.433533,252.911957 825.929504,253.159805 825.207886,253.578918 
	C814.436096,259.729401 803.842834,265.641083 793.335571,271.701721 
	C769.980530,285.173065 746.716370,298.803070 723.288696,312.146484 
	C719.649841,314.218994 719.175171,315.926147 721.078125,319.547882 
	C726.186584,329.270569 726.227539,329.686676 716.715454,335.252319 
	C692.590637,349.367920 668.250671,363.115265 644.040405,377.085632 
	C628.049194,386.313202 612.156616,395.711487 596.177734,404.960571 
	C579.331970,414.711334 562.421448,424.350098 545.565979,434.084076 
	C523.807495,446.649536 502.099548,459.302673 480.326294,471.842499 
	C451.055573,488.700409 421.713928,505.435303 392.456787,522.316650 
	C360.747498,540.612915 329.100342,559.016724 297.172180,577.590820 
	C292.222260,580.233093 287.526276,582.658264 282.476929,585.143921 
	C280.874329,576.958435 277.884735,570.216125 269.780518,565.958496 
	C261.391693,561.551392 258.397339,552.499146 254.107651,544.662842 
	C252.760818,542.202393 250.561813,540.199097 248.685760,538.044983 
	C248.270050,537.567688 247.393829,537.468079 247.028336,536.973755 
	C240.995117,528.812988 230.129639,525.110046 226.495438,514.724304 
	C226.234009,513.977234 225.654541,513.132263 224.985916,512.768677 
	C217.048508,508.451477 213.882584,499.953094 208.228516,493.643280 
	C205.941879,491.091522 204.210007,487.963135 202.610840,484.896301 
	C200.876450,481.570129 198.788223,479.658356 194.760590,480.674347 
	C193.753876,480.928284 192.515442,480.263672 191.000763,479.850098 
	C191.581497,478.676422 192.545013,477.673920 193.993790,476.351044 
	C195.003983,475.717682 195.528946,475.404755 196.053894,475.091797 
	C197.899063,474.236633 199.744247,473.381470 202.173615,472.194366 
	C231.413177,455.296844 260.051392,438.701477 288.728180,422.173096 
	C327.221588,399.986694 365.769623,377.895111 404.246887,355.680786 
	C431.762848,339.794739 459.199646,323.771515 486.674347,307.813904 
	C511.988312,293.111328 537.320068,278.439331 562.608582,263.693054 
	C567.260986,260.980133 571.743774,257.976410 576.657959,255.079437 
	C581.371338,252.740875 585.731689,250.429779 590.091980,248.118683 
	C593.531555,246.185318 596.971130,244.251938 600.732788,242.195267 
	C603.386841,243.354431 605.676514,245.642776 608.058044,245.742722 
	C617.648743,246.145264 627.267761,245.858688 636.876343,245.850998 
	C649.664978,245.840759 662.453613,245.852859 675.242249,245.856033 
	C689.033569,245.859467 702.824951,245.864273 716.616272,245.867340 
	C729.570862,245.870224 742.525391,245.857986 755.479980,245.877686 
	C767.109375,245.895355 778.740173,246.076859 790.367798,245.950027 
	C803.492981,245.806870 816.620789,245.332123 829.849121,249.170044 
z"/>
<path fill="#10213B" opacity="1.000000" stroke="none" 
	d="
M541.093872,883.942200 
	C541.124512,883.978943 540.918640,884.094116 540.918640,884.094116 
	C540.918640,884.094116 541.063171,883.905457 541.093872,883.942200 
z"/>
<path fill="#274E82" opacity="1.000000" stroke="none" 
	d="
M576.304810,255.106903 
	C571.743774,257.976410 567.260986,260.980133 562.608582,263.693054 
	C537.320068,278.439331 511.988312,293.111328 486.674347,307.813904 
	C459.199646,323.771515 431.762848,339.794739 404.246887,355.680786 
	C365.769623,377.895111 327.221588,399.986694 288.728180,422.173096 
	C260.051392,438.701477 231.413177,455.296844 202.434113,471.980469 
	C192.706711,467.006226 185.796631,459.244385 179.259399,451.018188 
	C175.968338,446.876862 172.119370,443.178650 168.831390,439.035095 
	C165.687469,435.073059 162.988251,430.761108 160.007675,426.665436 
	C158.183044,424.158203 156.698166,420.870514 154.199661,419.475342 
	C140.297821,411.713013 144.654480,407.742249 147.075851,395.837250 
	C148.595413,388.366180 155.247070,387.086426 160.364273,383.897888 
	C165.925156,380.432831 171.170547,376.758698 173.043655,369.903809 
	C173.347305,368.792511 174.744629,366.981812 175.319077,367.095642 
	C181.790329,368.378174 180.849014,363.808350 181.094330,359.717285 
	C181.112152,359.313690 181.040421,359.134094 181.290192,358.998840 
	C182.020615,358.569946 182.501236,358.276306 182.981857,357.982666 
	C183.622711,357.630920 184.263565,357.279144 185.404419,356.624878 
	C186.964523,355.576324 188.024612,354.830231 189.084717,354.084167 
	C190.254608,353.565918 191.424500,353.047668 193.155182,352.193115 
	C195.351639,351.038513 197.035400,350.303375 198.615677,349.389343 
	C219.071762,337.557953 239.509125,325.694214 259.959320,313.852600 
	C282.289825,300.922180 304.583496,287.927216 326.982178,275.115845 
	C339.104065,268.182495 351.411377,261.573303 364.117432,254.851700 
	C376.863312,256.849152 388.957611,256.399719 401.047821,253.229309 
	C403.999817,252.455215 407.483368,253.754639 410.728210,254.034607 
	C412.836975,254.216568 414.967743,254.478226 417.068146,254.354935 
	C422.015503,254.064484 426.944366,253.339706 431.892090,253.202667 
	C439.360077,252.995850 446.847412,253.376266 454.308807,253.072083 
	C462.572510,252.735184 470.809540,251.554199 479.070618,251.398514 
	C486.829651,251.252258 494.601959,252.082962 502.373596,252.271729 
	C515.613220,252.593338 528.857605,252.713226 542.098450,252.992889 
	C546.856018,253.093353 551.797729,254.336472 556.320312,253.414398 
	C563.335327,251.984207 569.777405,253.001740 576.304810,255.106903 
z"/>
<path fill="#132640" opacity="1.000000" stroke="none" 
	d="
M363.635040,254.817871 
	C351.411377,261.573303 339.104065,268.182495 326.982178,275.115845 
	C304.583496,287.927216 282.289825,300.922180 259.959320,313.852600 
	C239.509125,325.694214 219.071762,337.557953 198.615677,349.389343 
	C197.035400,350.303375 195.351639,351.038513 193.376251,351.961853 
	C196.492386,347.242401 199.409378,341.893219 203.502548,337.689240 
	C217.186432,323.634827 231.342361,310.041382 245.213028,296.166962 
	C252.151245,289.226898 258.677521,281.868927 265.724121,275.044830 
	C274.544891,266.502625 283.211365,257.658783 292.951202,250.272675 
	C297.308136,246.968628 304.076019,245.767868 309.818848,245.564529 
	C328.721344,244.895218 347.655396,245.077408 366.577545,245.041809 
	C369.541107,245.036224 372.505707,245.599106 375.698364,246.355957 
	C371.829620,249.481140 367.732330,252.149506 363.635040,254.817871 
z"/>
<path fill="#24497A" opacity="1.000000" stroke="none" 
	d="
M364.117432,254.851685 
	C367.732330,252.149506 371.829620,249.481140 376.103943,246.515839 
	C381.613251,243.510269 386.945587,240.801605 392.620850,238.002792 
	C395.917999,242.506027 400.638092,242.533417 405.286285,242.586731 
	C415.544434,242.704437 425.803589,242.738449 436.062317,242.804764 
	C446.166077,242.870087 456.269775,242.982376 466.373566,242.988434 
	C504.291595,243.011154 542.209595,243.012497 580.127625,242.979477 
	C584.098389,242.976013 587.890991,243.074661 589.918457,247.795517 
	C585.731689,250.429779 581.371338,252.740875 576.657959,255.079437 
	C569.777405,253.001740 563.335327,251.984207 556.320312,253.414398 
	C551.797729,254.336472 546.856018,253.093353 542.098450,252.992889 
	C528.857605,252.713226 515.613220,252.593338 502.373596,252.271729 
	C494.601959,252.082962 486.829651,251.252258 479.070618,251.398514 
	C470.809540,251.554199 462.572510,252.735184 454.308807,253.072083 
	C446.847412,253.376266 439.360077,252.995850 431.892090,253.202667 
	C426.944366,253.339706 422.015503,254.064484 417.068146,254.354935 
	C414.967743,254.478226 412.836975,254.216568 410.728210,254.034607 
	C407.483368,253.754639 403.999817,252.455215 401.047821,253.229309 
	C388.957611,256.399719 376.863312,256.849152 364.117432,254.851685 
z"/>
<path fill="#1F3F6B" opacity="1.000000" stroke="none" 
	d="
M142.603912,381.957642 
	C141.148102,383.162598 139.363846,384.476166 137.205475,385.799316 
	C138.646042,384.561310 140.460754,383.313751 142.603912,381.957642 
z"/>
<path fill="#132640" opacity="1.000000" stroke="none" 
	d="
M188.793335,353.984558 
	C188.024612,354.830231 186.964523,355.576324 185.585983,356.414459 
	C186.345688,355.632660 187.423828,354.758789 188.793335,353.984558 
z"/>
<path fill="#132640" opacity="1.000000" stroke="none" 
	d="
M182.781799,357.927917 
	C182.501236,358.276306 182.020615,358.569946 181.258575,358.907471 
	C181.512009,358.591949 182.046875,358.232544 182.781799,357.927917 
z"/>
<path fill="#0C2851" opacity="1.000000" stroke="none" 
	d="
M817.176208,230.320465 
	C817.433960,230.204742 817.888916,230.167786 818.683350,230.184937 
	C818.472961,230.292419 817.923218,230.345825 817.176208,230.320465 
z"/>
<path fill="#274E82" opacity="1.000000" stroke="none" 
	d="
M195.923218,474.920044 
	C195.528946,475.404755 195.003983,475.717682 194.177216,476.114655 
	C194.514450,475.715210 195.153473,475.231720 195.923218,474.920044 
z"/>
</svg>